<?xml version="1.0" encoding="utf-8"?>
<!-- Generator: Adobe Illustrator 18.1.1, SVG Export Plug-In . SVG Version: 6.00 Build 0)  -->
<svg version="1.1" id="Layer_1" xmlns="http://www.w3.org/2000/svg" xmlns:xlink="http://www.w3.org/1999/xlink" x="0px" y="0px"
	 width="1400px" height="980px" viewBox="0 0 1400 980" enable-background="new 0 0 1400 980" xml:space="preserve">
<g>
	<rect fill-rule="evenodd" clip-rule="evenodd" fill="#FDFEF0" width="1399" height="980"/>
</g>
<g>
	<linearGradient id="SVGID_1_" gradientUnits="userSpaceOnUse" x1="1293.6627" y1="532.3751" x2="157.4925" y2="564.2899">
		<stop  offset="0" style="stop-color:#E8DFA5"/>
		<stop  offset="1" style="stop-color:#FEFCE3"/>
	</linearGradient>
	<path fill-rule="evenodd" clip-rule="evenodd" fill="url(#SVGID_1_)" d="M0,192.3V980h1400V172.4c-17,0-55.8-2-71.1-6.1
		c-16.1-4.3-76.2-10.7-77-11c-45.5-20.6-55.7,3.8-103.1-18.4c-19.2-4-90.9-28.9-91.3-28.9c-28.4-2.2-46.3-5.6-73.1-16.3
		c-14.2-5.6-50.1,12.2-62.4,19.6c-3.5,2.1-10.7,4.3-14.8,4.6c-4.2-1-8.4-2-12.6-3c-39.5-9.7-102.1,38-136.1,39.6
		c-10.8,0.9-21.6,1.9-32.4,2.8c-7.8-0.7-60,40.3-106.5,37c-9.6,0.9-19.1,1.9-28.7,2.8c-13.4,0.6-26.8,1.3-40.3,1.9
		c-13.3,3.9-26.5,7.7-39.8,11.6c-9,0-25.5-7.7-37.1-1.8c-25.3,12.9-43.4-0.5-59.2-0.5c-15.7-0.3-31.5-0.6-47.2-0.9
		c-5.1-0.3-10.2-0.6-15.3-0.9c-10.6-1.2-21.3-2.5-31.9-3.7c-8.2,1.5-16.3,3.1-24.5,4.6c-8.8-0.1-17.6-0.3-26.4-0.5
		c-3.7-0.8-7.4-1.5-11.1-2.3c-12.4,0-16.4-0.1-28.2,1.4c-58.8,7-98-15.7-157.9-15.7c-7.1-0.1-14.2-0.3-21.3-0.5
		c-5.4-0.2-10.8-0.3-16.2-0.5L0,192.3z"/>
</g>
<g>
	<linearGradient id="SVGID_2_" gradientUnits="userSpaceOnUse" x1="1085.6357" y1="639.8548" x2="121.1839" y2="554.3591">
		<stop  offset="0" style="stop-color:#CCC484"/>
		<stop  offset="1" style="stop-color:#FFF5BF"/>
	</linearGradient>
	<path fill-rule="evenodd" clip-rule="evenodd" fill="url(#SVGID_2_)" d="M0,980h1400V236.3c-52-19-95.4-1.1-151.8-11
		c-44-7.7-27.4-13.6-76-2.1c-78,18.5-115.4,11.2-192.9,11.2c-7.8-0.5-15.7-0.9-23.6-1.4c-42.2,0-130.3,0.8-166.8-6.4
		c-26.8,1.4-8-8.8-47.2,4.5c-20.3,6.9-58.9,0.9-88.3,5.6c-5.7-0.5-11.4-0.9-17.1-1.4c-21.2,0-41.5-11.1-77.4-7.3
		c-31.3,3.2-40.1,11.7-73.1,1.9c-19.7-5.8-36.2,18.4-84.2,9.1c-11.3-2.2-43.2,10.3-71.7,10.3c-5.6-0.3-11.1-0.6-16.7-0.9
		c-35.7,17-103.8-6-153.1-1.8c-21.3,1.8-130.7,0-151-5.2c-3-0.6-6-1.2-9-1.8V980z"/>
</g>
<g>
	<linearGradient id="SVGID_3_" gradientUnits="userSpaceOnUse" x1="1223.2913" y1="744.5755" x2="104.3472" y2="515.087">
		<stop  offset="0" style="stop-color:#9D9043"/>
		<stop  offset="1" style="stop-color:#FEFCE3"/>
	</linearGradient>
	<path fill-rule="evenodd" clip-rule="evenodd" fill="url(#SVGID_3_)" d="M0,980h1400c0-169.1,0-517.4,0-685.3
		c-15-2-27.9,0.1-43-2.6c-24.2-4.4-27.1-9.3-57.6-11.3c-2-0.1-20.5-4.2-21.5-4.9v-3.5l-5-1.4v2.8l-4-0.9v-3.3l-1-0.5v3.8h-3v-5h-2v2
		h-3v-4.1l-1-0.3v6.4h-1v-3h-4v-0.7l-1-0.5v6.2l-2,1.1V271l-2,1.2v5.3l-2-0.5V270h-1v6h-4.7l-2.5,1.4l-1.8,0.5v-5h-2v5.5l-2,0.2
		v-1.9l-1-0.2v2.6c-1,1.1-1.9,2.5-2.9,3.6c-1,0.3-1.9,0.3-2.9,1.3c-0.8,0-1.7,0-2.5,0c-0.8,0-1.5,0.4-2.3,0.8
		c-2.8,0.5-5.6,0.7-8.4,1.2c-0.3,0.2-0.7,0.3-1,0.5c-2.9,1.5-43.7,4.7-56.3,7.2c-14.5,2.9-34.5,1.5-40.1,2.9
		c-12.1,0.4-24.2,0.8-36.4,1.1c-26,0-36.3-3.3-60.7,4.2c-16,4.9-21.7-6.8-47.9,1.9c-1.7,0.5-7,1.9-8.9,1.8c-3.3-0.9-7.7-1.9-9.7-2.8
		v-4.4l-3-0.6v6.3h-2v-6.3l-3,1.4V310h-2v-9h-1.6l-0.7,1c-3.5,0-18.4-8.4-23.7-2.7c-0.1,0.2-10,4.4-11,4.4v-5.6l-3-2.9v5l-1.4,0.5
		c-1.5,1.9-1.6,1.2-4.6,2.1v-4.2l-5-1.1v5.5l-3,1v-3.6l-4,2.1v5.6c-3-0.1-6-0.3-9-0.5c-15.2,0-67.3,3.4-80.4,6.5c-3,0.1-6.4,0-9.4,0
		c-3.5,1.3-7,2.6-10.4,4c-18.8,0-35,6-53.8,6c-0.5,0-21.6,6.1-27.9,6.5c-0.3,0-0.6,0.1-0.9,0.1c-1.8,0.1-3,0.6-4.7,1
		c-0.6-0.1-1.2-0.3-1.9-0.5c-35.9,11.1-49.9,4.2-66.9,8.9c-1,0.3-2,0.7-3,1c-3.1,0.9-6.2,1.9-9.3,2.8
		c-114.8-0.5-252.5,17.9-365.7,33.9C181,386.3,62,399.2,0,399.2V980z"/>
</g>
<g>
	<linearGradient id="SVGID_4_" gradientUnits="userSpaceOnUse" x1="654.4428" y1="416.8083" x2="612.4449" y2="184.3199">
		<stop  offset="0" style="stop-color:#8B833A"/>
		<stop  offset="1" style="stop-color:#F6D671"/>
	</linearGradient>
	<path fill-rule="evenodd" clip-rule="evenodd" fill="url(#SVGID_4_)" d="M1400,358v622H0V282.3l5,0.2l-0.2,2.5l3.5,0.2l2.8-1.4
		l0.2,2.6l13.9,1.6c3.9,1.1,19.4,3.9,19.5,3.9l-0.2-7h17.6l0.5,7c7.4,0,23.8,3.6,27.8-2.6c1.4-2.2,4.1,3.7,10.5-0.9
		c0.2-0.1,6.3-2.4,6.3,2.2v1.4c4,1.3,1.7-1.6,6.5-1.6l1.4,0.8c1.2,0.9,0.9,1.8,2.1,1.8h0.5c17.9,0,17.8-2.3,38.9,0.3
		c16.4,2.1,15,8.2,32.8,3.1c0.6-0.2,1.8-0.5,2.4-0.3c1,0.3,1.3,2.1,2.3,2.1c0.9,0,1-1.8,2-2c0.5-0.1,3.6,5,4.4,5.6
		c0.5,0.4,1,0.7,1.5,0.6c1.6-0.4,3.2-2.3,4.6-1.6c9.1,4.5,0.7,0.1,8.1,2.8c0.6,0.2,1,0.8,1.6,0.9c0.8,0.2,6.5-2.4,6.7-2.8
		c0,0,4.2-14.6,4.2-4.4c0,5.9,0.2,4.8,1.2,7c0.5,1,0.4-8,4-0.6c0.2,0.5,12.2-1.7,12.2-1.7c0.9,0.3,0.9,2.3,2.1,2.5
		c4,0.7-3.8-1.8,2.6-2.5c0.7-0.1-0.3-0.8,0.5-1.7c0.6-0.7,2.2,1.5,2.3,1.6c0,0.1,5.1-15.5,5.6-5.9c0.1,2.2,0,5.5,1.7,7.3
		c1.3,1.4,3-3.4,6.2,0.9c0.5,0.7,11-3.4,13.8-3c1.8,0.3,4.4-0.8,6.3,2.9c1.3,2.7,1-7.2,9.4-3.4c0.8,0.4,1,1.7,1.9,2.1
		c0.7,0.2,1.6-0.1,2.1-0.6c0.3-0.3-0.3-1.2,0.1-1.5c0.7-0.6,1.7-0.6,2.6-0.9c0.6-0.2,1.2-0.3,1.7-0.6c0.1,0,0-0.5,0-0.6
		c0-0.3-0.1-0.6,0-0.9c0.4-1.7,0.7-3.4,1.4-5c0.1-0.3,0.7,0.1,0.8,0.3c0.8,1.3,0.2,0.5,0.2,0.6c0,0.5,0.1,0.9,0.1,1.4
		c0,0.5-0.3,1,0,1.4c0.8,0.9,2,1.4,3,2c0.1,0.1,0.2,0,0.3,0c0.3-0.2,0.7-0.4,0.9-0.7c0.3-0.6,0.2-0.5,0.2-1.2c0.1-1-0.1-2.2,0.3-3.1
		c0.2-0.5,0.8-0.7,1-0.3c0.5,0.6,0.6,1.4,0.8,2.2c0.1,0.3-0.1,0.6,0,0.9c0.2,0.6,0.7,1.2,1,1.7c0.4,0.7,0.1,0.8,0.2,1.6
		c0.1,0.5,0.3,1,0.7,1.4c0.8,0.6,0.9,0.5,1.9,0.3c0.2-0.1,0.3-0.5,0.3-0.7c0.1-0.4,0.2-1.2,0.5-1.5c0.4-0.5,0.9-0.8,1.4-1.2
		c0.1-0.1,0.3,0,0.3,0.1c0.2,0.5,0,1.1,0.2,1.6c0.4,0.8,0.1,0.5,0.8,0.9c0.7,0.4,1.6,0.2,2.2,0.8c0.7,0.7,0.3,1,0.6,2.1
		c0.1,0.5,0.6,0.8,1,1.2c0.7,0.5,1,1.1,1.9,0.7c0.4-0.2,0-0.9,0.1-1.4c0.2-1.1,0.3-1.3,1.2-2c0.3-0.2,0.8-0.5,1.3-0.5
		c1,0,1.2,2,1.4,2.2c0.1,0.2,0.3,0.3,0.5,0.5c0.6,0.3,2.8,0.7,3-0.1c0.1-0.2,0-0.7,0.2-0.7c0.7,0,2.4,1.1,2.9,1.5
		c0.1,0.1,0,0.5,0.2,0.6c0.8,0.6,1,0.4,2,0.3c0.5,0,1.1,0,1.3-0.3c0.2-0.5-0.6-1.3-0.2-1.6c0.5-0.5,1.5,0.3,2.1-0.1
		c0.6-0.4,0.6-1.4,1-2c0.3-0.4,0.2-0.2,0.7-0.2c0.7,0,1.5-0.4,2,0c0.6,0.5,0.2,0.7,0.3,1.5c0.1,0.7,0.2,1.4,0.7,1.9
		c0.4,0.4,0.6,0.4,1,0.1c0.3-0.2,0.3-0.7,0.3-1.2c0.1-0.3,0-0.7,0-1c0.4-2.3,0.3-4.8,1.3-7c0.3-0.6,0.9-0.1,1.3,0.3
		c0.6,0.8,1,1.7,1.3,2.7c0.2,0.8,0,1.6,0,2.4c0,0.9,0.1,1.7,0.2,2.7c0,0.2,0.2,0.8,0.5,0.8c1,0.1,2-0.1,3-0.2c0.6-0.1,0.6-0.3,1-0.1
		c0.4,0.2,0.6,0.7,0.9,1c0.4,0.3,0.3,0.4,0.8,0.3c0.8-0.1,1.6-0.2,2.4-0.3c0.5-0.1,2.6-0.5,3-0.5c1.3-0.1,2.6-0.4,3.8-0.3
		c0.7,0,1.1,0.9,2.3,0.8c1.4,0,2.9-0.2,4.3,0c0.3,0,50.2,5.7,60.4,8.9c0.7,0.2,11.2,2.3,11.2,2.3c2.4,0.2,4.8,0.7,7.2,0.7
		c1.3,0,4.4-2.7,7.2,0.5c2.7,3,8,0.8,12,1.2c8.4,0.8,11.2,2.4,21.5,2.5c0.5,0,1.2,0.7,1.4,0.2c2.4-5.2,3.4,0.7,3.5,0.7
		c1,0,2-0.2,3,0c4.2,1,22,3.4,26.8,3c1.2-0.1,2.7-0.3,3.3-1.4c0.7-1.5-0.2-0.7,0-0.9c0.2-0.2,1.2-0.8,2-0.2c0.5,0.3-0.3,1.1,0.2,1.2
		c1.4,0.2,2.9-0.1,4.4-0.5c1.5-0.3,2.9,0.6,3.4-0.5c0.9-1.9,3.2-2.1,4.4-0.4c0.8,1.1,2.4,1.1,3.7,1.4c0.7,0.2,2.4-0.3,3.3-0.5
		c3.1-0.5,6.3,0.7,9.5,0.7c14.7,0.2,41.7,0,54.5,6.4c0.2,0.1,6,1.6,6.2,1.6c2.7,0.1,5.4,0.5,8.1,0.5c12.1,0.1,23.3-2.5,39.4-2.5
		c5.1,0,7.7,1.5,13.8,1.9c3.7,0.2,7.5,0.7,11.1,1.6c10.5,2.4,41.6-1.4,54.9-1.4h4.4c1.3,0,3.6,0,4.6-1.3v-5.4l6.6-0.9l28.4,0.2v6.3
		h17v4.1c3,0,5.2-0.2,7.8,0c0.9,0.1,31.2,4.3,32.4,4.4c1.5,0.1,3.1,1.1,4.6,0.7c11.4-3,66.4-1.5,78.4-1.6c2.1,0,4.2-0.4,6.3-0.5
		c14.9-0.1,3.8-2.1,20.4,0.5c23.3,3.5,42,5.4,64.4,7.8c1.5,0.2,3.1,0.1,4.6,0.3c1.8,0.2,3.6,1.5,5.3,0.9c20.4-6.6,31.2-7.3,51.5-4.7
		c0.2,0,0.4,0.1,0.6,0.1c8.3,1,35.2,5.2,46.7,5.1c6-0.1,13.3,0,19.7,0.2c2.5,0.1,5-0.1,7.4,0.7c0.6,0.2,2.1,2.3,2.8,2.5
		c28.6,9,156.3-3,191.2-5.8c18.4-1.4,14.9,6.8,29.1,7.5c2,0.1,3.6,1.7,5.6,2.3c1.8,0.5,3.8,0.6,5.7,0.8
		C1397.2,356.4,1398.7,358,1400,358L1400,358z"/>
</g>
<g>
	<linearGradient id="SVGID_5_" gradientUnits="userSpaceOnUse" x1="653.694" y1="399.5526" x2="617.6958" y2="119.0666">
		<stop  offset="0" style="stop-color:#8B833A"/>
		<stop  offset="1" style="stop-color:#C49E44"/>
	</linearGradient>
	<path fill-rule="evenodd" clip-rule="evenodd" fill="url(#SVGID_5_)" d="M1400,540.7V980H0V295.9c1,0,3.6,0.6,4.6,1.2
		c6.8,3.6,2,12.4,11.3,7.7c0.1-0.1,1.7-0.3,1.7,0.5c0.6,5.9,5.6,14,11.2,14.3c0.2,0,0.2,1.6,0.2,2.4c0,0.5-0.2,1.1,0,1.6
		c1.7,5.1,3.4-0.1,10.7,5.2c0.1,0.1,5.2,1.9,5.3,2c0.8,1.4,4.5,0.8,6,0.9c1.2,0.1,2.4,0.6,3.7,0.7c0.6,0.1,1.1,0,1.6,0
		c0.2,0,0.6,0.2,0.8,0c0.8-0.9,0.7-0.6,0.7-1.6c0-0.6,0-1.2,0-1.9c0-0.6-0.1-1.2-0.1-1.9c0.1-0.7-0.1-1.5,0.2-2.1
		c1.3-2.3,2.5-0.6,4.1-2.1c0.9-0.8,1.2-2,2.1-2.8c1.6-1.4,0.2-0.9,2.5-0.9c0.2,0,0.3,0,0.5,0c1.5,0.6,0.8,0.2,0.7,0.5
		c-0.1,1-0.2,0.6,0.4,1.2c0.7,0.7,2,0,3,0c0.6,0,1.9,0.1,2.3,0.5c0.3,0.2,0.6,0.6,0.9,0.9c0.2,0.2,2.6,2.9,2.8,3
		c0.2,0.2,0.8-0.1,0.9,0.2c0.7,2.1,0.2,0.9,0.5,3.5c0.1,0.8,0.7,1.4,0.9,2.1c0.2,0.7,0.2,0.9,0.7,1.4c0.6,0.6,1,1.6,1.9,1.6
		c8.4,0.5,5.9-2.6,10.4-2.6c0.6,0,1.2-0.4,1.6,0c1.2,1.2,0.7,2,1.6,3.2c0.5,0.8,1.5,1.2,2.3,1.6c0.9,0.4,3.1,0.1,3.9,0.7
		c1.1,0.7,1.1,2.4,2.1,3.2c0.5,0.5,0.5,0.3,1.2,0.5c0.8,0.2,2.6-0.1,3.5,0c1.7,0.2,3.5,0.2,5.1,0.9c4.9,2.1,3,2.2,9.7,2.8
		c2.6,0.2,5.2,0.5,7.9,0.5c28.7,0.1,9.3,2.2,25.7,4.4c12.3,1.6,25.2,2.6,37.5,5.1c8.7,1.7,17.8,1.3,26.6,2.1c1.4,0.1,2.7,0.5,4,0.8
		c31.8,6.1,19.6-12.6,52.7,6.4c0.5,0.3,66.9,12.4,80.7,16.2c25.5,7.1,66.7,15.1,88.7,23.3c33,12.3,59.1,18.2,91.9,29.2
		c13.6,4.5,27,9.6,40.3,14.8c7,2.7,11.3-0.2,31.8,8.3c1.8,0.7,3.8,0,5.7,0.5c5.9,1.7,11.2,5.1,17.1,6.5c30.4,7.1,60.5,17.1,91.7,19
		c76.3,4.5,48.5-4.5,119.4,4.4c0.8,0.1,1.7,0.2,2.5,0.3c103.8,12.9,216.7,33.3,309.9,40.2c2.9,0.2,5.7,0.4,8.6,0.6
		c55.4,4.1,126.3,7.5,177.1,9.1c6.8,0.2,12.8,4.4,19.5,5.6c4,0.7,8.2,0.1,12.2,0C1383.5,541.4,1390,543.1,1400,540.7L1400,540.7z"/>
</g>
<g>
	<linearGradient id="SVGID_6_" gradientUnits="userSpaceOnUse" x1="673.1769" y1="542.8268" x2="635.6791" y2="220.3459">
		<stop  offset="0" style="stop-color:#3D5D2B"/>
		<stop  offset="1" style="stop-color:#C49E44"/>
	</linearGradient>
	<path fill-rule="evenodd" clip-rule="evenodd" fill="url(#SVGID_6_)" d="M538.4,500.1c18.4-15.8,412.4,44,468.8,42.1
		c19-0.7,73-5.7,101.6,7.2c14.9,6.7,161.8,24.2,180.4,25.3c17.1,1,33.8,5.5,50.9,6.5c19.2,1.1,31.9-6.1,39.1-9.3
		c6.8-3,13.8-2.3,20.8-4.6V980H0l0-595.7c28.8,0,111.5,18.6,142.7,26.3c24.8,6.1,55.5,13.7,79.9,19.5c1.5,0.3,74.1,7.6,93.3,22.7
		c41.9,32.9,136,31.4,189.9,41.7c1.3,0.2,14,2.5,15,2.8C526.6,498.9,534,504,538.4,500.1L538.4,500.1z"/>
</g>
<g>
	<linearGradient id="SVGID_7_" gradientUnits="userSpaceOnUse" x1="699.8935" y1="28.1135" x2="699.8935" y2="1007.8229">
		<stop  offset="0" style="stop-color:#024F34"/>
		<stop  offset="1" style="stop-color:#7F6D21"/>
	</linearGradient>
	<path fill-rule="evenodd" clip-rule="evenodd" fill="url(#SVGID_7_)" d="M0,490.1c19-4.7,190.5-12.5,224.5,1
		c17.4,6.9,257.2,6.2,282.9,7.6c111.9,6.3,224.1,3.2,336.1,3.7c158.6,0.7,175.1-4.5,331,20.7c60.4,9.8,155.2,26.3,220,31.2
		c2.4,0.2,4.1-0.1,4.6-0.1l0.7,425.6H0V490.1z"/>
</g>
<g>
	<linearGradient id="SVGID_8_" gradientUnits="userSpaceOnUse" x1="1141.7799" y1="327.2173" x2="1123.8173" y2="434.9935">
		<stop  offset="0" style="stop-color:#024F34"/>
		<stop  offset="1" style="stop-color:#7F6D21"/>
	</linearGradient>
	<path fill-rule="evenodd" clip-rule="evenodd" fill="url(#SVGID_8_)" d="M1348.3,362.3c0.4,3.1,0,3.4-3,3.4l-1.9-0.5
		c-1.8-2-0.5-0.6-0.8-0.9c0,0-12.7,0.5-13.1-1.9l0.9-2.1c0.2-3.3-10.4-10.1-8.7-0.2c0.1,0.4-2.8,3.7-5.6,3.7l-3.7-2.1
		c-1.8-1.4-3.8-3.7-6.4-3c-3.1,12-5,2.2-6.2,7c-0.1,0-10.4,0.7-10.5,0.4l-2.5-1.4l-2.3,4.9l-4.2,0.2l-2.1,3.3l-4.4,1.2l-2.3-3.5
		l-3.7-0.7l-0.2,7.4l-4.4,0.2l-2.8-2.3l-4.6-0.5l-3.2-2.8l-2.1,1.4l-1.6,1.6l-6-1.2l-1.6-2.8l-6.9-0.7l-1.9-1.9l-2.6,2.8l-4.4-1.6
		l-4.7-1.9l-5.3,0.9l-2.3,4.9l-8.6-0.7l-1.4-3.9l-6.3,0.9l-2.1,4.6c-2.8,0-16.3,1-16-4.2l-2.1-3.2l-4.9-0.5l-4.2-2.1l-3.5,2.3
		l0.5,4.6l-2.1,1.9l-4.3,2.6l-0.4-0.7v-6l-20-5.3l-10.3,2.6l-15.8,4.1v5.1l-5.5,0.2c-1.8-0.6-5.1-0.8-6.9-0.2
		c-0.2,1.2-1.2,6.3-3.4,5.5c-0.2-0.9-1.2-3.9-1.1-4.6l-2.1-2.3c-2.3,0-0.7,0-1,0.2c0.5,2.4-0.3,2.9-0.8,4.4c-0.3,0-1,0.1-1.3,0
		c-0.5-1.3,0.9-1.8-1.9-1.8l-0.2,0.5c0,3-0.1,1.9-0.6,4.2c-0.9,0.3-9.3-6.3-12.6-6.3l-5.6,3.2c-3.6-0.8-14,10-18.3,10l-20.6,11.8
		c-3.4,0-21.8,1.4-22.9,4c-12.5,0-0.1,7-17.8,8.3c-0.4,0-4.1,3.6-5.6,4.7c-0.5-0.1-5,0.9-5.1,1.4l-11.8,0.2c-12.3,0-10.1-1.8-22-0.7
		c-11,1-0.9-7.3-17,3.4c-9.9,6.7-0.4,7.2-11.1,7.2l-3-0.5c0-1.2,0.2-3.4-0.3-4.4c-5.2-0.8,1.9,4.9-5.7,4.9l-2.8-2.8
		c-4.9,0,4.2,1-4.4,4.7c-1.2,0.5-1.5,2.9-3,3l-3.7-3.7c-3.4-2.1-1-10.9-4.8,1.6c-0.5,1.5-2.8,4.5-4.7,3l-1.9-2.8c-1,0-11.9,6-15,7
		c-1.9,0.6-3,2.9-4,3.4c-0.1,0.3-0.1,0.3-0.4,0.6l-6.3,1.4c-2.2-1.7-3.5,3.4-9.9,4.5l-5,3.1h558v-96.5l-4.2,0.6l-5.5-0.9l-1.4,4.5
		l-3.5,1.6l-1.8,2.5l-5.3-2.3l-1.6-2.3l-5.1,0.7l-2.4,4.7l-4.1-2.9l-4.4-0.2l-2.6,4.9c-1.9,0.1-4.4-1.7-4.4-3.9L1348.3,362.3z"/>
	<linearGradient id="SVGID_9_" gradientUnits="userSpaceOnUse" x1="700" y1="52.1123" x2="700" y2="633.1954">
		<stop  offset="0" style="stop-color:#024F34"/>
		<stop  offset="1" style="stop-color:#7F6D21"/>
	</linearGradient>
	<path fill-rule="evenodd" clip-rule="evenodd" fill="url(#SVGID_9_)" d="M1400,383.2c-15-0.3-30.9-0.9-46.5-0.9
		c-85-0.2-106.1-6.9-188.7,12c-1,0.2-2,0.1-3,0.1c-31.6,0.8-231.1,39.8-231.3,39.8c-133,25.6-265.1,57-399,76.8
		c-54.7,8.1-107.4,20.4-200.1,20.4c-57.6,0-65.7,0.2-118.4,13.9c-16.1,4.2-31.7,10.6-48.1,12.9c-13.6,2-89.5,20.6-141,20.4
		c-7.9,0-14.9-0.6-23.9-0.9V980h1400V383.2z"/>
</g>
<g>
	<linearGradient id="SVGID_10_" gradientUnits="userSpaceOnUse" x1="700.0258" y1="311.5417" x2="700.0258" y2="1024.2585">
		<stop  offset="0" style="stop-color:#003333"/>
		<stop  offset="1" style="stop-color:#7F6D21"/>
	</linearGradient>
	<path fill-rule="evenodd" clip-rule="evenodd" fill="url(#SVGID_10_)" d="M0.1,558.6c64.1-11.1,206-35.9,342.3-39.5
		c8-0.2,32.3-8.7,40-12.1c7.3-3.3,14.4-7.7,22.3-9.3c1.3-0.2,41.2-15.9,46-20.8c7.2-7.4,36.6-14.8,57.2-21.2
		c54.1-16.8,84.4-28.6,99.5-30.6c11.9-1.6,22-0.9,35.3-5.2c16.9-5.6,38-5.9,55.2-3.1c7.4,1.2,17.2-24.4,53.2-30.8
		c116.6-20.8,68.9-1.6,190.8,30.9c43,11.5,62.2-8.9,98.5,18.1c6.8,5,181.3,76.5,189.1,76.6c10.2,0.2,17.4,2.3,27.5,2.6
		c2.7,0.1,27,3.2,27.5,3.2c12.8-0.9,79.5,8.3,96,9.1l19.5,0.9V980H0.1L0.1,558.6z"/>
	<linearGradient id="SVGID_11_" gradientUnits="userSpaceOnUse" x1="729.5229" y1="311.5349" x2="729.5229" y2="1024.3263">
		<stop  offset="0" style="stop-color:#003333"/>
		<stop  offset="1" style="stop-color:#7F6D21"/>
	</linearGradient>
	<path fill-rule="evenodd" clip-rule="evenodd" fill="url(#SVGID_11_)" d="M734.7,332.1c-2.8,0-0.7,2.3-3.7,4.3
		c-1.9,1.3,1,1.9-3.4,3.5c-1.2,0.5,0.7,1-1.3,4.1c-1,1.5,1.4,0.1-2.1,4.4c-1.3,1.6,0.6,1.5-1.4,4.9c0,0.1,0,0.1-0.1,0.2
		c-0.3,0.5-0.1,1-0.1,1.6c-0.3,0.4-0.7,0.8-1.1,1.2c0,3.6,1.3-0.7,0.1,4.2c0,0.1,0,0.1-0.1,0.2c-1.6,6.6,1.6-1.8-0.9,4.6
		c-0.9,2.4,1.5,0.5-0.2,4.6c-0.8,5.7,0.5,2.4,0.5,4.9c-0.2,0.3-0.5,0.6-0.7,0.8c-5.1,3.6-0.6,4.1-2.8,7.6c-1.3,2.1,1.1,1.1-2,3.4
		c-2.4,4.5,11.7,5.9,11.9,9.1c0.1,1.5-0.1,2.5,0.4,3.5c-0.1,1.5-0.2,3.1-0.2,4.6c-0.2,0.2-0.7,1.3-0.7,1.5c-0.2,0.1-1.2,0.5-1.4,0.6
		c-0.2,0.1-0.4,0.2-0.6,0.3c-0.3,0-0.2,0-0.5,0.1c-0.6,0.1-1.1,0.1-1.7,0.2c1.3,0.1,2.6,0.2,3.9,0.4c2.6,0,5.4,0.3,8.4,0.1
		c-4.2-1.3-4.9-11.6-3.7-13.7c1.2-0.2,2.4-0.5,3.6-0.7c0.9,0,1.9-1.4,4.7-2.1c1.8-0.5,3.5-5.1,2.4-8.2c-0.2-0.4,0-0.7-0.1-1.1
		c0-3.4,4.2,0.8,0.5-6.6c0,0-0.8-4.4-1.3-5.7c0-0.1,0-0.3,0-0.5c0.3-0.8,0.6-1.6,0.9-2.5c2.5-2.3-0.5-1.8-0.4-6.9
		c0-0.9-0.9,0.1-0.7-4.5c0.1-1.7-1.8-6.5-2.5-8.3c-0.2-1-0.3-2-0.5-2.9c0-5.5,0.2-2.4-1.5-5.8c-1.5-2.9-0.1-0.4-1.6-2.6
		c-0.1-0.2,0-1.9,0-2.3C734.8,332.6,734.7,332.3,734.7,332.1L734.7,332.1z"/>
	<linearGradient id="SVGID_12_" gradientUnits="userSpaceOnUse" x1="695.74" y1="311.513" x2="695.74" y2="1024.61">
		<stop  offset="0" style="stop-color:#003333"/>
		<stop  offset="1" style="stop-color:#7F6D21"/>
	</linearGradient>
	<path fill-rule="evenodd" clip-rule="evenodd" fill="url(#SVGID_12_)" d="M688.2,374.5c-0.8-0.2-6.9-2.4-10.5-0.7
		c-1.9,9.2,0.2,4.6,0,8.2c-0.1,1.3-2.2-1.1-2.4,4.3c0,0.4-0.6,0.9-0.9,0.9c0.8,1,1.5,2.1,2.3,3.1c1.7,0.9,4.2,2.8,3.4,4.6
		c-1.7,0-10.4-9.2-8.8-1.1c0,0.2,0.6,0.4,1,0.9c-0.1,0.3,0,1.2,0,1.5c1.3,0.9,8.7,2.4,8.8,2.6c-0.1,0.5,0.2,0.3,0.1,0.8
		c2.1,1.8,4.2,3.6,6.3,5.4c2.9,1.2,4.3,4.7-3.2-0.9c-2.2-0.5-2.1,1-5.5-1.3c-0.9,0-1.9,0-2.8-0.1c-0.1,0-2.7-0.4-3.9-0.4
		c0,5.8-0.9,3.8,9.6,4.3c1.2,0,7.7,2.1,9.2,2.8c0.1,0,0.2,0.1,0.3,0.1c0,1-22.3,1.2-15.5,4.3c1.9,0.9,11.9-1.2,15.1-1.2
		c0.2,0.2,0.5,0.3,0.8,0.5c0,2.6-10.9,5.4-9.7,8.3c3.7,0.9,11.4-5.5,11.4,1.2c-0.8,0.6-1.5,1.2-2.3,1.8c0,0.3-0.3,0.6-0.4,1
		c1,1,2.5-2.3,2.5,2.4c0,2.4,0,4.8,0,7.1c0,0,0.8,5.5,0.8,6.2c0,0.2-0.2,6.7-1.4,6.9c-0.5,0.3-0.9,0.7-1.3,1.1
		c-0.6,0.5-0.5,0.8-1,0.8c1.6,0.1,3.2,0.2,4.8,0.3c1,0.3,2.7,0.6,3.6,0.6c0.6,0,1.2,0,1.9,0c-2.6-4-2.9-15.5-3.3-21.1
		c-0.2-2.5,0.2-7.6,0.2-10.7c0.5,0.1,0.9,0.2,1.4,0.3c2.7,3.1,1.5,5.2,5.1,5.2c0-2.8,0.4-2.3-2.9-3.9c-0.1-1-1.6-4.4-1.6-4.4
		c-0.1-0.6-0.3-1.2-0.5-1.7c0,0,6.7,2,6.7,2.1c0.3,0.1,4.3,3.4,6.4,2.7c0.3-1.6-9.2-6.9-11.4-7.1c0.9-0.3,1.9-0.6,2.8-0.9
		c3,0,15.3,2.6,15.2-1.4c-2.4,0-14-0.3-15.7-0.9c-0.6-1.6,1.7-1.4,2.9-2.2c0.3,0.1,2.8-2,2.9-2.1c2.8,0,1.8,0.9,3,1.2
		c0.2,0.6,5.6,0.7,7,0.3c-0.6-7-4.8,1.7,1.6-5.7c0,0,1.9-7.6-5.4-3.9c-5.5,2.8-9,8.5-12.5,8.5c-1.2-1.4,2.2-4.7,3.4-5.5
		c0.6-0.4,1.2-0.8,1.7-1.3c2.4-1.7-6.6-3.8,0-3.8c6.6,0-1.8,2.6,7.9-1c2.7-1,4.4-0.7,4.1-5.5c-8.8-3.1,0.9-10.4-7.3-4.3
		c-0.2,0.2-0.1,0.2-0.5,0.2c-0.3-0.6-0.6-1.2-0.9-1.7c1.2-1.5,7.2-9.6-0.2-7.8c-3.1,0.8-4.4,4.5-4.4-2.5c-0.7,0-1.4,0-2.1,0
		c-0.2,0-0.4,0-0.6,0c-1.1,0-0.8,1-0.8,2.1c-1.6,0-1.4-0.7-1.8-2.1c-1.8-0.2-1.5,1.8-1.5,2.8c-6,0,0.7-4.8-5.7-4.3
		c-0.1,0-0.2,0.1-0.3,0.1c0.1,3.8-1.5,9.3-5.7,9.3C687.6,378.1,688.3,374.5,688.2,374.5L688.2,374.5z"/>
	<linearGradient id="SVGID_13_" gradientUnits="userSpaceOnUse" x1="799.105" y1="311.5349" x2="799.105" y2="1024.3263">
		<stop  offset="0" style="stop-color:#003333"/>
		<stop  offset="1" style="stop-color:#7F6D21"/>
	</linearGradient>
	<path fill-rule="evenodd" clip-rule="evenodd" fill="url(#SVGID_13_)" d="M802.1,334.1c-1.7,0-0.4,2.3-2.2,4.3
		c-1.2,1.3,0.6,1.9-2,3.5c-0.7,0.5,0.4,1.1-0.8,4.1c-0.6,1.5,0.8,0.1-1.2,4.4c-0.8,1.6,0.3,1.5-0.8,4.9c0,0,0,0.1,0,0.2
		c-0.2,0.4-0.1,1-0.1,1.5c-0.2,0.4-0.4,0.8-0.6,1.2c0,3.6,0.7-0.7,0,4.2c0,0.1,0,0.1,0,0.2c-0.9,6.6,0.9-1.8-0.5,4.6
		c-0.6,2.3,0.8,0.4-0.1,4.6c-0.4,5.7,0.3,2.4,0.3,4.9c-0.1,0.3-0.2,0.6-0.4,0.9c-3,3.6-0.4,4.1-1.6,7.6c-0.7,2.1,0.7,1.2-1.2,3.4
		c-1.4,4.5,6.8,5.9,6.9,9.1c0.1,1.5,0,2.5,0.2,3.5c-0.1,1.5-0.1,3.1-0.1,4.7c-0.1,0.2-0.4,1.2-0.4,1.5c-0.1,0.1-0.7,0.5-0.8,0.6
		c-0.1,0.1-0.2,0.2-0.3,0.3c-0.2,0-0.1,0-0.3,0.2c-0.3,0-0.7,0.1-1,0.1c0.7,0.1,1.5,0.2,2.2,0.4c1.5,0,3.1,0.3,5,0.1
		c-2.4-1.2-2.9-11.6-2.2-13.7c0.7-0.2,1.4-0.5,2.1-0.7c0.5,0.1,1.1-1.3,2.8-2.1c1.1-0.5,2.1-5.1,1.4-8.2c-0.1-0.4,0-0.7-0.1-1.1
		c0-3.4,2.4,0.8,0.3-6.6c0,0-0.5-4.4-0.8-5.7c0-0.1,0-0.3,0-0.5c0.2-0.8,0.3-1.6,0.5-2.4c1.5-2.3-0.3-1.8-0.2-6.9
		c0-0.9-0.5,0.1-0.4-4.5c0-1.7-1-6.4-1.4-8.3c-0.1-1-0.2-2-0.3-2.9c0-5.5,0.1-2.4-0.9-5.8c-0.8-2.9-0.1-0.4-0.9-2.6
		c-0.1-0.2,0-1.9,0-2.3C802.2,334.5,802.1,334.3,802.1,334.1L802.1,334.1z"/>
	<linearGradient id="SVGID_14_" gradientUnits="userSpaceOnUse" x1="831" y1="311.5349" x2="831" y2="1024.3263">
		<stop  offset="0" style="stop-color:#003333"/>
		<stop  offset="1" style="stop-color:#7F6D21"/>
	</linearGradient>
	<polygon fill-rule="evenodd" clip-rule="evenodd" fill="url(#SVGID_14_)" points="826.3,359.4 825.9,355.1 828.7,352.6 
		832.1,354.8 832.2,357.7 840.2,355.1 890,367.2 890.6,362.5 897.6,363 897.6,369 902,370.4 902,363.6 906.4,362.8 906.6,371.3 
		934,379.5 934,424.8 847,422.4 728,420.7 728,391.5 747,387 747,379.4 	"/>
	<linearGradient id="SVGID_15_" gradientUnits="userSpaceOnUse" x1="628.1663" y1="311.5349" x2="628.1663" y2="1024.3263">
		<stop  offset="0" style="stop-color:#003333"/>
		<stop  offset="1" style="stop-color:#7F6D21"/>
	</linearGradient>
	<path fill-rule="evenodd" clip-rule="evenodd" fill="url(#SVGID_15_)" d="M623.9,346c2.4,0,0.6,2.4,3.1,4.5c1.6,1.3-0.8,2,2.9,3.6
		c1,0.5-0.6,1.1,1.1,4.3c0.8,1.5-1.2,0.1,1.7,4.6c1.1,1.6-0.5,1.6,1.1,5.1c0,0.1,0.1,0.1,0.1,0.2c0.2,0.5,0.1,1.1,0.1,1.6
		c0.3,0.4,0.6,0.9,0.9,1.3c0,3.8-1-0.7,0,4.4c0,0.1,0,0.1,0,0.2c1.4,7-1.3-1.9,0.8,4.8c0.8,2.5-1.3,0.5,0.1,4.8
		c0.6,6-0.5,2.5-0.5,5.1c0.2,0.3,0.4,0.6,0.6,0.9c4.3,3.8,0.5,4.3,2.3,7.9c1.1,2.3-0.9,1.2,1.7,3.6c2.1,4.8-9.8,6.2-10,9.5
		c-0.1,1.5,0.1,2.6-0.3,3.7c0.1,1.6,0.1,3.2,0.2,4.9c0.2,0.2,0.6,1.3,0.6,1.6c0.2,0.1,1,0.5,1.2,0.6c0.1,0.1,0.3,0.2,0.5,0.3
		c0.3,0,0.2,0,0.5,0.1c0.5,0.1,0.9,0.1,1.4,0.2c-1,0.1-2.1,0.3-3.2,0.4c-2.2,0-4.6,0.3-7.1,0.2c3.5-1.3,4.1-12.2,3.1-14.4
		c-1-0.2-2-0.5-3-0.7c-0.8,0-1.6-1.4-4-2.2c-1.5-0.5-3-5.4-2.1-8.6c0.1-0.4,0-0.7,0.1-1.1c0-3.5-3.5,0.8-0.4-6.9
		c0,0,0.7-4.7,1.1-5.9c0-0.1,0-0.3,0-0.5c-0.2-0.8-0.5-1.7-0.7-2.6c-2.1-2.4,0.4-1.9,0.3-7.2c0-0.9,0.7,0.1,0.6-4.8
		c-0.1-1.8,1.5-6.8,2.1-8.7c0.2-1,0.3-2,0.5-3.1c0-5.7-0.2-2.5,1.2-6.1c1.3-3.1,0.1-0.4,1.3-2.7c0.1-0.2,0-2,0-2.4
		C623.8,346.5,623.8,346.2,623.9,346L623.9,346z"/>
	<linearGradient id="SVGID_16_" gradientUnits="userSpaceOnUse" x1="771.5" y1="311.5994" x2="771.5" y2="1024.2548">
		<stop  offset="0" style="stop-color:#003333"/>
		<stop  offset="1" style="stop-color:#7F6D21"/>
	</linearGradient>
	<rect x="769" y="386" fill-rule="evenodd" clip-rule="evenodd" fill="url(#SVGID_16_)" width="5" height="10"/>
	<linearGradient id="SVGID_17_" gradientUnits="userSpaceOnUse" x1="609.8051" y1="311.5349" x2="609.8051" y2="1024.3263">
		<stop  offset="0" style="stop-color:#003333"/>
		<stop  offset="1" style="stop-color:#7F6D21"/>
	</linearGradient>
	<path fill-rule="evenodd" clip-rule="evenodd" fill="url(#SVGID_17_)" d="M614,376.9c-2.3,0-0.6,2.3-3,4.3
		c-1.5,1.3,0.8,1.9-2.7,3.5c-1,0.4,0.6,1-1.1,4.1c-0.8,1.5,1.2,0.1-1.6,4.4c-1,1.6,0.5,1.5-1.1,4.9c0,0.1-0.1,0.1-0.1,0.2
		c-0.2,0.5-0.1,1-0.1,1.5c-0.3,0.4-0.6,0.8-0.9,1.3c0,3.6,1-0.7,0,4.2c0,0.1,0,0.1,0,0.2c-1.3,6.6,1.3-1.8-0.8,4.6
		c-0.7,2.4,1.2,0.5-0.1,4.6c-0.6,5.7,0.4,2.4,0.4,4.9c-0.2,0.3-0.4,0.6-0.6,0.8c-4.1,3.6-0.5,4.1-2.2,7.6c-1,2.2,0.9,1.2-1.6,3.4
		c-2,4.5,9.4,5.9,9.6,9.1c0.1,1.5-0.1,2.5,0.3,3.5c-0.1,1.5-0.1,3.1-0.2,4.6c-0.1,0.2-0.6,1.3-0.6,1.5c-0.2,0.1-0.9,0.5-1.1,0.6
		c-0.1,0.1-0.3,0.2-0.5,0.3c-0.3,0-0.2,0-0.4,0.1c-0.5,0.1-0.9,0.1-1.4,0.1c1,0.1,2.1,0.3,3.1,0.4c2.1,0,4.3,0.3,6.8,0.2
		c-3.4-1.3-4-11.6-3-13.8c1-0.2,1.9-0.5,2.9-0.7c0.7,0,1.5-1.4,3.8-2.1c1.4-0.5,2.8-5.1,2-8.2c-0.1-0.4,0-0.7-0.1-1
		c0-3.4,3.4,0.8,0.4-6.6c0,0-0.7-4.4-1-5.7c0-0.1,0-0.3,0-0.5c0.2-0.8,0.5-1.6,0.7-2.5c2-2.3-0.4-1.8-0.3-6.9c0-0.9-0.7,0.1-0.5-4.5
		c0-1.7-1.5-6.5-2-8.3c-0.1-1-0.3-2-0.5-2.9c0-5.5,0.2-2.4-1.2-5.8c-1.2-3-0.1-0.4-1.3-2.6c-0.1-0.2,0-1.9,0-2.3
		C614,377.3,614,377.1,614,376.9L614,376.9z"/>
	<linearGradient id="SVGID_18_" gradientUnits="userSpaceOnUse" x1="818" y1="311.5994" x2="818" y2="1024.2548">
		<stop  offset="0" style="stop-color:#003333"/>
		<stop  offset="1" style="stop-color:#7F6D21"/>
	</linearGradient>
	<rect x="815" y="386" fill-rule="evenodd" clip-rule="evenodd" fill="url(#SVGID_18_)" width="6" height="10"/>
	<linearGradient id="SVGID_19_" gradientUnits="userSpaceOnUse" x1="797" y1="311.5994" x2="797" y2="1024.2548">
		<stop  offset="0" style="stop-color:#003333"/>
		<stop  offset="1" style="stop-color:#7F6D21"/>
	</linearGradient>
	<rect x="794" y="386" fill-rule="evenodd" clip-rule="evenodd" fill="url(#SVGID_19_)" width="6" height="10"/>
	<linearGradient id="SVGID_20_" gradientUnits="userSpaceOnUse" x1="771.5" y1="311.5994" x2="771.5" y2="1024.2548">
		<stop  offset="0" style="stop-color:#003333"/>
		<stop  offset="1" style="stop-color:#7F6D21"/>
	</linearGradient>
	<rect x="769" y="404" fill-rule="evenodd" clip-rule="evenodd" fill="url(#SVGID_20_)" width="5" height="9"/>
	<linearGradient id="SVGID_21_" gradientUnits="userSpaceOnUse" x1="818" y1="311.5994" x2="818" y2="1024.2548">
		<stop  offset="0" style="stop-color:#003333"/>
		<stop  offset="1" style="stop-color:#7F6D21"/>
	</linearGradient>
	<rect x="815" y="404" fill-rule="evenodd" clip-rule="evenodd" fill="url(#SVGID_21_)" width="6" height="9"/>
	<linearGradient id="SVGID_22_" gradientUnits="userSpaceOnUse" x1="839.3842" y1="311.5349" x2="839.3842" y2="1024.3263">
		<stop  offset="0" style="stop-color:#003333"/>
		<stop  offset="1" style="stop-color:#7F6D21"/>
	</linearGradient>
	<polygon fill-rule="evenodd" clip-rule="evenodd" fill="url(#SVGID_22_)" points="744.8,379 845,379 839.4,358.6 840.1,356 
		847,379.8 847,422.4 934,424.8 934,379.5 906.7,371.3 906.3,362.8 902,363.6 902,370.4 897.6,369 897.5,363 890.6,362.5 890,367.2 
		840.1,355.1 832.1,357.7 832,354.8 828.4,352.6 825.3,355.1 825.2,359.2 	"/>
	<linearGradient id="SVGID_23_" gradientUnits="userSpaceOnUse" x1="754.5297" y1="311.5349" x2="754.5297" y2="1024.3263">
		<stop  offset="0" style="stop-color:#003333"/>
		<stop  offset="1" style="stop-color:#7F6D21"/>
	</linearGradient>
	<path fill-rule="evenodd" clip-rule="evenodd" fill="url(#SVGID_23_)" d="M756.6,354c-0.6-0.1-0.2-0.1-0.3,0
		c-1.9,2.8-1.9,8.6-3.3,8.5c0.1-3.7-1.7-0.1-1.9,0.1c-1.7,2.2-3.5,6.8-0.3,8.6c0.3,0.2,0.3,3.3,0.2,3.3c-0.1,0.6-4.8-1.9-1.7,0.9
		c2.7,2.5-5.7,3.1-1.5,7.2c1,1-0.4,4.4-1.9,5.4c-1.2,0.7,0.6,1.9,0.3,4.7c-0.1,0.8-0.1,1.5-0.1,2.3l0.1,3.8c1.2,0.3-0.9,6.5-1.3,7.9
		l0.2,8.5c-0.1,3.5-1.3,6.9-3.3,9.6c-2,2.7,2.8,1.6-0.2,6.8l-0.1,0.2c-1.5,2.7,1.5,3.7,3.3,5.3l7.1,2.2c2.7-0.1,2.2,7.8,1.6,9.4
		l-0.8,4.8c-0.8,1.4-2.3,2.3-4,2.2l1.9,0.5c0.7,0,9.4,0.3,9.4,0.3c-3.7-4.4-3.3,1.2-2.9-8.7c0.1-1.7,0.3-6.3,0.8-7.8l2.6-0.8
		c1.2-0.2,6.1-4.7,5.5-7.1c-1.2-5.3,5.4,1.4-0.3-8.8c-0.9-1.6,1.6-2.4,0.1-8.7c-0.3-1.3-0.2-2.6-0.4-3.8l-0.6-8.1
		c-4-6.9,2-2.8-0.5-9.7c-1.5-4.3,4.2-0.4-1.1-5.8c-0.8-0.8-0.7-1.3-0.7-2.4l0.6-8.5c0.5-1.4-1.2-0.2-1.4-4.3c-0.1-3.5-1-0.2,0.5-3.9
		C763,366.1,758.2,354.4,756.6,354L756.6,354z"/>
	<linearGradient id="SVGID_24_" gradientUnits="userSpaceOnUse" x1="594.9988" y1="311.5349" x2="594.9988" y2="1024.3263">
		<stop  offset="0" style="stop-color:#003333"/>
		<stop  offset="1" style="stop-color:#7F6D21"/>
	</linearGradient>
	<path fill-rule="evenodd" clip-rule="evenodd" fill="url(#SVGID_24_)" d="M599.3,363.3c-2.4,0-0.6,2.4-3.1,4.5
		c-1.6,1.3,0.8,2-2.9,3.6c-1,0.5,0.6,1.1-1.1,4.3c-0.8,1.5,1.2,0.1-1.7,4.6c-1.1,1.7,0.5,1.6-1.2,5.1c0,0.1,0,0.1-0.1,0.2
		c-0.2,0.5-0.1,1.1-0.1,1.6c-0.3,0.4-0.6,0.8-0.9,1.3c0,3.8,1-0.7,0,4.4c0,0.1,0,0.1,0,0.2c-1.4,7,1.3-1.9-0.8,4.8
		c-0.8,2.4,1.3,0.5-0.2,4.8c-0.6,6,0.5,2.5,0.5,5.1c-0.2,0.3-0.4,0.6-0.6,0.9c-4.3,3.8-0.5,4.3-2.3,7.9c-1.1,2.2,0.9,1.2-1.7,3.6
		c-2,4.8,9.9,6.2,10,9.5c0.1,1.5,0,2.6,0.3,3.7c-0.1,1.6-0.1,3.2-0.2,4.9c-0.1,0.2-0.6,1.3-0.6,1.6c-0.2,0.1-0.9,0.5-1.2,0.6
		c-0.1,0.1-0.3,0.2-0.5,0.3c-0.3,0-0.2,0-0.5,0.1c-0.5,0.1-0.9,0.1-1.4,0.2c1.1,0.1,2.2,0.2,3.3,0.4c2.2,0,4.5,0.3,7.1,0.2
		c-3.5-1.3-4.2-12.2-3.2-14.4c1-0.2,2.1-0.5,3.1-0.7c0.7,0,1.6-1.4,4-2.2c1.5-0.5,3-5.4,2-8.6c-0.1-0.4,0-0.7-0.1-1.1
		c0-3.5,3.5,0.8,0.4-6.9c0,0-0.7-4.7-1.1-5.9c0-0.1,0-0.3,0-0.5c0.2-0.9,0.5-1.7,0.7-2.6c2.1-2.4-0.4-1.9-0.3-7.2
		c0-0.9-0.7,0.1-0.6-4.8c0-1.8-1.5-6.8-2.1-8.7c-0.1-1-0.3-2-0.5-3.1c0-5.7,0.2-2.5-1.2-6.1c-1.3-3.1-0.1-0.4-1.3-2.7
		c-0.1-0.2,0-2,0-2.4C599.4,363.8,599.4,363.5,599.3,363.3L599.3,363.3z"/>
	<linearGradient id="SVGID_25_" gradientUnits="userSpaceOnUse" x1="903.9885" y1="311.5349" x2="903.9885" y2="1024.3263">
		<stop  offset="0" style="stop-color:#003333"/>
		<stop  offset="1" style="stop-color:#7F6D21"/>
	</linearGradient>
	<path fill-rule="evenodd" clip-rule="evenodd" fill="url(#SVGID_25_)" d="M905.6,374.9c-2.6,0,1.4,2.3-5.9,2.1
		c-4.1-0.1-10.8,16.8-4.4,26.9c2.9,4.6-1.5,0.4,4.5,8.4c1.3,3.9,2.4,6.8,1.2,11.7c-1,0.1-2.1,0.3-2.1,1.3c2.8,0,5.7,0.3,8.2,0.3
		c-0.1-0.3-1.9-6.3-2.1-6.5c-0.2-0.2-1.9-6.1,1.7-6.6c0.4-0.7,0.6,0.3,0.8-2.3c5.5-3.2,4.8-3.2,6.6-9.1c2.6-8.3,0.3-14.3-4.1-21.5
		c0,0-0.2-2.8-0.7-4.2C909.2,375.4,905.9,374.9,905.6,374.9L905.6,374.9z"/>
	<linearGradient id="SVGID_26_" gradientUnits="userSpaceOnUse" x1="648.3135" y1="311.5349" x2="648.3135" y2="1024.3263">
		<stop  offset="0" style="stop-color:#003333"/>
		<stop  offset="1" style="stop-color:#7F6D21"/>
	</linearGradient>
	<path fill-rule="evenodd" clip-rule="evenodd" fill="url(#SVGID_26_)" d="M641.9,391.8c-0.5-0.5-2.4-2.4-2-3.3
		c-0.3-0.4-6-1-7.1-0.6c-0.4,1.8-1.8,1.4-3.4,1.5c-0.2,1-0.3,0.5-0.3,1.7l-0.2,1.5c-2.3,1.1-1.6-1.1-4.3,2.1c-4.2,0-6.3-5.4-6.8,1
		c0,0.4-1.2,4.5-1.5,4.7c-1.2,0.5-1.3,1.6,0.1,1.5l0.6,1.9c-2.9,2.1-4.2,5.5-3.1,8.7c2.1,6,0.8-3,1.4,6.9c0.1,1.7,1.5-1.4,1.5,3.4
		c1.2,0.8,3,2,4.5,2l0.5,3.2c-6.1,4.4,1.8-2,1.8,7.5c6.5,4.2,1.6-4,7.3,4.5c0.3,0.5,8.2,1.9,9.3,1.9l5.2,0.4
		c1.6,0.8,0.9,0.5,2.1,0.9c0.5-0.4,8.2,0.7,9.1,0.9c0.6,5,1.4,0.4,2.6,3.5l1.5,7.4c0,1.4,0.1,1.4-0.3,2.8c-0.2,1-1.5,1.3-1.5,1.5
		l-3.5,1.4l-0.5,0.3l6.6-0.9c2.6,0,3-1.4,5.6-1.4h2.2c-0.1,0-2.3-2.5-2.9-2.8c-0.1-0.7-1.4-6.5-2.4-6.8v-2.1c0-2.4,0.7-0.8,2-5.4
		c2.8-0.3,7.3-4.3,7.3-4.3l3.3-2.2c0.6-0.2,1.9-0.7,1.9-0.7c1.9-5.1,6-2.1,3.3-7.4c3.8-1.4-1.8-7.9-3.8-9.7v-1.5c9-7.9-1-7.9-1-7.9
		v-0.3c-2-2.7-3.7-15.1-6.1-10.6c-3.4,6.3-3.6-3.8-1.6-7.4c1.8-3.3-3.9-5.7-7.5-3.9c-1.8,0.9-0.2-3.4-2.2-4.8
		c-1.7,0.5-1.8-0.8-3.2,1.9c-4,0.5,1.9,2.2-4.1,2.9c-4.8,0.6,4.5,11.3-1,10.8c-0.1,0.3-0.1,0.3-0.5,0.3c-1-1.3-2.3-9.3-2.4-9.4
		c-5.4-0.7-3.1,5.2-3.1,9.2l-0.9,1.4C642.9,398.7,643.2,393.1,641.9,391.8L641.9,391.8z"/>
	<linearGradient id="SVGID_27_" gradientUnits="userSpaceOnUse" x1="606.1804" y1="311.5386" x2="606.1804" y2="1024.3148">
		<stop  offset="0" style="stop-color:#003333"/>
		<stop  offset="1" style="stop-color:#7F6D21"/>
	</linearGradient>
	<path fill-rule="evenodd" clip-rule="evenodd" fill="url(#SVGID_27_)" d="M603.7,409.3c-1.7-2.2-8.7-1.6-9.8,0
		c-3.4,1.6-2.2-1.5-4.9,1.8l-1.6,1.2c-1-1.6-2.7-0.2-2.6,1.4c-9,0,0.3-0.1-7.3,4.5c-0.3,0.2,0.4,1.7,0.4,2.3v2.6
		c0,0-2.1-0.2-2.4,0.1c0,8.4-2.2,1.5-1.8,5.9c0.5,4.5-4.8,2.2-1.5,4.9l-0.4,2.6c-3.6,1.2,1.4,0.2-3.2,5.7c-0.9,1.1,0.4,3.1,0.4,3.1
		c-0.2,0.2-7.1,1.9-1.1,5.2v0.9c0,0-5.4,4.9-1,5.9c1,6.6-5.5,0.6,4.5,6.2c1.1,0.6-3,4.1,4.9,3.8l0.9,0.6c0,5.5,0.2,1.2,6.3,2.7
		c0.1,2-0.9,1.4-0.9,3.7c11.7,0-1.9,0.8,9.7,2.8c0.3,0.1-0.1,3.6,4.4,1.6h3.9c1,2,1.1,4.2,5.5,1.9c3.3,2.1-0.1,1.6,5.7-0.1
		c0.3,0.2,0.4,0.5,0.9,0.5l1.5,0.3c0,0.6,0.1,1.4,0.5,1.9l3.2-0.9c1.1-0.3,1.8,0.3,1.8,1.4v1.2c-2,0.7-4.2,2.4-5,2.7l12.6-1.7
		c-5.9-2.1-2-8.3,1.5-8.5c1.3-0.1,0.3-2.8,0.5-3.6c5.6-0.4,7,1.2,6.2-3.4l1.1-0.6c1-0.5,6.3-3.2,3.4-4.8c0.3-1.8,6.4,0.3,0.7-6.9
		c0.2-0.3,9.1-4,1.1-5v-0.2c11-7.8,0.3-3.9,3.6-10.6c2.6-5.4-2.5-1.2-1.9-10.4c0.1-1.9-1.8-2-3.3-2c0.6-9.6,1.7,1.3-0.7-5.5
		c-0.3-0.8-2.3-9.9-5.7-5.6c-2.7-1.7-0.1-4.1-5.6-4.1h-2.9c4.2-8-1.2-2.7-9-7.6c-2.2-1.4-2.4-0.1-4,1.3c-0.9-0.1-3.5-3.5-3.8,0.8
		l-1.6,0.3c-3.4-0.1,2.1-6.3-3.1-0.7C603.9,409.1,603.6,409.2,603.7,409.3L603.7,409.3z"/>
	<linearGradient id="SVGID_28_" gradientUnits="userSpaceOnUse" x1="930.0906" y1="311.5349" x2="930.0906" y2="1024.3263">
		<stop  offset="0" style="stop-color:#003333"/>
		<stop  offset="1" style="stop-color:#7F6D21"/>
	</linearGradient>
	<path fill-rule="evenodd" clip-rule="evenodd" fill="url(#SVGID_28_)" d="M932.2,334.9c-0.6-0.1-0.2,0-0.3,0
		c-1.9,2.8-1.9,8.6-3.3,8.6c0.1-3.7-1.7-0.2-1.8,0c-1.7,2.2-3.5,6.8-0.3,8.6c0.3,0.2,0.3,3.3,0.2,3.3c-0.1,0.6-4.7-1.9-1.7,0.9
		c2.7,2.5-5.8,3.1-1.6,7.2c1.1,1-0.4,4.4-1.9,5.4c-1.2,0.7,0.6,1.9,0.3,4.7c-0.1,0.8-0.1,1.5-0.1,2.3l0.1,3.8
		c1.2,0.3-0.9,6.5-1.3,7.9l0.2,8.5c-0.1,3.5-1.3,6.9-3.3,9.6c-1.9,2.7,2.8,1.6-0.2,6.8l-0.1,0.2c-1.5,2.7,1.5,3.7,3.3,5.3l7.1,2.1
		c2.7-0.1,2.2,7.8,1.6,9.4l-0.8,4.8c-0.9,1.4-2.3,2.3-4,2.2l1.9,0.5c0.7,0,9.4,0.3,9.4,0.3c-3.7-4.4-3.3,1.2-3-8.6
		c0.1-1.7,0.3-6.4,0.8-7.8l2.6-0.8c1.2-0.2,6.1-4.7,5.5-7.1c-1.2-5.3,5.4,1.4-0.3-8.8c-0.9-1.6,1.6-2.4,0.1-8.7
		c-0.3-1.3-0.2-2.6-0.4-3.8l-0.6-8.1c-4-6.9,2-2.8-0.4-9.7c-1.5-4.3,4.2-0.4-1.2-5.8c-0.8-0.8-0.7-1.3-0.7-2.4l0.6-8.5
		c0.5-1.4-1.2-0.2-1.4-4.3c-0.2-3.5-1-0.3,0.5-4C938.6,347,933.8,335.2,932.2,334.9L932.2,334.9z"/>
	<linearGradient id="SVGID_29_" gradientUnits="userSpaceOnUse" x1="954.725" y1="311.5349" x2="954.725" y2="1024.3263">
		<stop  offset="0" style="stop-color:#003333"/>
		<stop  offset="1" style="stop-color:#7F6D21"/>
	</linearGradient>
	<path fill-rule="evenodd" clip-rule="evenodd" fill="url(#SVGID_29_)" d="M952.5,319c2.3,0,2.4,1,4.9,3.8c1.6,1.8,0.3,2.7,3.9,4.9
		c1,0.6-3.5,4.9-1.9,9.2c0.8,2.1-0.8,0.4,2.1,6.3c1,2.2-1.5,0.9,0.1,5.6c0,0.1,0.1,0.2,0.1,0.2c0.2,0.6,0.1,1.5,0.1,2.2
		c0.3,0.6-0.8,1.3-0.5,1.9c0,5-1.1,0.1-0.1,7c0,0.1,0,0.2,0,0.3c1.3,9.3-1.3-2.5,0.8,6.4c0.8,3.3-1.2,0.6,0.2,6.5
		c0.6,8-0.5,3.4-0.5,6.9c0.2,0.4,0.4,0.8,0.6,1.2c4.2,5,0.5,5.7,2.3,10.6c1.1,3-0.9,1.6,1.6,4.8c2,6.4-9.6,8.3-9.7,12.7
		c-0.1,2.1,0,3.5-0.3,5c0.1,2.2,0.1,4.3,0.2,6.5c0.1,0.3,0.6,1.7,0.6,2.2c0.2,0.1,0.9,0.7,1.2,0.8c0.1,0.2,0.3,0.3,0.4,0.5
		c0.3,0,0.2,0,0.5,0.2c0.5,0.1,0.9,0.1,1.4,0.2c-1.1,0.2-2.1,0.3-3.2,0.6c-2.1,0-4.4,0.4-6.9,0.2c3.4-1.7,4-16.3,3.1-19.2
		c-1-0.3-2-0.6-3-0.9c-0.7,0.1-1.5-1.9-3.8-2.9c-1.5-0.7-2.9-7.2-2-11.5c0.1-0.6,0-0.9,0.1-1.5c0-4.8-3.4,1-0.4-9.3
		c0,0-1.1-4.6-0.7-6.3c0-0.2,1.8-2.1,1.8-2.3c-0.2-1.2-0.5-2.3-0.7-3.5c-2.1-3.2,0.4-2.6,0.3-9.7c0-1.2,0.7,0.1,0.6-6.4
		c0-2.4,1.5-9.1,2-11.6c0.2-1.4,0.3-2.7,0.5-4.1c3.1-4.7,1.8-4.9,3.2-9.7c1.2-4.1,0.1-0.6,1.3-3.5c0.1-0.3,0-2.7,0-3.3
		C952.4,319.6,952.5,319.3,952.5,319L952.5,319z"/>
	<linearGradient id="SVGID_30_" gradientUnits="userSpaceOnUse" x1="973.0161" y1="311.5349" x2="973.0161" y2="1024.3263">
		<stop  offset="0" style="stop-color:#003333"/>
		<stop  offset="1" style="stop-color:#7F6D21"/>
	</linearGradient>
	<path fill-rule="evenodd" clip-rule="evenodd" fill="url(#SVGID_30_)" d="M972.7,324.8c2.3,0,2.3,0.5,3.9,4.8
		c0.6,1.5-1,2.5,1.9,5.9c0.9,1-1.5,4,0.1,8.3c0.8,2.1-0.8,0.4,2.1,6.3c1.1,2.2-1.4,0.9,0.1,5.6c0,0.1,0.1,0.2,0.1,0.2
		c0.2,0.6,0.1,1.5,0.1,2.2c0.3,0.6-0.8,1.3-0.5,1.9c0,5-1.1,0.1-0.1,7c0,0.1,0,0.2,0,0.3c1.3,9.3-1.3-2.5,0.8,6.4
		c0.8,3.3-1.2,0.6,0.2,6.5c0.6,8-0.5,3.4-0.5,6.9c0.2,0.4,0.4,0.8,0.6,1.2c4.2,5,0.5,5.7,2.3,10.6c1.1,3-0.9,1.6,1.6,4.8
		c2,6.4-9.6,8.3-9.7,12.7c-0.1,2.1,0.1,3.5-0.3,5c0.1,2.2,0.1,4.3,0.2,6.5c0.1,0.3,0.6,1.7,0.6,2.2c0.2,0.1,0.9,0.7,1.1,0.8
		c0.2,0.2,0.3,0.3,0.5,0.5c0.3,0,0.2,0,0.5,0.2c0.5,0.1,0.9,0.1,1.4,0.2c-1,0.2-2.1,0.3-3.1,0.6c-2.2,0-4.4,0.4-6.9,0.2
		c3.4-1.7,4-16.3,3.1-19.2c-1-0.3-2-0.6-3-0.9c-0.7,0.1-1.5-1.9-3.8-2.9c-1.5-0.7-2.9-7.2-2-11.5c0.1-0.6,0-0.9,0.1-1.5
		c0-4.8-3.4,1-0.4-9.3c0,0-3.3-3.4-2.9-5.1c0-0.2,1.8-2.1,1.8-2.3c-0.2-1.2,1.7-3.5,1.5-4.7c-2.1-3.2,0.4-2.6,0.3-9.7
		c0-1.2,0.7,0.1,0.6-6.4c0-2.4,1.5-9.1,2-11.6c0.1-1.4,0.3-2.7,0.5-4.1c3.1-4.7,1-4.4,2.4-9.1c1.2-4.1,0.9-1.1,2.1-4.1
		c0.1-0.3,0.3-3.2,0.3-3.7C971.9,325.9,972.6,325.1,972.7,324.8L972.7,324.8z"/>
	<linearGradient id="SVGID_31_" gradientUnits="userSpaceOnUse" x1="984.395" y1="311.5349" x2="984.395" y2="1024.3263">
		<stop  offset="0" style="stop-color:#003333"/>
		<stop  offset="1" style="stop-color:#7F6D21"/>
	</linearGradient>
	<path fill-rule="evenodd" clip-rule="evenodd" fill="url(#SVGID_31_)" d="M986.2,360.5c-2.2,0-0.5,3-2.7,5.7
		c-1.5,1.7,0.9,2.5-2.5,4.6c-1,0.6,0.6,1.4-0.9,5.5c-0.7,2,1.2,0.2-1.4,5.9c-0.9,2.1,0.5,2-0.8,6.5c0,0.1,0,0.1-0.1,0.2
		c-0.2,0.6,0,1.4,0,2.1c-0.2,0.6-0.5,1.1-0.8,1.7c0.1,4.8,0.9-0.9,0.2,5.6c0,0.1,0,0.2,0,0.3c-1,8.9,1.2-2.4-0.6,6.2
		c-0.6,3.1,1.2,0.6,0.1,6.2c-0.3,7.7,0.5,3.2,0.6,6.5c-0.2,0.4-0.3,0.8-0.5,1.2c-3.8,4.8-0.3,5.4-1.9,10.1c-0.9,2.9,0.9,1.5-1.4,4.6
		c-1.7,6.1,9,7.9,9.3,12.1c0.1,2,0.1,3.4,0.1,4.7c0,2.1,0,4.1,0,6.2c0,0.3-0.2,1.7-0.1,2.1c-0.2,0.1-0.7,0.7-0.9,0.8
		c-0.1,0.1-0.2,0.2-0.3,0.4c-0.3,0.1-0.2,0.1-0.4,0.2c-0.5,0.1-0.9,0.1-1.3,0.2c1,0.2,2,0.3,3.1,0.5c2.1,0,4.2,0.4,6.6,0.2
		c-3.3-1.7-4.3-15.6-3.5-18.4c0.9-0.3,1.9-0.6,2.8-0.9c0.7,0.1,1.4-1.8,3.6-2.8c1.4-0.6,2.6-6.9,1.6-11c-0.1-0.5-0.1-0.9-0.1-1.4
		c-0.2-4.5,3.3,1,0.1-8.9c0,0-0.8-5.9-1.3-7.6c0-0.2,0-0.4,0-0.6c0.2-1.1,0.4-2.2,0.6-3.3c1.9-3-0.5-2.4-0.6-9.2
		c0-1.2-0.7,0.1-0.7-6.1c0-2.3-1.7-8.6-2.3-11.1c-0.2-1.3-0.4-2.6-0.6-3.9c-0.2-7.3,0.1-3.2-1.4-7.7c-1.3-4-0.1-0.6-1.4-3.4
		c-0.1-0.3,0-2.6-0.1-3.1C986.3,361.1,986.3,360.8,986.2,360.5L986.2,360.5z"/>
	<linearGradient id="SVGID_32_" gradientUnits="userSpaceOnUse" x1="1032.5281" y1="311.5349" x2="1032.5281" y2="1024.3263">
		<stop  offset="0" style="stop-color:#003333"/>
		<stop  offset="1" style="stop-color:#7F6D21"/>
	</linearGradient>
	<path fill-rule="evenodd" clip-rule="evenodd" fill="url(#SVGID_32_)" d="M1034.4,356.8c-2.2,0-0.5,3-2.7,5.7
		c-1.5,1.7,0.8,2.5-2.5,4.6c-0.9,0.6,0.6,1.4-0.8,5.5c-0.7,2,1.1,0.2-1.4,5.9c-0.9,2.1,0.5,2-0.8,6.5c0,0.1,0,0.1-0.1,0.2
		c-0.2,0.6,0,1.4,0,2.1c-0.2,0.5-0.5,1.1-0.8,1.6c0.1,4.8,0.9-0.9,0.2,5.6c0,0.1,0,0.2,0,0.3c-1,8.9,1.2-2.4-0.6,6.2
		c-0.6,3.1,1.2,0.6,0.1,6.2c-0.3,7.7,0.5,3.2,0.6,6.5c-0.1,0.4-0.3,0.8-0.5,1.2c-3.8,4.8-0.3,5.4-1.9,10.1c-0.9,2.9,0.9,1.5-1.4,4.6
		c-1.7,6.1,10,7.9,10.3,12.1c0.1,2,1.1,3.4,1.1,4.7c0,2.1,0,4.1,0,6.2c0,0.3-1.1,1.7-1.1,2.1c-0.2,0.1-1.2,0.7-1.4,0.8
		c-0.1,0.1-0.4,0.3-0.5,0.4c-0.3,0.1-0.3,0.1-0.5,0.2c-0.5,0.1-0.9,0.1-1.4,0.2c1,0.2,2,0.3,3,0.5c2.1,0,4.2,0.4,6.6,0.2
		c-3.3-1.7-4.3-15.5-3.5-18.4c0.9-0.3,1.9-0.6,2.8-0.9c0.7,0.1,1.4-1.8,3.6-2.8c1.4-0.6,2.6-6.9,1.5-11c-0.1-0.5,0-0.9-0.1-1.4
		c-0.1-4.5,3.3,1,0.1-8.9c0,0-0.8-5.9-1.3-7.6c0-0.2,0-0.4,0-0.6c0.2-1.1,0.4-2.2,0.6-3.3c1.9-3-0.5-2.4-0.6-9.2
		c0-1.2-0.7,0.1-0.7-6.1c0-2.3-1.7-8.6-2.3-11.1c-0.2-1.3-0.4-2.6-0.6-3.9c-0.2-7.3,0.1-3.2-1.4-7.7c-1.3-3.9-0.1-0.6-1.4-3.4
		c-0.1-0.3-0.1-2.6-0.1-3.1C1034.5,357.4,1034.4,357.1,1034.4,356.8L1034.4,356.8z"/>
	<linearGradient id="SVGID_33_" gradientUnits="userSpaceOnUse" x1="1045.7983" y1="311.5349" x2="1045.7983" y2="1024.3263">
		<stop  offset="0" style="stop-color:#003333"/>
		<stop  offset="1" style="stop-color:#7F6D21"/>
	</linearGradient>
	<path fill-rule="evenodd" clip-rule="evenodd" fill="url(#SVGID_33_)" d="M1047.6,369.4c-2.2,0-0.5,3.1-2.7,5.7
		c-1.5,1.7,0.9,2.5-2.5,4.6c-1,0.6,0.6,1.4-0.9,5.5c-0.7,2,1.2,0.2-1.4,5.9c-1,2.1,0.5,2-0.9,6.5c0,0.1,0,0.2-0.1,0.2
		c-0.2,0.6,0,1.4,0,2.1c-0.3,0.6-0.6,1.1-0.8,1.6c0.1,4.8,0.9-0.9,0.2,5.6c0,0.1,0,0.2,0,0.3c-1,8.9,1.2-2.4-0.6,6.2
		c-0.6,3.1,1.2,0.6,0.1,6.2c-0.3,7.7,0.5,3.2,0.6,6.5c-0.2,0.4-0.3,0.8-0.5,1.1c-3.8,4.8-0.3,5.5-1.9,10.1c-0.9,2.9,0.9,1.5-1.4,4.6
		c-1.7,6.1,9.4,7.9,9.7,12.1c0.1,2,0,3.4,0.5,4.7c0,2.1,0,4.1,0,6.2c-0.1,0.3-0.5,1.7-0.5,2.1c-0.2,0.1-0.9,0.7-1,0.8
		c-0.1,0.1-0.3,0.3-0.4,0.4c-0.3,0-0.2,0-0.4,0.2c-0.5,0.1-0.9,0.1-1.3,0.2c1,0.2,2,0.3,3,0.5c2.1,0,4.2,0.4,6.6,0.2
		c-3.3-1.7-4.3-15.6-3.5-18.4c0.9-0.3,1.9-0.6,2.8-0.9c0.7,0.1,1.4-1.8,3.6-2.8c1.4-0.6,2.6-6.9,1.6-11c-0.1-0.6-0.1-0.9-0.1-1.4
		c-0.2-4.5,3.3,1,0.1-8.9c0,0-0.8-5.9-1.3-7.6c0-0.2,0-0.5,0-0.6c0.2-1.1,0.4-2.2,0.6-3.3c1.9-3-0.5-2.4-0.6-9.2
		c0-1.2-0.7,0.1-0.7-6.1c0-2.3-1.7-8.6-2.3-11.1c-0.2-1.3-0.3-2.6-0.6-3.9c-0.2-7.3,0.1-3.2-1.4-7.7c-1.3-4-0.1-0.6-1.4-3.4
		c-0.1-0.3,0-2.6-0.1-3.1C1047.7,370,1047.7,369.7,1047.6,369.4L1047.6,369.4z"/>
	<linearGradient id="SVGID_34_" gradientUnits="userSpaceOnUse" x1="1008.1873" y1="311.5349" x2="1008.1873" y2="1024.3263">
		<stop  offset="0" style="stop-color:#003333"/>
		<stop  offset="1" style="stop-color:#7F6D21"/>
	</linearGradient>
	<path fill-rule="evenodd" clip-rule="evenodd" fill="url(#SVGID_34_)" d="M1008.8,412.7c-0.6,0-0.2,2.2-0.7,4.2
		c-0.4,1.2,0.2,1.8-0.7,3.4c-0.2,0.4,0.1,1-0.2,4c-0.2,1.4,0.3,0.1-0.4,4.3c-0.2,1.5,0.1,1.5-0.2,4.7c0,0,0,0.1,0,0.1
		c0,0.5,0,1,0,1.5c-0.1,0.4,0.1,0.8,0.1,1.2c0.1,3.5,0.3-0.7,0.3,4.1c0,0.1,0,0.1,0,0.2c0,6.4,0-1.7-0.4,4.4
		c-0.2,2.3,0.1,0.5-0.1,4.5c-0.1,5.6,0.1,2.3,0.1,4.8c-0.1,0.3-0.1,0.6-0.2,0.8c-0.9,3.5-0.1,4-0.5,7.3c-0.2,2.1,0.2,1.1-0.4,3.3
		c-0.4,4.4,2.3,5.8,2.3,8.8c0,1.4,0.1,2.4,0.1,3.4c0,1.5,0,3,0,4.5c0,0.2-0.1,1.2-0.1,1.5c0,0.1-0.2,0.5-0.2,0.6
		c0,0.1-0.1,0.2-0.1,0.3c-0.1,0,0,0-0.1,0.1c-0.1,0-0.2,0.1-0.3,0.1c0.2,0.1,0.5,0.2,0.7,0.4c0.5,0,1.1,0.3,1.6,0.1
		c-0.8-1.2-1.1-11.3-0.9-13.3c0.2-0.2,0.5-0.4,0.7-0.7c0.2,0.1,0.3-1.3,0.9-2c0.3-0.5,0.7-5,0.4-7.9c0-0.4,0-0.7,0-1
		c0-3.3,0.7,0.8-0.1-6.4c0,0-0.5-4.3-0.5-5.5c0-0.1,0-0.3,0-0.5c0-0.8,0.3-1.6,0.3-2.4c0.5-2.2,0-1.8-0.1-6.7c0-0.8-0.1,0.1-0.1-4.4
		c0-1.6-0.4-6.3-0.5-8c-0.1-0.9-0.1-1.9-0.1-2.8c-0.1-5.3,0.1-2.3-0.2-5.6c-0.3-2.8-0.2-0.4-0.2-2.4c0-0.2,0-1.9,0-2.2
		C1009,413.2,1008.8,413,1008.8,412.7L1008.8,412.7z"/>
	<linearGradient id="SVGID_35_" gradientUnits="userSpaceOnUse" x1="998.1501" y1="311.5349" x2="998.1501" y2="1024.3263">
		<stop  offset="0" style="stop-color:#003333"/>
		<stop  offset="1" style="stop-color:#7F6D21"/>
	</linearGradient>
	<path fill-rule="evenodd" clip-rule="evenodd" fill="url(#SVGID_35_)" d="M998.7,401.5c-0.6,0-0.1,2.2-0.7,4.1
		c-0.3,1.2,0.2,1.8-0.6,3.4c-0.2,0.4,0.1,1-0.2,4c-0.2,1.4,0,0.1-0.6,4.3c-0.2,1.5-0.5,1.5-0.5,4.7c0,0,0,0.1,0,0.2
		c0,0.4,0.3,1,0.3,1.5c0,0.4-0.2,0.8-0.2,1.2c0,3.5,0-0.7,0,4.1c0,0.1,0,0.1,0,0.2c0,6.4,0.5-1.7,0.1,4.4c-0.1,2.3,0.4,0.5,0.1,4.5
		c-0.1,5.6,0.2,2.3,0.2,4.8c0,0.3,0,0.6-0.1,0.8c-0.9,3.5-0.1,3.9-0.4,7.3c-0.2,2.1,0.3,1.1-0.3,3.3c-0.4,4.4,2.3,5.8,2.4,8.8
		c0,1.4,0.1,2.4,0.1,3.4c0,1.5,0,3,0,4.5c0,0.2-0.1,1.2-0.1,1.5c-0.1,0.1-0.2,0.5-0.3,0.6c0,0.1-0.1,0.2-0.1,0.3c-0.1,0,0,0-0.1,0.1
		c-0.1,0-0.2,0.1-0.3,0.1c0.2,0.1,0.5,0.2,0.7,0.4c0.5,0,1,0.3,1.6,0.1c-0.8-1.2-1-11.3-0.9-13.3c0.2-0.2,0.5-0.5,0.7-0.7
		c0.2,0.1,0.3-1.3,0.9-2c0.3-0.5,0.6-5,0.4-7.9c0-0.4,0-0.7,0-1c0-3.3,0.7,0.8-0.1-6.4c0,0-0.5-4.3-0.5-5.5c0-0.1,0-0.3,0-0.5
		c0-0.8,0.2-1.6,0.3-2.4c0.5-2.2-0.1-1.8-0.1-6.7c0-0.8-0.1,0.1-0.1-4.4c0-1.6-0.4-6.3-0.5-8c0-0.9-0.1-1.9-0.1-2.8
		c-0.1-5.3,0-2.3-0.3-5.6c-0.3-2.9,0-0.4-0.3-2.5c0-0.2,0-1.9,0-2.2C998.7,401.9,998.7,401.7,998.7,401.5L998.7,401.5z"/>
	<linearGradient id="SVGID_36_" gradientUnits="userSpaceOnUse" x1="1081.0918" y1="311.5349" x2="1081.0918" y2="1024.3263">
		<stop  offset="0" style="stop-color:#003333"/>
		<stop  offset="1" style="stop-color:#7F6D21"/>
	</linearGradient>
	<path fill-rule="evenodd" clip-rule="evenodd" fill="url(#SVGID_36_)" d="M1081.5,434.7c-0.5,0-0.1,2.1-0.6,3.9
		c-0.3,1.2,0.2,1.7-0.6,3.2c-0.2,0.4,0.1,1-0.2,3.8c-0.1,1.4,0.5,0.1-0.1,4.1c-0.2,1.4,0,1.4,0,4.5c0,0.1,0,0.1,0,0.2
		c0,0.4-0.3,0.9-0.3,1.4c0,0.4,0.1,0.7,0,1.1c0,3.3,0.2-0.6,0.2,3.9c0,0.1,0,0.1,0,0.2c0,6.1,0-1.7-0.4,4.2
		c-0.2,2.2,0.1,0.4-0.2,4.3c-0.1,5.3,0,2.2,0.1,4.5c0,0.3-0.1,0.5-0.1,0.8c-0.9,3.3-0.1,3.7-0.5,7c-0.2,2,0.2,1.1-0.3,3.2
		c-0.4,4.2,1.7,5.5,1.8,8.4c0,1.4-0.4,2.3-0.4,3.3c0,1.4,0,2.8,0,4.3c0,0.2,0.4,1.2,0.4,1.4c0,0.1,0,0.5,0,0.6s0,0.2,0,0.3
		c-0.1,0,0,0,0,0.1c-0.1,0.1-0.2,0.1-0.3,0.2c0.2,0.1,0.5,0.2,0.7,0.3c0.5,0,1,0.3,1.5,0.1c-0.8-1.2-1-10.7-0.8-12.7
		c0.2-0.2,0.4-0.4,0.6-0.6c0.2,0,0.4-1.3,0.9-1.9c0.3-0.4,0.6-4.7,0.4-7.6c0-0.4,0-0.6,0-1c0-3.1,0.8,0.7,0-6.1c0,0-0.2-4.1-0.3-5.2
		c0-0.1,0-0.3,0-0.4c0.1-0.7,0.1-1.5,0.1-2.3c0.5-2.1-0.1-1.7-0.1-6.4c0-0.8-0.1,0-0.2-4.2c0-1.6-0.4-6-0.5-7.7
		c0-0.9-0.1-1.8-0.1-2.7c0-5.1,0-2.2-0.3-5.4c-0.3-2.7,0-0.3-0.3-2.3c0-0.2,0-1.7,0-2.1C1081.5,435.1,1081.5,434.9,1081.5,434.7
		L1081.5,434.7z"/>
	<linearGradient id="SVGID_37_" gradientUnits="userSpaceOnUse" x1="1104.9124" y1="311.5349" x2="1104.9124" y2="1024.3263">
		<stop  offset="0" style="stop-color:#003333"/>
		<stop  offset="1" style="stop-color:#7F6D21"/>
	</linearGradient>
	<path fill-rule="evenodd" clip-rule="evenodd" fill="url(#SVGID_37_)" d="M1105.4,441.7c-0.5,0-0.1,1.9-0.6,3.5
		c-0.3,1,0.2,1.5-0.5,2.8c-0.2,0.4,0.1,0.9-0.2,3.4c-0.1,1.2,0.2,0.1-0.3,3.6c-0.2,1.3,0.1,1.2-0.2,4c0,0.1,0,0.1,0,0.1
		c0,0.4,0,0.8,0,1.3c0,0.3-0.4,0.7-0.4,1c0,3-0.2-0.5-0.2,3.5c0,0,0,0.1,0,0.2c0,5.4,0.5-1.5,0.1,3.7c-0.1,1.9,0.4,0.4,0.2,3.8
		c-0.1,4.7,0.2,2,0.2,4c0,0.2,0,0.5-0.1,0.7c-0.8,2.9-0.1,3.3-0.4,6.2c-0.2,1.8,0.2,0.9-0.3,2.8c-0.3,3.7,1.5,4.9,1.6,7.5
		c0,1.2-1.3,2-0.3,2.9c0,1.3,0,2.6,0,3.8c0,0.2,0.3,1,0.4,1.3c0,0,0,0.4,0,0.5c0,0.1,0.1,0.2,0,0.2c-0.1,0,0,0-0.1,0.1
		c-0.1,0-0.1,0.1-0.3,0.1c0.2,0.1,0.4,0.2,0.6,0.3c0.5,0,0.9,0.2,1.4,0.1c-0.7-1-0.9-9.5-0.7-11.2c0.2-0.2,0.4-0.4,0.6-0.6
		c0.1,0,0.3-1.1,0.7-1.7c0.3-0.4,0.6-4.2,0.4-6.7c0-0.3,0-0.6,0-0.9c0-2.8,0.3,0.6-0.4-5.4c0,0-0.6-3.6-0.6-4.6c0-0.1,0-0.3,0-0.4
		c0-0.7,0.5-1.4,0.5-2c0.4-1.9,0.1-1.5,0.1-5.6c0-0.7,0,0-0.1-3.7c0-1.4-0.3-5.3-0.4-6.8c0-0.8-0.1-1.6-0.1-2.4c0-4.5,0-2-0.3-4.8
		c-0.3-2.4,0-0.3-0.3-2.1c0-0.2,0-1.6,0-1.9C1105.4,442.1,1105.4,441.9,1105.4,441.7L1105.4,441.7z"/>
</g>
<g>
	<linearGradient id="SVGID_38_" gradientUnits="userSpaceOnUse" x1="395.5372" y1="586.0856" x2="395.5372" y2="1160.9973">
		<stop  offset="0" style="stop-color:#003333"/>
		<stop  offset="1" style="stop-color:#7F6D21"/>
	</linearGradient>
	<path fill-rule="evenodd" clip-rule="evenodd" fill="url(#SVGID_38_)" d="M360.8,735.7c6.2,0.5,68.1,3,69.6,1.3
		c-3.5-3.8-6.4-0.5-7.7-9.3c-0.8-5.4,4.9-3.1-6.2-6c-2.7-0.7,1-3.8-5.4-4c-14.7-0.4,1.4,4.8-8.4,4.8l-2.8-0.8
		c0.2-5.1-4.7-0.4-7.3-2.8c-7.1-6.4-2.8,3.9-7.6,6.4c-8.7,4.8-9-3.3-9.5,6.4C375.6,732.4,361.9,735.8,360.8,735.7L360.8,735.7z"/>
	<linearGradient id="SVGID_39_" gradientUnits="userSpaceOnUse" x1="306.5605" y1="586.0856" x2="306.5605" y2="1160.9973">
		<stop  offset="0" style="stop-color:#003333"/>
		<stop  offset="1" style="stop-color:#7F6D21"/>
	</linearGradient>
	<path fill-rule="evenodd" clip-rule="evenodd" fill="url(#SVGID_39_)" d="M287.3,721.4c0.4-0.6,0.3-0.3,0.4-0.8
		c-4.7-4.3-1.4,1.9-5.7-4.9c-1.6-2.6,1.5-10.4,1.6-10.5c6.1,0,2.7,4.4,2.9-1.2c0-1-0.9-3.2-0.9-4.2c3.7,0,1,2.9,4.5,2.9
		c0-4.1,1.7-10.7,4-13.2c1.3,0.5,0.3,2.4,2.3,2.4c0-8.2,6.4-0.2,6.2,2.1c0.3,0,0.5,0,0.8,0.1c4.3-5.5-3.9,1.9,3.4-4.8
		c0.8-0.7,1-1.9,1.7-2.6l0.2,0.3c0.4,2.3-1.3,3.6,1,3.6c-0.1-0.9,2.4-1.8,2.4,0l0.2,0.9c9.1,2.1,2.9,4.4,7.2,5.6
		c0,0.2,0.1,1.8,0.1,2.1l1.5,1.3c1.5,5.4,3.1,5.8,7.7,8.8c0.2,0.1,0.1,0.7,0.1,0.9c0,0,6.3,6.8-2.1,8.3c-3.7,0.7-0.8,1.7-6.9,3.7
		l-0.9,0.8c-0.3,3.8-3.8-1.8-8,5.4c-0.7,1.1-18.1-0.1-20.5-3.8C290.3,723.7,284.1,726.1,287.3,721.4L287.3,721.4z"/>
	<linearGradient id="SVGID_40_" gradientUnits="userSpaceOnUse" x1="341.4274" y1="586.0856" x2="341.4274" y2="1160.9973">
		<stop  offset="0" style="stop-color:#003333"/>
		<stop  offset="1" style="stop-color:#7F6D21"/>
	</linearGradient>
	<path fill-rule="evenodd" clip-rule="evenodd" fill="url(#SVGID_40_)" d="M325.7,732.6c0.3-0.5,0.3-0.2,0.3-0.7
		c-3.8-3.5-1.1,1.5-4.6-4.1c-1.3-2.1,1.2-8.5,1.3-8.6c5,0,2.2,3.6,2.4-1c0-0.8-0.8-2.6-0.8-3.4c3,0,0.8,2.4,3.7,2.4
		c0-3.3,1.4-8.7,3.2-10.7c1.1,0.3,0.3,1.9,1.9,1.9c0-6.7,5.2-0.2,5,1.7c0.2,0,0.4,0,0.6,0c3.5-4.4-3.2,1.6,2.8-3.9
		c0.6-0.6,0.8-1.5,1.4-2.1l0.2,0.2c0.3,1.9-1.1,2.9,0.8,2.9c-0.1-0.7,2-1.5,2,0l0.1,0.8c7.4,1.7,2.4,3.6,5.9,4.6
		c0.1,0.2,0.1,1.5,0.1,1.7l1.3,1c1.3,4.4,2.6,4.8,6.3,7.2c0.2,0.1,0.1,0.6,0.1,0.8c0,0,5.1,5.5-1.7,6.8c-3,0.6-0.6,1.4-5.6,3.1
		l-0.8,0.6c-0.2,3.1-3.1-1.5-6.6,4.4c-0.5,0.9-14.7-0.1-16.7-3.1C328.2,734.4,323.1,736.4,325.7,732.6L325.7,732.6z"/>
	<linearGradient id="SVGID_41_" gradientUnits="userSpaceOnUse" x1="233.8323" y1="586.0856" x2="233.8323" y2="1160.9973">
		<stop  offset="0" style="stop-color:#003333"/>
		<stop  offset="1" style="stop-color:#7F6D21"/>
	</linearGradient>
	<path fill-rule="evenodd" clip-rule="evenodd" fill="url(#SVGID_41_)" d="M189.4,671.2c-9.8,0.3-4.4,0.6-13.8,0.2
		c-0.3,0-4.4-13.2-7.3-17.7c-0.2-0.4,2-2.8-3.4-8.6c-1.3-1.4-1.5,1.2-3.2,0.9c-0.3,0-0.6-0.3-0.6-0.6c-0.2-3.4-0.6-3.1-1.6-5.7
		c-1.9-5.4-1.9-5.2-1.5-19.3c0-1,0.3-2.4,1.3-2.8c11.1-3.5-3.7-1.4,9-2.8c0.1,0,2.2-6.2,3-6.4c3.8-1.1,4.7-3.3,5.8-3.7
		c2.5-1.1,5.1-2,7.7-2.5c0.7-0.1,1.7,0.9,2.1,0.3c0.8-1.3,2.8-10.3,2.8-10.5c0.2-1.2,0.6-2.3,0.9-3.4c0,0,12.6-0.8,15.1,0
		c1.9,0.6,3.9,0,5.9,0c0.2,0,0.6-0.2,0.7,0c2,2.2,7.4,1.9,11.5,3.1c0.8,0.2,0.3,0.7,0.7,1.2c0.5,0.6,1.2,1.1,1.9,1.6
		c10.3,7.2,5-8.2,13.7,1.6c0.2,0.3,0.3,0.5,0.7,0.2c0.9-0.6-0.1-2.1,1.1-1.9c1.6,0.2,1,2.6,2.5,1.7c2-1,3.7-4.3,5.6-1.4
		c0.6,1.1,2.5,0.1,3.7,0.3c1.7,0.3,10,2.7,9.5,4.9c-0.1,0.6,5.7,0.9,5.9,1.3c0.4,0.4-0.3,2.8,0,3c3.6,2-0.2,2,2.2,4.7
		c1.7,2,2.1,0.4,3.3,1.3c0.9,0.7-1.1,2-0.9,3c0.6,2.7,1.6,5.8,4,7.4c3.2,2.1,9.5-1.3,12.6,3.3c4,5.8-1.5-0.6,1.6,7.1
		c1.1,2.7-4.1,8.8-5.2,10.3c-0.6,0.8-0.8,2.1-0.6,3.1c0.9,3.8,5.4-1.3,8.6,2.4c7.1,8.1-6.1,3.4,5.1,9.6c0.2,0.1,0.6,0.3,1.9,1.6
		c0.6,0.6,0.1,2.6-0.3,3.3c-0.2,0.5,0,1,0,1.5c0,3.2-0.7,3.9-0.6,7.4c0,0.1,4.8,4.4,7,5.3c5.9,2.3-5,11.5-5.2,11.7
		c-1.6,0.9-3.7,1.1-4.9,2.5c-8,8.9,6.1,2.6-12.1,8.4c-9.4,3,0.7,5.3-16.2,6.7c-0.9,0.1-0.4,0.9-2.5,0.7c-1-0.1-1.8-0.9-2.8-0.9
		c-4.6-0.4,0.6,5.2-7.4,3.1c-0.8-0.2,0.6-2.8-0.1-3.1c-16-6.3,0.5,4.1-6.8-3.6c-3.5,1.3-6.8,2.8-7,2.8c-14.7-0.4-11,9.5-11,20.7v3.4
		c0,0.8,0.2,0.5,0.9,1.1c0.9,0.9,7,3.6,7,3.6c-8.9,1.9-15.7,0.6-24.7,0.2l-0.6,0c0.1-0.1,4.3-1.4,4.5-2.2c0.2-0.1,0.4-0.2,0.6-0.3
		c2.7-1.7,1.6-28.7,0.6-33.4c0,0-2.9-1.3-3.3-1.4c-8.7-2.7-7.6-7.1-13.3-12.4c-2.5-2.3-3.9-4.2-4.7-5.8c-0.4,0-0.9,0-1.4,0
		c-1,0,0.4-0.2-0.4-0.6c-0.6-0.3-2.1,0.7-2.8,0.7c-0.4,0-4.2-4.2-3.7-4.4C191.1,672.9,190.1,671.2,189.4,671.2L189.4,671.2z
		 M237.3,700.3c-0.5-0.1-0.8-0.3-0.9-0.5c-1.5-4.5,3.3-4.7,2.2-6.5c-0.4-0.7-0.5-1.6-0.7-2.5c-8.7-0.8-2.2-1.4-4.5-3.6
		c-0.1,0-0.4-0.2-0.9-0.3c-1.4,1.2,0,4.6-2.1,5.1c-1.2,0.3-2.1,0.5-3,0.7c0.6,4,2.7,8.3,5.1,8.1
		C233.7,700.7,235.4,700.5,237.3,700.3L237.3,700.3z M237.9,689.9c-0.2-1.5-0.4-2.9-1.7-3.2c-0.7-0.2-1.2-0.3-1.7-0.3
		c0,1.2-0.1,2.3,0.6,2.4C235.1,688.9,236.4,689.4,237.9,689.9L237.9,689.9z M221.2,690.8c-0.8-2.6-0.6-7.2-6.3-12.4
		c-0.7,0.8-1.4,1.7-2.3,2.4c-9.6,7.5,3.8,11.6,7.5,11.6C220.3,691.9,220.7,691.4,221.2,690.8L221.2,690.8z M212.4,676.4
		c-0.1-0.1-0.3-0.2-0.5-0.3c-0.8-0.6,3.8-15.1-2.9-9.4c-0.3,0.3-0.9-0.3-1.3,0c-4.5,4.4-2.6,8-4.9,9.7c0.7,3.4,1.1,5.9,2.3,6.1
		C209.3,683,211.3,679.6,212.4,676.4L212.4,676.4z"/>
	<linearGradient id="SVGID_42_" gradientUnits="userSpaceOnUse" x1="161.1671" y1="586.0856" x2="161.1671" y2="1160.9973">
		<stop  offset="0" style="stop-color:#003333"/>
		<stop  offset="1" style="stop-color:#7F6D21"/>
	</linearGradient>
	<path fill-rule="evenodd" clip-rule="evenodd" fill="url(#SVGID_42_)" d="M173.4,735.4c-4.1,2.1-6.7-6.1-6.9-8.9
		c-0.2-2.8-2.3-24.8,2.6-20.8c0.7,0.6,7.7-1.6,8.6-2.2c0.7-0.5,0.3-0.3,0.9-0.3c1,0.1,1.9,0.7,2.9,0.8c3.1,0.3,5-3.7,5.4-4.2
		c0.8-1.1,2,1.6,3.7-1.4c0.1-0.2,4.2,1,4.7,0c0.5-1-2-0.9-2.3-2c-1.4-3.9-0.7,0.2-1.9-2.1c-3.4-6.9-6.3,1.8-4.1-7.4
		c0.1-0.5-0.3-0.8,0.1-0.9c5.7-1.3,8.7-2.1,8.9-8.3c0-1.7-0.7-4,0.5-5.2c2.2-2.5-1.9-5.2-3.5-7.6c-2.4-3.4-2.7-1.1-7.7-2.8
		c-2.2-0.7-0.7-5.1-2.6-6.3c-8.1-5-1-5.1-8.5-6c-4.3-0.5,3.6-4.4-10.6-0.9c-0.5,0.1-5.2,0.2-6-0.1c-5.2-2.2-5.8,1.6-7.7,2.1
		c-4.8,1.3-3.4,3-5,4.8c-1.7,2.1-0.2-3.5-3.1,3c-1.3,2.9-1.4-1.3-2.9,3.1c-0.3,0.8-13.9-3.9-8.7,0.5c0.4,0.3,0.6,0.1,0.9,0.6
		c0.3,0.6-3.6,1.8-4.2,2.9c-0.3,0.6,4.3,2.6,4.7,4c0.4,1.3,1.3,0.4,2,5.5c0.1,0.8,1.7,0.5,2.3,1.1c0.5,0.5,0.7,1.5,0,1.9
		c-4.5,2.2,3.7-0.3-3.4,5.8c-2.7,2.3,7.8,3.9-5.8,7.9c-3.1,0.9,1.3,5.7,2.3,6.7c0.2,0.1,0.3,0.3,0.5,0.5c0.4,0.4,1.2,1.1,1.7,1.3
		c1.4,0.5,2.9,0.4,4.3,0.9c0.2,0.1,0,0.4,0,0.6c0,0.4-0.3,1.9,0.1,1.9c2.2-0.2,1.9,6.9,8.5,1.9c4.8-3.6-1.7,6.2,11.7,2.9
		c1-0.3,4-0.1,4.2,1.2c0.2,1.1,0.9,2,1.1,3.1c0.2,0.9-0.4,14.7-0.5,15c-0.2,1.6-0.6,2.6,0,4.7c0.1,0.3-0.4,0.8-0.5,1
		c-0.2,0.6-0.3,1.2-0.8,1.7c-0.5,0.5-10.7,4.5-10.5,4.6c4.1,1.7,9.2,1.2,13.3,0c0.8-0.2,13.5,0.3,14.6-0.7
		C177.2,738.8,173.4,735.4,173.4,735.4L173.4,735.4z"/>
	<linearGradient id="SVGID_43_" gradientUnits="userSpaceOnUse" x1="700" y1="586.0856" x2="700" y2="1160.9973">
		<stop  offset="0" style="stop-color:#003333"/>
		<stop  offset="1" style="stop-color:#7F6D21"/>
	</linearGradient>
	<path fill-rule="evenodd" clip-rule="evenodd" fill="url(#SVGID_43_)" d="M0,741.6c53,15.5,219.7-36.6,320.4-20
		c159.8,26.2,318,26.9,479.2,31.1c134.7,3.5,259.8-3.6,394.6-3.6c63.6,0,123.8-20.3,205.8-21v252H0V741.6z"/>
	<linearGradient id="SVGID_44_" gradientUnits="userSpaceOnUse" x1="118.4919" y1="586.0856" x2="118.4919" y2="1160.9973">
		<stop  offset="0" style="stop-color:#003333"/>
		<stop  offset="1" style="stop-color:#7F6D21"/>
	</linearGradient>
	<path fill-rule="evenodd" clip-rule="evenodd" fill="url(#SVGID_44_)" d="M106.3,757.8c4,2.1,6.6-6.1,6.9-8.9
		c0.2-2.8,2.3-24.8-2.5-20.8c-0.7,0.6-7.7-1.6-8.6-2.2c-0.7-0.5-0.3-0.3-0.8-0.3c-1,0.1-1.9,0.7-2.9,0.8c-3.1,0.3-5-3.7-5.4-4.2
		c-0.8-1.1-2,1.6-3.6-1.4c-0.1-0.2-4.2,1-4.7,0c-0.5-1,2-0.9,2.3-2c1.4-3.9,0.7,0.2,1.9-2.1c3.5-6.9,6.3,1.8,4.1-7.4
		c-0.1-0.5,0.3-0.8-0.1-0.9c-5.7-1.3-8.7-2.1-8.9-8.3c0-1.7,0.7-4-0.5-5.2c-2.2-2.5,1.9-5.2,3.6-7.6c2.4-3.4,2.7-1.1,7.7-2.8
		c2.2-0.7,0.7-5.1,2.6-6.3c8.2-5,1-5.1,8.5-6c4.3-0.5-3.5-4.4,10.6-0.9c0.5,0.1,5.2,0.2,6-0.1c5.2-2.2,5.8,1.6,7.7,2.1
		c4.7,1.3,3.4,3,4.9,4.8c1.7,2.1,0.2-3.5,3.1,3c1.3,2.8,1.4-1.3,2.9,3.1c0.3,0.8,13.9-3.9,8.7,0.5c-0.5,0.3-0.7,0.1-0.9,0.6
		c-0.3,0.6,3.6,1.8,4.2,2.9c0.3,0.6-4.3,2.6-4.7,4c-0.4,1.3-1.3,0.4-2,5.5c-0.1,0.8-1.7,0.5-2.3,1.1c-0.5,0.5-0.7,1.5-0.1,1.9
		c4.5,2.2-3.7-0.3,3.4,5.8c2.7,2.3-7.8,3.9,5.8,7.9c3.1,0.9-1.3,5.7-2.3,6.7c-0.1,0.1-0.3,0.3-0.5,0.5c-0.4,0.4-1.2,1.1-1.7,1.3
		c-1.4,0.5-2.9,0.4-4.3,0.9c-0.2,0.1,0,0.4,0,0.6c0,0.4,0.3,1.9-0.1,1.9c-2.2-0.2-1.9,6.9-8.5,1.9c-4.7-3.6,1.8,6.2-11.7,2.9
		c-1-0.3-4-0.1-4.2,1.2c-0.1,1.1-0.9,2-1.1,3.1c-0.1,0.9,0.4,14.7,0.5,15c0.2,1.6,0.6,2.6,0,4.7c-0.1,0.3,0.4,0.8,0.5,1
		c0.2,0.6,0.4,1.2,0.8,1.7c0.5,0.5,10.7,4.5,10.5,4.6c-4.1,1.7-9.2,1.2-13.3,0c-0.9-0.2-13.6,0.3-14.7-0.7
		C102.5,761.2,106.3,757.8,106.3,757.8L106.3,757.8z"/>
	<linearGradient id="SVGID_45_" gradientUnits="userSpaceOnUse" x1="74.671" y1="586.0856" x2="74.671" y2="1160.9973">
		<stop  offset="0" style="stop-color:#003333"/>
		<stop  offset="1" style="stop-color:#7F6D21"/>
	</linearGradient>
	<path fill-rule="evenodd" clip-rule="evenodd" fill="url(#SVGID_45_)" d="M62.5,741.2c4,2.1,6.7-6.1,6.9-9
		c0.2-2.7,2.3-24.8-2.6-20.7c-0.7,0.6-7.7-1.6-8.6-2.2c-0.7-0.5-0.3-0.4-0.9-0.3c-1,0.1-1.9,0.7-2.9,0.8c-3.1,0.3-5-3.7-5.4-4.2
		c-0.8-1-2,1.6-3.7-1.4c-0.1-0.2-4.2,1-4.7,0c-0.5-0.9,2-0.9,2.3-1.9c1.4-4,0.7,0.2,1.8-2.1c3.5-6.9,6.3,1.8,4.1-7.4
		c-0.1-0.5,0.3-0.8-0.1-0.9c-5.7-1.3-8.7-2.1-8.9-8.4c0-1.7,0.7-3.9-0.5-5.2c-2.2-2.4,1.9-5.1,3.5-7.6c2.4-3.4,2.7-1,7.7-2.8
		c2.2-0.7,0.7-5.1,2.6-6.3c8.1-5,1-5.1,8.5-6c4.3-0.5-3.6-4.5,10.6-0.9c0.5,0.1,5.2,0.2,6-0.2c5.2-2.2,5.8,1.6,7.7,2.2
		c4.7,1.3,3.4,3,5,4.8c1.7,2,0.2-3.5,3.1,3c1.3,2.8,1.4-1.3,2.9,3.1c0.3,0.8,13.9-3.9,8.7,0.5c-0.4,0.4-0.6,0.1-0.9,0.6
		c-0.3,0.5,3.6,1.8,4.2,2.9c0.3,0.6-4.2,2.6-4.7,4c-0.4,1.2-1.3,0.4-2,5.5c-0.1,0.8-1.7,0.5-2.3,1.1c-0.5,0.5-0.7,1.5,0,1.9
		c4.5,2.3-3.7-0.3,3.4,5.8c2.7,2.3-7.8,3.9,5.8,7.9c3.1,0.9-1.3,5.7-2.3,6.8c-0.2,0.1-0.3,0.3-0.5,0.5c-0.4,0.4-1.2,1.1-1.7,1.3
		c-1.4,0.5-2.9,0.4-4.3,0.9c-0.2,0.1,0,0.4,0,0.6c0,0.4,0.3,1.9-0.1,1.9c-2.2-0.2-1.9,6.9-8.5,1.9c-4.7-3.6,1.8,6.2-11.7,2.9
		c-1-0.3-4-0.1-4.2,1.2c-0.2,1-0.9,2-1.1,3.1c-0.2,0.9,0.4,14.7,0.5,15c0.2,1.6,0.6,2.6,0,4.6c-0.1,0.3,0.4,0.8,0.5,1.1
		c0.2,0.6,0.3,1.2,0.8,1.7c0.5,0.6,10.7,4.5,10.5,4.6c-4.1,1.7-9.2,1.2-13.3,0.1c-0.8-0.2-13.5,0.3-14.6-0.7
		C58.7,744.5,62.5,741.2,62.5,741.2L62.5,741.2z"/>
	<linearGradient id="SVGID_46_" gradientUnits="userSpaceOnUse" x1="717.0853" y1="586.0856" x2="717.0853" y2="1160.9973">
		<stop  offset="0" style="stop-color:#003333"/>
		<stop  offset="1" style="stop-color:#7F6D21"/>
	</linearGradient>
	<path fill-rule="evenodd" clip-rule="evenodd" fill="url(#SVGID_46_)" d="M497.6,753.4c24.2,22.8,338.9,30.4,507.8,17.5
		c0.7,0,8.3-1.2,8.4-1.4c0.5-0.9-2-0.9-2.3-1.9c-1.4-4-0.7,0.2-1.8-2.1c-3.5-6.9-6.3,1.8-4.1-7.4c0.1-0.5-0.3-0.8,0.1-0.9
		c5.7-1.3,8.8-2.1,8.9-8.4c0-1.7-0.7-3.9,0.5-5.2c2.2-2.5-1.9-5.2-3.5-7.6c-2.4-3.4-2.7-1-7.7-2.8c-2.1-0.7-0.7-5.1-2.6-6.3
		c-8.1-5-1-5.1-8.5-6c-4.3-0.5,3.6-4.5-10.6-0.9c-0.5,0.1-5.2,0.2-6.1-0.2c-5.2-2.2-5.8,1.6-7.7,2.2c-4.7,1.3-3.4,3-5,4.8
		c-1.6,1.9-0.4-2.7-2.6,1.8c-1.1-1-1.8-2.2-2.5-4.6l-1.3-1c0-0.2-0.1-1.5-0.1-1.7c-3.5-1,1.5-2.8-5.9-4.6l-0.1-0.8
		c0-1.5-2.1-0.7-2,0c-1.9,0-0.5-1-0.9-2.9l-0.2-0.2c-0.6,0.6-0.8,1.5-1.4,2.1c-6,5.5,0.7-0.6-2.8,3.9c-0.2,0-0.4,0-0.6,0
		c0.2-1.9-5-8.5-5-1.7c-1.6,0-0.8-1.6-1.9-1.9c-1.3,1.3-2.3,4.2-2.8,6.9c-1,0.2-2.1,0.5-3.5,0.8c-0.5,0.1-5.2,0.2-6-0.2
		c-5.2-2.2-5.8,1.6-7.7,2.1c-4.6,1.3-3.5,2.9-4.8,4.7c-0.7-0.2-1.6-0.4-2.7-0.7c-2.7-0.7,0.9-3.8-5.4-4c-14.7-0.4,1.4,4.8-8.3,4.8
		l-2.8-0.8c0.2-5.1-4.7-0.4-7.3-2.8c-7.1-6.4-2.8,3.9-7.5,6.5c-0.2,0.1-0.5,0.2-0.7,0.3c-2.7-1.7-3.8-2.5-4.9-6.3l-1.3-1
		c0-0.2-0.1-1.5-0.1-1.7c-3.5-1,1.5-2.8-5.9-4.6l-0.1-0.7c0-1.5-2.1-0.7-2,0c-1.9,0-0.5-1-0.8-2.9l-0.2-0.2
		c-0.6,0.6-0.8,1.5-1.4,2.1c-5.6,5.1-0.1,0.1-2.2,3.2c-0.8-0.5-1.5-1-2-1.5c-0.3-0.5-0.6-0.9-1-1.3c-0.5-0.7-0.8-1.7-1.2-2.9l-1.3-1
		c0-0.2-0.1-1.5-0.1-1.7c-3.6-0.9,1.5-2.8-5.9-4.6l-0.1-0.8c0-1.5-2.1-0.7-2,0c-2,0-0.6-1-0.9-2.9l-0.2-0.2
		c-0.6,0.6-0.8,1.5-1.4,2.1c-6,5.5,0.7-0.6-2.8,3.9c-0.2-0.1-0.4,0-0.7,0c0.2-1.9-5-8.5-5-1.8c-1.6,0-0.8-1.6-1.9-1.9
		c-0.6,0.7-1.2,1.7-1.7,2.9c-0.6-1.6-0.1-4.3-1.6-5.2c-8.1-5-1-5.2-8.5-6c-4.3-0.5,3.6-4.5-10.6-0.9c-0.5,0.1-5.2,0.2-6-0.2
		c-5.2-2.2-5.8,1.6-7.7,2.1c-4.7,1.3-3.4,3-4.9,4.8c-1.7,2-0.2-3.5-3.1,3c-1.3,2.9-1.4-1.3-2.9,3.1c-0.3,0.8-13.9-3.8-8.7,0.5
		c0.4,0.3,0.6,0.1,0.9,0.6c0.3,0.5-3.6,1.8-4.2,2.9c-0.3,0.6,4.3,2.6,4.7,4c0.4,1.3,1.3,0.5,2,5.5c0.1,0.8,1.7,0.4,2.3,1
		c0.5,0.6,0.7,1.4,0.1,1.7c-3.3,1.6,0.2,1.3-0.5,2.3h-0.1c-4.3,0,3.5-4.3-10.6-0.7c-0.5,0.1-5.2,0.3-6-0.1c-0.3-0.1-0.6-0.2-0.8-0.3
		c-1.8-1,1.6-2.7-5.1-4.2l-0.1-0.8c0-1.5-2.1-0.7-2,0c-1.9,0-0.5-1-0.8-2.9l-0.2-0.2c-0.6,0.6-0.8,1.5-1.4,2.1
		c-6,5.5,0.7-0.5-2.8,3.9c-0.2,0-0.4,0-0.7,0c0.2-1.9-5-8.7-5-1.7h-0.2c-1.3,0-0.7-1.6-1.7-2c-0.3,0.4-0.7,0.9-1,1.6
		c-0.4-0.1-0.9-0.2-1.4-0.4c-2.2-0.7-0.7-5.1-2.6-6.3c-8.2-5-1.1-5.2-8.5-6c-4.3-0.5,3.6-4.5-10.6-0.9c-0.5,0.1-5.2,0.2-6-0.2
		c-5.2-2.2-5.8,1.6-7.7,2.1c-4.7,1.3-3.4,3-4.9,4.8c-1.7,2.1-0.2-3.5-3.1,3c-1.3,2.9-1.4-1.3-2.9,3.1c-0.3,0.8-13.9-3.9-8.7,0.5
		c0.4,0.3,0.7,0.1,0.9,0.6c0.3,0.6-3.6,1.8-4.2,2.9c-0.3,0.6,4.3,2.6,4.7,4c0.4,1.3,1.3,0.5,2,5.5c0,0.2,0.2,0.4,0.4,0.5
		c-0.9-0.2-2-0.5-3.3-0.8c-2.7-0.7,1-3.8-5.4-4c-14.7-0.4,1.4,4.7-8.3,4.7l-2.8-0.8c0.2-5.1-4.7-0.4-7.3-2.8
		c-7.1-6.4-2.8,3.9-7.5,6.5c-3.8,2.1-6.1,1.7-7.4,1.5c0-4.1,4.2-2.3-6.1-5c-2.7-0.7,1-3.8-5.4-4c-14.7-0.4,1.4,4.8-8.3,4.8l-2.8-0.8
		c0.2-5.1-4.7-0.4-7.3-2.8c-7.1-6.4-2.8,3.9-7.5,6.5c-0.3,0.1-0.6,0.3-0.8,0.4c-1-0.2-2.7-0.6-5.1-1.3c-2.7-0.7,1-3.8-5.4-4
		c-14.7-0.4,1.4,4.8-8.3,4.8l-2.8-0.8c0.1-2.9-1.5-2.7-3.3-2.3c-3.4-2.2-4.7-2.7-5.8-6.9l-1.3-1c0-0.2-0.1-1.5-0.1-1.7
		c-3.6-0.9,1.5-2.8-5.9-4.6l-0.1-0.8c0-1.5-2.1-0.7-2,0c-2,0-0.6-1-0.9-2.9l-0.2-0.2c-0.6,0.6-0.8,1.5-1.4,2.1
		c-6,5.5,0.7-0.6-2.8,3.8c-0.2,0-0.4,0-0.6,0c0.2-2-5-8.5-5-1.8c-1.6,0-0.8-1.6-1.9-1.9c-1.9,2-3.3,7.4-3.3,10.7
		c-2.8,0-0.6-2.4-3.6-2.4c0,0.8,0.8,2.6,0.8,3.4c-0.2,4.6,2.6,1-2.4,1c0,0-0.5,1.3-1,2.8c-10.6,0.2,3.1,4.8-6,4.8l-2.8-0.8
		c0.1-5.1-4.7-0.4-7.3-2.8c-7.1-6.4-2.8,3.8-7.5,6.4c-8.7,4.8-9-3.3-9.6,6.4C512.4,750.1,496.8,752.6,497.6,753.4L497.6,753.4z
		 M690.1,736.2c-0.2-0.1-0.6-0.1-0.9-0.2C689.5,736,689.9,736.1,690.1,736.2L690.1,736.2z M462.6,750.3c0.3-0.5,0.3-0.2,0.3-0.7
		c-3.8-3.5-1.1,1.5-4.6-4c-0.8-1.3-0.2-4.1,0.4-6.1c-0.4,0.2-0.9,0.4-1.5,0.6l-0.9,0.8c-0.3,3.8-3.8-1.8-8.1,5.4
		c-0.6,1.1-18-0.1-20.4-3.8c-0.6-0.9-6.8,1.5-3.6-3.1c0.4-0.6,0.3-0.3,0.3-0.8c-4.6-4.3-1.4,1.9-5.6-4.9c-1.6-2.6,1.5-10.4,1.6-10.5
		c6.1,0,2.7,4.4,2.9-1.2c0-1-0.9-3.2-0.9-4.2c3.7,0,1,2.9,4.5,2.9c0-4.1,1.7-10.7,4-13.2c1.3,0.5,0.3,2.4,2.3,2.4
		c0-8.2,6.4-0.2,6.2,2.1c0.3,0,0.5,0,0.8,0c4.3-5.4-3.9,2,3.4-4.7c0.8-0.7,1-1.9,1.7-2.6l0.2,0.3c0.4,2.3-1.3,3.6,1,3.6
		c-0.1-0.9,2.5-1.8,2.5,0l0.1,0.9c9.1,2.1,2.9,4.4,7.2,5.6c0.1,0.2,0.2,1.8,0.2,2.1l1.5,1.3c1.5,5.4,3.1,5.8,7.7,8.8
		c0.2,0.1,0.1,0.6,0.1,0.9c0.5-1.5,1.2-2.9,2-3.7c1.1,0.3,0.3,1.9,1.9,1.9c0-6.7,5.2-0.2,5,1.7c0.2,0,0.4,0,0.6,0
		c3.5-4.4-3.2,1.6,2.8-3.9c0.6-0.6,0.8-1.5,1.4-2.1l0.2,0.2c0.3,1.9-1.1,2.9,0.9,2.9c-0.1-0.7,2-1.5,2,0l0.1,0.7
		c7.4,1.8,2.3,3.6,5.9,4.6c0,0.2,0.1,1.5,0.1,1.7l1.3,1c1.2,4.4,2.6,4.8,6.3,7.2c0.2,0.1,0.1,0.6,0.1,0.8c0,0,5.2,5.5-1.7,6.8
		c-3,0.6-0.6,1.4-5.6,3.1l-0.8,0.6c-0.2,3.1-3.1-1.5-6.6,4.4c-0.5,0.9-14.7-0.1-16.7-3.1C465,752,460,754.1,462.6,750.3L462.6,750.3
		z M461.7,737.3c1.6,0.7,0.4,2,0.2-0.3C461.9,737.1,461.8,737.2,461.7,737.3L461.7,737.3z"/>
	<linearGradient id="SVGID_47_" gradientUnits="userSpaceOnUse" x1="1198.5344" y1="586.0856" x2="1198.5344" y2="1160.9973">
		<stop  offset="0" style="stop-color:#003333"/>
		<stop  offset="1" style="stop-color:#7F6D21"/>
	</linearGradient>
	<path fill-rule="evenodd" clip-rule="evenodd" fill="url(#SVGID_47_)" d="M1090.5,757.2c6.2,0.5,68.1,3,69.6,1.3
		c-2.6-2.8-4.8-1.7-6.3-4.5c0.7-0.1,1.3-0.1,1.5,0.1c1.9,3,16.1,4.1,16.7,3.1c3.3-5.6,6.1-1.6,6.5-4c2.4,3.6,0.3-0.7,4.4,3.1
		c0,0.5,0,0.2-0.4,0.8c-3.2,4.7,3,2.2,3.6,3.1c2.4,3.7,19.8,5,20.4,3.8c4.3-7.2,7.8-1.6,8.1-5.4l0.9-0.8c6.1-2.1,3.1-3.1,6.9-3.8
		c0.2,0,0.3,0,0.5-0.1c0.6,0.3,0.3-1.2,3.3,1.5c0,0.5,0,0.2-0.4,0.8c-3.3,4.7,3,2.2,3.6,3.1c2.4,3.7,19.8,5,20.4,3.8
		c4.2-7.2,7.8-1.5,8-5.4l0.9-0.8c6.1-2.1,3.1-3.1,6.9-3.7c6.8-1.2,4-5.8,2.7-7.6c5.8,1.3,13.2,1.5,13.6,0.8c0.5-0.9,1-1.5,1.5-2.1
		c0.3-0.1,1,0.2,2.6,1.6c0,0.5,0,0.2-0.4,0.8c-3.3,4.7,3,2.2,3.6,3.1c2.4,3.7,19.8,4.9,20.4,3.8c4.2-7.2,7.8-1.6,8-5.4l0.9-0.8
		c1.8-0.6,2.8-1.1,3.4-1.5c1.2,0,2.7-0.3,3,0.1c2.4,3.7,19.8,4.9,20.4,3.8c4.2-7.2,7.8-1.6,8-5.4l0.9-0.8c0.9-0.3,1.6-0.6,2.1-0.9
		c5.8,1.3,13.1,1.5,13.5,0.8c4.3-7.2,7.8-1.5,8.1-5.4l0.5-0.4c0.2,0.1,0.3,0.3,0.5,0.5c0,0.5,0.1,0.2-0.3,0.8
		c-3.3,4.7,3.2,2.2,3.8,3.1c1.8,2.8,11.5,4.2,17.5,4.2v-41.5c-1,0.6-0.9,1.4-1.6,2c-7.3,6.7,0.8-0.7-3.5,4.8c-0.3-0.1-0.6,0-0.9,0
		c0.2-2.4-6.2-10.4-6.2-2.2c-2,0-1-1.9-2.4-2.3c-2.1,2.2-3.7,8-3.9,12.1c-0.5-0.9-1-2.1-1.4-3.6l-1.5-1.2c0-0.3-0.1-1.8-0.1-2.1
		c-4.4-1.2,1.8-3.5-7.3-5.6l-0.1-0.9c0-1.8-2.6-0.9-2.4,0c-2.4,0-0.7-1.3-1.1-3.6l-0.2-0.3c-0.7,0.7-0.9,1.8-1.7,2.5
		c-7.3,6.7,0.9-0.7-3.4,4.8c-0.3-0.1-0.5,0-0.8,0c0.2-2.3-6.2-10.4-6.2-2.2c-2,0-1-1.9-2.3-2.3c-1.6,1.7-2.9,5.5-3.6,9
		c-0.7-0.3-1.6-0.5-2.7-0.8l-0.1-0.9c0-1.8-2.6-0.9-2.5,0c-2.4,0-0.7-1.3-1-3.6l-0.2-0.3c-0.7,0.7-1,1.8-1.7,2.6
		c-7.3,6.7,0.8-0.7-3.4,4.8c-0.3-0.1-0.5,0-0.8,0c0.2-2.4-6.2-10.4-6.2-2.2c-2,0-1-1.9-2.3-2.3c-2.3,2.4-4,9.1-4,13.2
		c-3.5,0-0.8-2.9-4.5-2.9c0,1,0.9,3.2,0.9,4.2c-0.2,4.7,2.1,2.4-0.5,1.5c-0.1-0.4-0.3-0.8-0.4-1.2l-1.5-1.3c0-0.3-0.1-1.8-0.2-2.1
		c-4.4-1.2,1.8-3.5-7.2-5.6l-0.2-0.9c0-1.8-2.6-0.9-2.4,0c-2.4,0-0.7-1.3-1-3.6l-0.2-0.3c-0.7,0.7-1,1.8-1.7,2.6
		c-7.3,6.7,0.8-0.7-3.4,4.8c-0.3-0.1-0.5-0.1-0.8-0.1c0.2-2.3-6.2-10.4-6.2-2.1c-2,0-1-1.9-2.3-2.4c-0.6,0.6-1.2,1.6-1.6,2.6
		l-0.3-0.2c0-0.3-0.1-1.8-0.2-2.1c-4.3-1.2,1.8-3.5-7.2-5.6l-0.1-0.9c0-1.8-2.6-0.9-2.5,0c-2.4,0-0.7-1.3-1-3.6l-0.2-0.3
		c-0.7,0.7-1,1.9-1.7,2.6c-7.3,6.7,0.9-0.7-3.4,4.8c-0.2-0.1-0.5,0-0.8,0c0.2-2.4-6.2-10.4-6.2-2.2c-2,0-1-1.9-2.4-2.3
		c-2.3,2.4-4,9.1-4,13.2c-3.5,0-0.8-2.9-4.5-2.9c0,1,0.9,3.2,0.9,4.2c-0.2,5.6,3.2,1.2-2.9,1.2c-0.1,0-0.7,1.6-1.3,3.6
		c-0.6-0.2-1.2-0.3-2-0.6l-0.1-0.9c0-1.8-2.6-0.9-2.5,0c-2.4,0-0.7-1.3-1-3.6l-0.2-0.3c-0.7,0.7-1,1.8-1.7,2.5
		c-1.1,1-1.9,1.7-2.3,2.1c-3.2-2-4.6-3-5.9-7.6l-1.5-1.2c0-0.3-0.1-1.8-0.2-2.1c-4.3-1.2,1.8-3.5-7.2-5.6l-0.1-0.9
		c0-1.8-2.6-0.9-2.5,0c-2.4,0-0.7-1.3-1-3.6l-0.2-0.3c-0.7,0.7-1,1.9-1.7,2.6c-7.3,6.7,0.9-0.7-3.4,4.8c-0.2-0.1-0.5,0-0.8,0
		c0.2-2.4-6.2-10.4-6.2-2.2c-2,0-1-1.9-2.4-2.3c-2.3,2.4-4,9.1-4,13.2c-3.5,0-0.8-2.9-4.5-2.9c0,1,1,3.2,0.9,4.2
		c0,1.2,0.1,1.9,0.2,2.3c0.1-0.1,0.1-0.2,0.2-0.3c-0.5-0.4-1.4-0.8-3.3-0.8c-0.1,0.1-1,2.5-1.6,5.1c-1.1-3-5.9-8.3-5.9-1
		c-2,0-1-1.9-2.4-2.3c-2.3,2.4-4,9.1-4,13.2c-3.5,0-0.8-2.9-4.5-2.9c0,0.5,0.2,1.2,0.4,1.9c-0.4-0.7-0.8-1.6-1.1-2.9l-1.3-1
		c0-0.2-0.1-1.5-0.1-1.7c-3.5-1,1.5-2.8-5.9-4.6l-0.1-0.8c0-1.5-2.1-0.7-2,0c-1.9,0-0.5-1-0.8-2.9l-0.2-0.2
		c-0.6,0.6-0.8,1.5-1.4,2.1c-6,5.5,0.7-0.6-2.8,3.9c-0.2,0-0.4,0-0.6,0c0.2-1.9-5-8.5-5-1.7c-1.6,0-0.8-1.6-1.9-1.9
		c-1.9,2-3.2,7.4-3.2,10.7c-2.8,0-0.7-2.4-3.7-2.4c0,0.8,0.8,2.6,0.8,3.4c-0.2,4.6,2.6,1-2.4,1c0,0.1-1.1,2.8-1.5,5.3
		c-0.5-0.1-0.9-0.2-1.5-0.4c-2.7-0.7,0.9-3.8-5.4-4c-14.7-0.4,1.4,4.8-8.3,4.8l-2.8-0.8c0.2-5.1-4.7-0.4-7.3-2.8
		c-7.1-6.4-2.8,3.9-7.5,6.4c-8.7,4.8-9-3.3-9.6,6.4C1105.3,753.8,1091.6,757.3,1090.5,757.2L1090.5,757.2z M1041.2,764.5
		c0.3-0.5,0.3-0.2,0.3-0.7c-3.8-3.5-1.1,1.5-4.6-4.1c-0.8-1.2-0.2-4.1,0.4-6.1c-0.4,0.2-0.9,0.3-1.5,0.6l-0.9,0.8
		c-0.3,3.8-3.8-1.8-8.1,5.4c-0.6,1.1-18.1-0.1-20.4-3.8c-0.6-0.9-6.8,1.5-3.6-3.1c0.4-0.6,0.3-0.3,0.4-0.8c-4.6-4.3-1.4,1.9-5.7-5
		c-1.6-2.6,1.5-10.4,1.6-10.5c6.1,0,2.7,4.4,2.9-1.2c0.1-0.9-0.9-3.2-0.9-4.2c3.7,0,1,2.9,4.5,2.9c0-4.1,1.7-10.7,4-13.2
		c1.4,0.4,0.4,2.3,2.4,2.3c0-8.2,6.4-0.2,6.2,2.2c0.3,0,0.5,0,0.8,0c4.3-5.4-3.9,2,3.4-4.8c0.8-0.7,1-1.8,1.7-2.5l0.2,0.3
		c0.4,2.3-1.3,3.6,1,3.6c-0.1-0.9,2.5-1.8,2.5,0l0.1,0.9c9.1,2.2,2.9,4.4,7.2,5.6c0.1,0.3,0.2,1.8,0.2,2.1l1.5,1.2
		c1.5,5.4,3.1,5.8,7.7,8.8c0.2,0.1,0.1,0.6,0.1,0.9c0.5-1.5,1.2-2.9,2-3.7c1.1,0.3,0.3,1.9,1.9,1.9c0-6.7,5.2-0.2,5,1.7
		c0.2,0,0.4,0,0.6,0c3.5-4.4-3.2,1.6,2.8-3.9c0.6-0.6,0.8-1.5,1.4-2.1l0.2,0.2c0.3,1.9-1.1,2.9,0.9,2.9c-0.1-0.7,2-1.5,2,0l0.1,0.8
		c7.4,1.7,2.3,3.6,5.9,4.6c0,0.2,0.1,1.5,0.1,1.7l1.3,1c1.2,4.4,2.6,4.7,6.3,7.1c0.2,0.1,0.1,0.6,0.1,0.8c0,0,5.2,5.5-1.7,6.8
		c-3,0.6-0.6,1.4-5.6,3.1l-0.7,0.6c-0.2,3.1-3.1-1.5-6.6,4.4c-0.6,0.9-14.7-0.1-16.7-3.1C1043.7,766.4,1038.6,768.4,1041.2,764.5
		L1041.2,764.5z M1040.4,751.6c1.6,0.7,0.4,2,0.2-0.2C1040.5,751.4,1040.5,751.5,1040.4,751.6L1040.4,751.6z"/>
	<linearGradient id="SVGID_48_" gradientUnits="userSpaceOnUse" x1="1273.2125" y1="586.0856" x2="1273.2125" y2="1160.9973">
		<stop  offset="0" style="stop-color:#003333"/>
		<stop  offset="1" style="stop-color:#7F6D21"/>
	</linearGradient>
	<path fill-rule="evenodd" clip-rule="evenodd" fill="url(#SVGID_48_)" d="M1261,728.9c4.1,2.1,6.7-6.1,6.9-8.9
		c0.2-2.8,2.3-24.8-2.5-20.8c-0.7,0.6-7.7-1.6-8.6-2.2c-0.7-0.5-0.3-0.3-0.8-0.3c-1,0.1-2,0.7-2.9,0.8c-3.1,0.3-5-3.7-5.4-4.2
		c-0.8-1.1-2,1.6-3.7-1.4c-0.1-0.2-4.2,1-4.7,0c-0.5-1,2-0.9,2.3-2c1.4-3.9,0.7,0.2,1.9-2.1c3.4-6.9,6.3,1.8,4.1-7.4
		c-0.1-0.5,0.3-0.8-0.1-0.9c-5.7-1.3-8.7-2.1-8.9-8.3c0-1.7,0.7-4-0.5-5.2c-2.2-2.5,1.9-5.2,3.5-7.6c2.4-3.4,2.7-1.1,7.7-2.8
		c2.2-0.7,0.7-5.1,2.6-6.3c8.1-5,1-5.1,8.5-6c4.3-0.5-3.6-4.4,10.6-0.9c0.5,0.1,5.2,0.2,6-0.1c5.2-2.2,5.8,1.6,7.7,2.1
		c4.7,1.3,3.4,3,4.9,4.8c1.7,2.1,0.2-3.5,3.1,3c1.3,2.8,1.4-1.3,2.9,3.1c0.3,0.8,13.9-3.9,8.7,0.5c-0.4,0.3-0.6,0.1-0.9,0.6
		c-0.3,0.6,3.6,1.8,4.2,2.9c0.3,0.6-4.3,2.6-4.7,4c-0.4,1.3-1.3,0.4-2,5.5c-0.1,0.8-1.7,0.5-2.3,1.1c-0.5,0.5-0.7,1.5,0,1.9
		c4.5,2.2-3.7-0.3,3.4,5.8c2.7,2.3-7.8,3.9,5.8,7.9c3.1,0.9-1.3,5.7-2.3,6.7c-0.2,0.1-0.3,0.3-0.5,0.5c-0.4,0.4-1.2,1.1-1.7,1.3
		c-1.4,0.5-2.9,0.4-4.3,0.9c-0.2,0.1,0,0.4,0,0.6c0,0.4,0.3,1.9-0.1,1.9c-2.2-0.2-1.9,6.9-8.5,1.9c-4.8-3.6,1.7,6.2-11.7,2.9
		c-1-0.3-4-0.1-4.2,1.2c-0.2,1.1-0.9,2-1.1,3.1c-0.2,0.9,0.4,14.7,0.5,15c0.2,1.6,0.6,2.6,0,4.7c-0.1,0.3,0.4,0.8,0.5,1
		c0.2,0.6,0.3,1.2,0.8,1.7c0.5,0.5,10.7,4.5,10.5,4.6c-4.1,1.7-9.2,1.2-13.3,0c-0.8-0.2-13.5,0.3-14.6-0.7
		C1257.2,732.2,1261,728.9,1261,728.9L1261,728.9z"/>
</g>
</svg>
