<?xml version="1.0" encoding="utf-8"?>
<!-- Generator: Adobe Illustrator 18.1.1, SVG Export Plug-In . SVG Version: 6.00 Build 0)  -->
<svg version="1.1" id="Layer_1" xmlns="http://www.w3.org/2000/svg" xmlns:xlink="http://www.w3.org/1999/xlink" x="0px" y="0px"
	 width="1400px" height="980px" viewBox="0 0 1400 980" enable-background="new 0 0 1400 980" xml:space="preserve">
<g>
	<rect fill-rule="evenodd" clip-rule="evenodd" fill="#FFFFCC" width="1400" height="980"/>
	<path fill-rule="evenodd" clip-rule="evenodd" fill="#FFFFFF" d="M411.1,538.6l-26.7-6.6c0-1.3,0.2-1.3-0.8-2.2l-22.2-31.5
		l6.7-18.5l-6.3-30L364,402l4.4-28.5c1.5,0,0.9,0.2,1.8-0.7l9.7-31.8c2.9-0.8,1.6-0.7,4.8-0.7l17,5.5l5.9-22.2
		c1.8-1.2,1.1-0.7,2.2-2.1l20-11.4c1.5,0,3,0,4.4,0l32.2,6.2c0.8,1.5,2,3,1.9,4.7l23,0.7c2.3,2.8,2.2,3.7,2.2,7.1l4.1,18.9
		c2.6,1.9,3.6,1.6,6.7,3l31.5,5.2l0.7,1.9l0.4,40.7l15.2,14.1c0.2,1.9,0.2,1.6,0.2,3.7l0.6,12.6c0,0.7,0,1.5,0,2.2l9.4,11.1
		c0,2,0.2,3.3-0.3,5.2l-18.9,26.3l3.3,20c0.1,1.8,0.8,2,1.9,3.7l5.2,11.1c0,1.4,0.3,3.3-0.3,4.4L527,524.2c-1.6,1-1.5,0.6-3.3,1.5
		l-23.3,0.3c-2.9-0.1-2.1,1.4-5.6,2.2l-18.1,15.9c-1.4,0.5-2.7,1-4.1,1.5l-28.5-4.1L432.2,519l-8.5,6.7l-0.3,6.6L411.1,538.6z"/>
</g>
<g>
	<path fill-rule="evenodd" clip-rule="evenodd" fill="#FFE09C" d="M0,1h1400v979H0V1z M346.8,412.5l3.7-58.5l2.2-2.2l17.8-21.5
		l5.2-5.2l17-7.4c2.6,0,2.6-0.3,4.4,1.5l17,8.9c2.3-1.6,5-3.6,6.6-5.9l7.4-21.5l2.9-4.2l11.9-6.4c1.7,0,3.5,0,5.2,0l15.6,2.7
		c4,1,2.9,1.4,6.6,1.4l18.5,0.7c9.1,2.3,11,7.9,11.9,17l8.2,5.9c5.4,1.5,8.6,1.7,12.6-2.2l12.6-20.7c4.1-1.2,7.5-0.7,11.8-0.7
		l28.9,6.6c2.2,3.8,5.4,7.1,5.2,11.9l3.7,6.6c5.6,5.7,13.6,7.8,21.6,8.9l24.5,26.7c0,4.2,0,8.4,0,12.6l14.7,24.5
		c5.6,8.9,21.7,25.3,30.3,30.3l22.2,26.7c1,3.8,1.2,4,1.5,8.2l28.1,37.1c1.2,3.7,0.7,4.9,0.7,8.9l-17,21.4
		c-8.3,5.1-6.4,2.6-14.8,6.7l-42.2,3.7c-6.7-0.2-3.3,0.7-7.4,2.2l-23,10.1c-4.4,1.2-4.9,2-9.7,2h-25.9c-8,3-12.8,4-21.5,4
		l-39.3-10.6c-8.1,0-12,0.2-20,3.6l-23.7,9.6c-9.6,1.5-12.9,2.8-25.2,3.7l-27.4-5.2c-8-3.1-16.2-5.9-24.4-8.9l-42.2-23.7
		c-1.4-0.5-7.2-4.2-8.2-5.2l-4.4-21.5c-0.7-2.9-4.9-11.5-6.6-17l6.4-18.5c4-5.2,5-1.6,5-8.9v-11.9c-2-1.9-2.6-2.6-3.5-4.4
		L346.8,412.5z"/>
</g>
<g>
	<path fill-rule="evenodd" clip-rule="evenodd" fill="#FFC675" d="M0,0h1400v980H0V0z M506.6,569.5l-70.4,4.4l-35.6-16.3l-3.7-0.7
		l-37-35.5c-3.2-2-3.3-1-5-3.7L338,485.8c0-4,0-7.9,0-11.8l-4.4-48.1c-1.5-5.2-5.6-9.7-6.6-17v-25.2c1-5.5,2-5,2-11.1l16.9-25.9
		c8.1,1.6,0,0,5.9,3l14.8,7.4l13.3,18.5l11.1-16.3c0-3.5,0-6.9,0-10.4l5.2-40l1.5-2.7l23-16.1c1.7,0,3.4,0,5.2,0l18.5-26.9
		c1.3-1.9,2.7-4.8,5.2-4.6l12.6,3.7c0.2,1.2,6.5,17.5,6.6,17.7l8.2,14.8c11.4,0.4,14.8-11.3,14.8-20.7l6.6-6.7
		c3-0.8,1.9-0.4,4.4-1.5l11.1,12.6c1.3,1.7,2.9,4.7,3.7,6.6l21.5,3.7c14.4,1.4,17.8-0.9,17.8,6.6l5.9,10.4c4.1,2.7,1.9,3.1,5.9,2.9
		l23-12.6l4.4-0.8l12.6,1.5c3,1.9,4,2.1,7.4,0.7l4.4-30.4c-0.2-3,2.1-5.1,3.7-8.9l10.4-13.3c5.5-0.5,6.8,3.1,9.6,7.4l8.9,19.2
		c0.3,5.1,1.7,2.1,2.2,5.9l25.9,1.5c1.6,2.4,3.2,6.6,3,9.6l6.6,29.6c2.1,1.4,3.1,2.6,5.2,3.7l21.5,29.6c4.6,3.8,11.9,9.5,17,12.6
		l13.3,22.2l5.9,33.3c3,1.4,4.4,2.8,6.6,3.7l20.8,15.6c1.1,2.2,4,6.4,4.4,8.2l5.9,17.8c3.4,2.4,15.3,7.7,15.6,10.4l3.7,16.3
		c0,7.6,0.5,5.2-4.4,10.9L781.4,521c-2.5,0-4.9,0-7.4,0l-63,12c-1.8,4.2-2.5,6-6.7,8.2l-7.4,8.2c-5.5,4.1-0.6,2.5-9.6,4.5h-51.9
		c-1.2,0-10.2,3.7-10.4,3.6l-20.8,5.2c-5.2,2.5-7.7,2.2-13.3,2.2l-34.8,3c-6.2,0-12.4,0-18.5,0L506.6,569.5z"/>
</g>
<g>
	<path fill-rule="evenodd" clip-rule="evenodd" fill="#EDAD60" d="M0,0h1400v980H0V0z M420.1,605.6l-78.5-68.1l-26.7-62.2l-1.5-75.5
		l-3-88.9l11.9-10.4l29.6-13.3l38.5,23.7l13.3-14.8l14.8-32.6l8.9-8.9l23.7-13.3l11.9-7.4l11.8-11.9l19.3-17.8l10.4-7.4l23.7,2.9
		l16.3,1.5l4.4,1.5L583,191h4.4l53.3,8.8l5.9,11.8l11.9,20.7l4.4,10.3l28.1-11.9l14.8,3l14.8,11.9l13.3-4.4l11.8-41.5l5.9-12.3
		l7.4-6.4h7.4l22.2,10.9l4.4,6.2l34.1,6l7.4,25.3l10.4,14.8l5.9,7.4l38.5-29.6l28.1,14.8l17.8,22.2l1.5,11.8l1.5,19.3l2.9,11.8
		l22.2,26.7l3,5.9l10.4,47.4l5.9,10.4l16.3,28.1l-19.2,26.7l-22.2,22.2l-5.9,8.9l-37.1,43l-10.4,7.4l-65.2,63.7l-11.8,7.4
		l-45.9,20.8l-22.2,4.5h-63.7l-28.1,1l-96.3-30h-5.9l-63.7,11h-4.4L420.1,605.6z"/>
</g>
<g>
	<path fill-rule="evenodd" clip-rule="evenodd" fill="#C28348" d="M0,0h1400v980H0V0z M946.4,658.8l-7.3,5.9l-59.3,14.8l-148.1-19.2
		l-8.9,1.5l-118.5-1.5l-112.6,22.2l-4.4,1.5l-72.6-17.8l-5.9-1.5L328.4,647L300,607v-8.9l-5.6-31.1L277,524v-4.4v-51.8l-11.9-66.6
		l-3-120l51.8-78.5l4.4-1.5l88.9-1.5l32.6,7.4l35.6-31.1l43-20.7l11.9,4.4l37,13.7l47.4-26.3h4.4l32.6,5.6l16.3,16.1l57.8-23.8
		l11.8-8.9l32.6-13.3l34.1,8.9l38.5,22.2l10.4,13.3l54.8,19.2l7.4,3l51.9,1.5l14.8,10.4l19.3,28.1l11.8,23.7l16.3,11.9l1.5,5.9
		l-11.8,56.3l16.3,29.6l4.4,20.7l14.8,59.3l51.8,28.1l5.9,7.4l8.9,51.8l1.5,5.9l19.2,50.3l-5.9,5.9l-37.1,22.2l-89-7.4v7.4
		L946.4,658.8z"/>
</g>
<g>
	<path fill-rule="evenodd" clip-rule="evenodd" fill="#945D29" d="M0,0h1399v980H0V0z M368.8,752.7l-66.7-34.2l-8.9-4.5L237,703.7
		l-14.8-25.2l-2.9-7.4l-17.8-97.8l16.3-87.4l3-71.1l31.1-60.7l22.2-87.4l29.6-32.6l42.9-17.8l59.3-53.3l53.3-26.7l16.3-20.7
		L514,93.5l77-2.9l60.8,31.1l14.8,22.2l13.3,22.2l5.9,54.8l17.8,5.9l2.9-32.6l16.3-16.3l14.8-32.6l43-29.6l80-47.3l4.4-1.4h16.3
		l59.2,19h4.4l47.4,4.5c12.8,5.9,9.2,8.7,25.2,13.3l20.8,13.3c4.8,8.1,3.8,4.7,7.4,11.8l2.9,8.9l51.9,34.1l14.8,25.2l1.5,4.4
		l29.6,19.2c10.8,3.6-0.2,1.4,8.9,5.9l31.1,22.2c1.1,3.2,3,5.9,3,7.4l10.4,23.7l72.6,87.4l76.7,146.6l-6.2,54.8v4.4l-30.8,48.9
		l-1.3,5.9l-8.8,34l-1.4,5.9l-41.4,1.5c-6.4,6.4-5.1,6.8-13.3,10.4l-74.1,43l-99.2-28.1l-56.3,45.9l-81.5-14.8
		c-11.5,6-8,4.6-22.2,4.4l-320-14.8l-40,17.8c-7.1,0-4.8-0.9-8.9,3.1l-94.8,7.6c-2.9,0-5.9,0-8.9,0L368.8,752.7z"/>
</g>
<g>
	<path fill-rule="evenodd" clip-rule="evenodd" fill="#FFFF99" d="M0,948.4c53.1-37.7,143.4-88.8,249.2-138.7
		c-4.7,0.5-8.1-0.1-8.8-2c-1.2-3.2,6.5-9,17.1-12.8c6.1-2.2,11.8-3.3,15.8-3.3c1.6-3.3,8.2-7.6,16.9-10.7
		c10.6-3.8,20.2-4.3,21.3-1.1c0.1,0.4,0.2,0.8,0.1,1.2c3.1-1.4,6.2-2.7,9.3-4.1c-0.7-0.3-1.1-0.8-1.3-1.3c-1.2-3.2,6.5-9,17.1-12.8
		c6.8-2.4,13.2-3.5,17.2-3.1c3.1-2.5,8-5.2,13.8-7.3c7.5-2.7,14.3-3.7,18.2-3c1.6-0.8,3.7-1.6,6.1-2.3c15.2-6.1,30.5-12,45.8-17.8
		c3-2.7,8.2-5.5,14.3-7.7c5.8-2.1,11.2-3.2,15.2-3.2l0.8-0.3c1.9-3.2,8.4-7.4,16.7-10.4c8.7-3.1,16.6-4,19.9-2.5
		c3.1-1.1,6.3-2.2,9.4-3.2c-0.5-3.3,7-8.7,17.2-12.4c6.9-2.5,13.2-3.6,17.3-3.1c3.1-2.5,8-5.2,13.8-7.3c7.5-2.7,14.3-3.7,18.2-3
		c3.6-1.9,9.5-3.2,16.3-3.8c5.2-0.5,10-1.4,13.7,0.6h0.1c-0.2-2-0.3-1.1-0.2-1.5c0.4-3.3,9.1-5.2,19.8-4.2
		c38.1-9.8,75.3-17.8,110.7-23.1c2.3-1.3,5-2.5,8-3.6c7.5-2.7,14.3-3.7,18.2-3c3.6-1.9,9.5-3.4,16.3-4.1c5.2-0.5,10.1-0.3,13.8,0.4
		c-0.2-0.4-0.3-0.8-0.2-1.2c0.4-3.4,9.8-5.1,21-3.9c10,1.1,18.2,4.2,19.5,7.3c2,0,4.1,0,6.1,0c3.5-1.7,10.7-2.4,18.8-1.5
		c5.2,0.6,10,1.7,13.5,3.1c54.6,4.8,117.9,19.7,183.1,41.6l0,0c6.8,0.6,12.7,2.2,16.3,4c3.9-0.7,10.8,0.3,18.2,3
		c5.8,2.1,10.7,4.8,13.8,7.2c4-0.4,10.4,0.7,17.3,3.2c10.6,3.8,18.3,9.6,17.1,12.8c-0.1,0.2-0.2,0.5-0.4,0.7
		c2.8,1.2,5.7,2.4,8.5,3.6l0,0c1.2-3.3,10.7-2.7,21.3,1.1c8.6,3.1,15.3,7.5,16.9,10.7c4,0,9.7,1,15.8,3.3
		c10.6,3.8,18.3,9.6,17.1,12.8c-0.5,1.4-2.2,2.1-5,2.1c67.7,32.9,131.7,70.9,183.6,110.2V980H0V948.4z M278.5,796l0.1-0.1L278.5,796
		L278.5,796z"/>
	<path fill-rule="evenodd" clip-rule="evenodd" fill="#916918" d="M1400,855.9V980H27v-9.4c85-60,264.1-154.1,449.9-223.3
		c-4.7,2.4-7.9,5.1-9,7.3c-4-0.1-9.6,1-15.7,3.2c-10.6,3.8-18.3,9.6-17.1,12.8c1.2,3.2,10.8,2.7,21.4-1.1
		c8.6-3.1,15.3-7.4,16.9-10.7c4,0.1,9.7-1,15.8-3.2c3.1-1.1,5.9-2.4,8.3-3.7c0.2-0.1,0.4-0.1,0.6-0.2c9.8-3.5,17-8.7,17.3-12
		c2.9,1.9,11.2,1,20.4-2.2c0.5-0.2,0.9-0.3,1.4-0.5c0.8,1.8,3.9,3.6,8.3,5c-1.3,0.4-2.6,0.9-3.9,1.5c-10.5,4.3-17.8,10.5-16.5,13.6
		c1.3,3.1,10.8,2.2,21.3-2.1c7.5-3.1,13.4-7.1,15.6-10.3c8.7,0.3,15.3-1.4,15.6-4.3c0.2-1.4-1.2-2.8-3.7-4.2l0.2,0
		c1.5-0.6,2.9-1.1,4.3-1.7c1.6,1,4.8,1.3,9,0.7c3.2,1,7.1,1.9,11.3,2.3c11.2,1.2,20.6-0.5,21-3.9c0-0.1,0-0.2,0-0.3
		c0.5-0.1,1-0.3,1.5-0.4c4.1-1.2,7.7-2.7,10.7-4.2c0.2,0,0.5,0,0.7,0.1c11.2,1.3,20.6-0.5,21-3.9c0.4-3.4-8.4-7.2-19.6-8.5
		c-8.6-0.9-16.1-0.1-19.4,1.8c-0.5-0.3-1.2-0.5-1.9-0.6c3-1.3,5-2.8,5.2-4.3c3.4,1.2,7.6,2.2,12.4,2.7c11.2,1.3,20.6-0.5,21-3.9
		c0.1-0.8-0.3-1.6-1-2.3c6-2.1,10.5-4.7,12-7c4,0.5,9.8,0.1,16.1-1.4c9.8-2.3,17.5-6.5,18.4-9.7c3.6-2.5,5.6-5,5-6.8
		c-0.9-2.5-6.8-2.7-14.3-1c1.3-0.8,2.4-1.6,3.4-2.4l1.2-0.3c3.8,1.2,9.9,1.6,16.6,1l0.5,0c-2.7,1.7-4.2,3.5-3.8,5
		c0.1,0.5,0.3,0.8,0.7,1.2c-6.8,2.6-11.2,5.9-10.6,8.3c0.8,3.4,10.4,4,21.3,1.3c8.9-2.1,16-5.7,18-8.7c1.2,0.2,2.5,0.2,4,0.2
		c1.4,0.2,2.8,0.5,4.2,0.6l0.5,0.1c0.1,0.3,0.2,0.6,0.4,0.8c-10.3,2.7-17.9,7.2-17.1,10.4c0.8,3.3,10.4,3.9,21.3,1.3
		c6-1.4,11.2-3.5,14.6-5.7c1.4,3.1,9.4,6.2,19.5,7.3c11.2,1.3,20.6-0.5,21-3.9c0.4-3.4-8.4-7.2-19.7-8.4c-6.8-0.8-13-0.4-16.9,0.7
		c0-0.3,0-0.6,0-0.8c-0.1-0.3-0.2-0.6-0.4-0.8c8-2.1,14.4-5.3,16.4-8.1c0.8,0.1,1.6,0.2,2.4,0.3c9.5,1,17.7,0,20.3-2.5
		c0.6,3.3,8.4,7.5,18.6,9.8c2,0.5,3.8,0.8,5.7,1c2.6,1.2,5.5,2.3,8.7,3.3c2.3,0.7,4.6,1.2,6.7,1.6c-1.3,0.5-2.2,1.2-2.4,2.1
		c-0.8,3.3,7.5,8.1,18.5,10.6s20.6,1.8,21.3-1.5c0.8-3.4-7.6-8.1-18.6-10.6c-1.9-0.4-3.7-0.8-5.5-1c0.6-0.4,1-0.8,1.2-1.4
		c1-3.3-7-8.5-17.9-11.7c-1.7-0.5-3.4-0.9-5-1.3c-2-0.8-4.2-1.6-6.6-2.3c0.7-0.1,1.4-0.2,2.1-0.3c6.7,0.5,11.6-0.6,12.1-2.9
		c0,0,0-0.1,0-0.1c7.3-2.7,12.1-6.1,11.5-8.7c-0.6-2.6-6.4-3.5-14.1-2.6c1.7-0.8,3.1-1.6,4.3-2.4c3.6,1.7,9.9,3,17,3.1
		c10.7,0.3,19.5-2,20.5-5.2c3.2,1.6,7.3,3,11.9,4.1c11,2.5,20.6,1.9,21.3-1.5c0.1-0.5,0-1-0.3-1.6c2.5,0.3,5,0.6,7.5,0.9
		c-2.1,0.5-3.5,1.3-3.8,2.5c-0.8,3.4,7.6,8.1,18.5,10.6c11,2.5,20.6,1.9,21.3-1.5c0.5-2.2-2.8-5.1-8.5-7.5
		C1093.4,690.8,1272.8,768.4,1400,855.9L1400,855.9z M505,737.2l3.4-1.2c1.8,0.3,3.9,0.5,6.2,0.6c-0.2,0.5-0.3,0.9-0.4,1.3
		C512.7,736.8,509.3,736.6,505,737.2L505,737.2z M354.9,797.6c10.5-4.3,20-5.3,21.3-2.1c1.3,3.1-6.1,9.2-16.5,13.6
		c-10.4,4.3-19.9,5.3-21.3,2.1C337.1,808,344.5,802,354.9,797.6L354.9,797.6z M597.1,746.3c11.2,1.2,20.1,5,19.7,8.4
		c-0.4,3.4-9.8,5.1-21,3.9c-11.2-1.2-20-5-19.7-8.4C576.5,746.8,585.9,745,597.1,746.3L597.1,746.3z M407.9,774.6
		c10.6-3.8,20.2-4.3,21.4-1.1c1.2,3.3-6.5,9-17.1,12.8c-10.6,3.8-20.2,4.3-21.4,1.1C389.6,784.2,397.3,778.5,407.9,774.6
		L407.9,774.6z M579.2,712.3c2-0.6,3.9-1.3,5.8-1.9c-0.3,0.2-0.6,0.4-0.9,0.6c-1.3,0.5-2.4,0.9-3.4,1.4
		C580.3,712.4,579.8,712.3,579.2,712.3L579.2,712.3z M583.4,721.7c0.2-0.3,0.4-0.7,0.6-0.7c0.2,0,0.5,0,0.7,0c2.5,0,5.5,0.4,8.7,0.3
		c-1,0.4-2,0.8-3,1.3C589,721.7,586.5,721.4,583.4,721.7L583.4,721.7z M616.7,704c-0.7-1-2.3-1.5-4.6-1.6c4.3-1.3,8.7-2.5,13-3.7
		c-0.2,0.6-0.2,1.2-0.1,1.6c0.6,1.6,3.4,2.3,7.5,2.1c-0.9,0.4-1.8,0.8-2.7,1.2C624.7,703.1,620.1,703.3,616.7,704L616.7,704z
		 M431,782c10.5-4.4,20-5.3,21.3-2.2c1.3,3.2-6.1,9.3-16.5,13.6c-10.4,4.4-19.9,5.3-21.3,2.2C413.2,792.4,420.5,786.4,431,782
		L431,782z M731.4,721.6c10.8,3.2,18.9,8.4,17.9,11.7c-0.9,3.3-10.5,3.4-21.4,0.2c-10.8-3.2-18.9-8.4-17.9-11.7
		C711,718.6,720.6,718.4,731.4,721.6L731.4,721.6z M673.2,730.7c11.2,1.3,20.1,5,19.7,8.4c-0.4,3.4-9.8,5.2-21,3.9
		c-1.4-0.1-2.7-0.3-4-0.6c3.8,2.3,6,4.7,5.5,6.5c-0.9,3.3-10.5,3.4-21.4,0.2c-10.8-3.2-18.9-8.4-17.9-11.7c0.9-3,9.1-3.3,19-0.9
		c-0.6-0.7-0.8-1.3-0.8-2C652.5,731.1,661.9,729.4,673.2,730.7L673.2,730.7z M484,759.1c10.6-3.8,20.2-4.3,21.4-1.1
		c1.2,3.2-6.5,9-17.1,12.8c-10.6,3.8-20.2,4.3-21.4,1.1C465.7,768.6,473.3,762.9,484,759.1L484,759.1z M756.3,668.5
		c15.7-2.6,31-4.8,45.9-6.4c-1.8,0.3-3.7,0.6-5.7,1.1c-3.9,0.9-7.4,2.1-10.4,3.4c-4.8,0.2-8.9,1-11.7,2.1c-3.5-1-9.6-0.9-16.5,0.5
		C757.5,669,756.9,668.8,756.3,668.5L756.3,668.5z M730.3,675.4c-0.6,0.1-1.3,0.2-1.9,0.3c0.2-0.3,0.3-0.5,0.3-0.8
		C729.2,675,729.7,675.2,730.3,675.4L730.3,675.4z M805.5,677.5c3.2-0.9,5.4-2.2,5.8-3.7c1.5,0.7,3.2,1.4,5.1,2.1
		c-0.1,0.3-0.1,0.7,0,1c0,0.1,0,0.2,0.1,0.2c-4.8-0.2-8.6,0.4-10.1,1.8C806.2,678.5,805.9,678,805.5,677.5L805.5,677.5z M807,661.6
		c3.1-0.3,6.3-0.6,9.3-0.9c-0.8,0.5-1.6,0.9-2.3,1.3C812.2,661.6,809.8,661.5,807,661.6L807,661.6z M995.6,681.5
		c10.4,4.4,17.8,10.5,16.5,13.6c-1.3,3.2-10.8,2.2-21.3-2.2c-10.4-4.4-17.8-10.5-16.4-13.6C975.7,676.2,985.2,677.2,995.6,681.5
		L995.6,681.5z M936.8,683.9c11,2.5,19.3,7.2,18.5,10.6c-0.7,3.3-10.3,4-21.3,1.5s-19.4-7.3-18.6-10.6
		C916.2,682.1,925.8,681.4,936.8,683.9L936.8,683.9z M899.5,665.3c11,2.5,19.4,7.3,18.6,10.6c-0.8,3.4-10.3,4-21.3,1.5
		c-11-2.5-19.3-7.2-18.5-10.6C878.9,663.5,888.5,662.8,899.5,665.3L899.5,665.3z M649,698.1c3.3-0.4,6.3-0.4,8.6-0.1
		c1.5-2.4,6.2-5,12.4-7.1c-3.9,0.9-7.3,1.2-9.8,0.9C657.6,694,653.7,696.2,649,698.1L649,698.1z M923,694.9
		c10.4,4.4,17.8,10.5,16.5,13.6c-1.3,3.2-10.9,2.2-21.3-2.2c-10.4-4.4-17.8-10.5-16.5-13.6C903.1,689.5,912.6,690.5,923,694.9
		L923,694.9z M869.4,676.6c11,2.5,19.4,7.3,18.6,10.6c-0.8,3.4-10.3,4-21.3,1.5c-11-2.5-19.3-7.2-18.6-10.6
		C848.9,674.8,858.4,674.1,869.4,676.6L869.4,676.6z M673,704.1c11-2.6,20.6-2,21.3,1.3c0.1,0.3,0.1,0.8-0.1,1.2
		c9.2-2.1,16.7-1.6,17.5,1.3c0.9,3.1-6.3,8-16.4,11.2c-2,2.7-10.6,4-20.6,2.8c-7-0.8-13.1-2.6-16.6-4.6c-2.1-0.5-3.4-1.3-3.6-2.4
		C653.7,711.6,662,706.7,673,704.1L673,704.1z"/>
	<path fill-rule="evenodd" clip-rule="evenodd" fill="#754F04" d="M1400,870.3V980H323.1c86.1-44,191.6-93.6,299.3-133.7
		c-4.7,2.4-8.1,5.3-9.2,7.5c-4-0.1-9.7,1.1-15.8,3.3c-10.6,3.8-18.3,9.6-17.1,12.8c1.2,3.2,10.7,2.7,21.3-1.1
		c8.6-3.1,15.3-7.4,16.9-10.7c4,0.1,9.7-1,15.8-3.2c3.1-1.1,5.9-2.4,8.3-3.7c0.2-0.1,0.4-0.2,0.6-0.2c9.8-3.5,17.1-8.6,17.3-12
		c2.9,1.9,11.3,1.1,20.4-2.2c0.5-0.2,0.9-0.3,1.4-0.5c0.8,1.8,3.9,3.6,8.3,5c-1.3,0.4-2.6,0.9-3.9,1.5
		c-10.4,4.4-17.8,10.5-16.5,13.6c1.3,3.2,10.8,2.2,21.3-2.1c7.5-3.1,13.3-7.1,15.6-10.3c8.7,0.2,15.3-1.4,15.6-4.3
		c0.1-1.4-1.2-2.8-3.7-4.2l0.1,0c1.5-0.5,2.9-1.1,4.3-1.7c1.6,1,4.9,1.3,9,0.7c3.2,1,7.1,1.9,11.3,2.3c11.2,1.3,20.1-0.5,21.1-3.9
		c0-0.1,0-0.2,0-0.3s0.9-0.2,1.5-0.4c4.1-1.2,7.7-2.7,10.7-4.2c0.2,0,0.5,0.1,0.7,0.1c11.2,1.3,20.6-0.5,21-3.9
		c0.4-3.4-8.4-7.2-19.7-8.4c-8.6-1-16.1-0.2-19.3,1.8c-0.5-0.3-1.2-0.5-1.9-0.6c3-1.3,5-2.8,5.2-4.2c3.4,1.2,7.6,2.2,12.4,2.7
		c11.2,1.2,20.6-0.5,21-3.9c0.1-0.8-0.3-1.5-1-2.3c6-2.1,10.6-4.7,12.1-7c4,0.5,9.8,0.1,16.1-1.4c9.8-2.3,17.5-6.4,18.4-9.7
		c3.6-2.5,5.6-5,4.9-6.8c-0.9-2.5-6.8-2.8-14.3-1c1.3-0.8,2.5-1.6,3.5-2.4l1.2-0.3c3.8,1.2,9.9,1.6,16.6,1l0.5,0
		c-2.7,1.7-4.2,3.6-3.8,5c0.1,0.5,0.4,0.8,0.8,1.2c-6.8,2.6-11.2,5.9-10.6,8.4c0.8,3.3,10.3,3.9,21.3,1.3c8.9-2.1,16-5.6,18-8.7
		c1.2,0.1,2.6,0.2,4.1,0.2c1.4,0.2,2.8,0.5,4.2,0.6l0.5,0c0.1,0.3,0.2,0.6,0.4,0.8c-10.3,2.7-17.9,7.2-17.1,10.4
		c0.8,3.4,10.4,3.9,21.3,1.3c6-1.4,11.2-3.5,14.6-5.7c1.4,3.1,9.4,6.2,19.5,7.3c11.2,1.2,20.6-0.5,21-3.9c0.3-3.4-8.4-7.2-19.7-8.4
		c-6.9-0.8-13-0.4-16.9,0.7c0-0.3,0-0.6,0-0.8c-0.1-0.3-0.2-0.6-0.4-0.8c8-2.1,14.3-5.3,16.4-8.1c0.8,0.1,1.6,0.2,2.4,0.3
		c9.5,1,17.7,0,20.2-2.4c0.6,3.3,8.4,7.5,18.6,9.8c1.9,0.4,3.8,0.8,5.7,1c2.6,1.2,5.5,2.3,8.7,3.3c2.3,0.7,4.6,1.2,6.7,1.6
		c-1.4,0.5-2.2,1.2-2.4,2.1c-0.8,3.4,7.6,8.1,18.6,10.6c11,2.5,20.6,1.9,21.3-1.5c0.8-3.3-7.6-8.1-18.6-10.6c-1.9-0.4-3.7-0.8-5.5-1
		c0.6-0.3,1-0.8,1.2-1.4c0.9-3.3-7.1-8.5-17.9-11.7c-1.7-0.5-3.4-0.9-5-1.3c-2-0.9-4.2-1.6-6.6-2.3c0.7-0.1,1.4-0.2,2.1-0.3
		c6.7,0.5,11.6-0.6,12.1-2.9c0-0.1,0-0.1,0-0.2c7.3-2.7,12.1-6.1,11.5-8.7c-0.6-2.6-6.4-3.5-14.1-2.6c1.7-0.8,3.1-1.6,4.3-2.4
		c3.6,1.7,9.9,3,16.9,3.2c10.7,0.2,19.5-2,20.5-5.2c3.2,1.5,7.3,3,12,4.1c11,2.5,20.6,1.8,21.3-1.5c0.1-0.5,0-1.1-0.3-1.6
		c2.5,0.3,5,0.6,7.5,0.9c-2.2,0.5-3.5,1.4-3.8,2.6c-0.7,3.3,7.6,8.1,18.6,10.6c11,2.5,20.6,1.8,21.3-1.5c0.5-2.2-2.8-5.1-8.5-7.5
		C1190.1,781.7,1300,820.6,1400,870.3L1400,870.3z M650.2,836.5l3.4-1.2c1.8,0.3,3.9,0.5,6.2,0.6c-0.2,0.5-0.3,0.9-0.3,1.3
		C657.8,836,654.5,835.8,650.2,836.5L650.2,836.5z M500.1,896.8c10.4-4.3,20-5.3,21.3-2.1c1.3,3.1-6.1,9.3-16.5,13.6
		c-10.4,4.3-19.9,5.3-21.3,2.2C482.3,907.3,489.7,901.2,500.1,896.8L500.1,896.8z M742.3,845.5c11.2,1.3,20,5,19.7,8.4
		c-0.4,3.4-9.8,5.2-21,3.9c-11.2-1.3-20.1-5-19.7-8.4C721.7,846,731.1,844.2,742.3,845.5L742.3,845.5z M553.1,873.9
		c10.6-3.8,20.2-4.3,21.3-1.1c1.2,3.2-6.5,9-17.1,12.8c-10.6,3.8-20.2,4.3-21.3,1.1C534.8,883.4,542.5,877.7,553.1,873.9
		L553.1,873.9z M724.4,811.5c2-0.6,3.9-1.2,5.9-1.9c-0.3,0.2-0.6,0.4-0.9,0.6c-1.3,0.5-2.4,0.9-3.3,1.4
		C725.5,811.6,725,811.5,724.4,811.5L724.4,811.5z M728.5,820.6c0.2-0.3,0.4-0.6,0.6-0.9c0.2,0,0.4,0,0.7,0c2.5,0.5,5.5,0.7,8.7,0.6
		c-1,0.4-2.1,0.8-3,1.2C734.2,820.6,731.7,820.4,728.5,820.6L728.5,820.6z M761.9,803.2c-0.7-1-2.3-1.5-4.6-1.6
		c4.3-1.3,8.7-2.5,13-3.7c-0.2,0.6-0.2,1.1-0.1,1.6c0.6,1.7,3.4,2.3,7.5,2.1c-0.9,0.4-1.8,0.8-2.7,1.2
		C769.9,802.3,765.3,802.5,761.9,803.2L761.9,803.2z M576.2,881.2c10.4-4.3,20-5.3,21.3-2.1c1.3,3.1-6.1,9.2-16.5,13.6
		c-10.4,4.3-19.9,5.3-21.3,2.1C558.4,891.7,565.7,885.6,576.2,881.2L576.2,881.2z M876.6,820.9c10.8,3.2,18.9,8.4,17.9,11.7
		c-1,3.3-10.5,3.4-21.4,0.2c-10.8-3.2-18.9-8.4-17.9-11.7C856.2,817.8,865.7,817.7,876.6,820.9L876.6,820.9z M818.4,829.9
		c11.2,1.2,20,5,19.7,8.4c-0.4,3.4-9.8,5.1-21,3.9c-1.4-0.1-2.7-0.3-4-0.6c3.8,2.3,6,4.7,5.5,6.5c-1,3.3-10.5,3.4-21.4,0.2
		c-10.8-3.1-18.9-8.4-17.9-11.7c0.9-3,9.1-3.4,18.9-0.9c-0.5-0.7-0.8-1.3-0.7-2C797.7,830.4,807.1,828.7,818.4,829.9L818.4,829.9z
		 M629.2,858.3c10.6-3.8,20.2-4.3,21.3-1.1c1.2,3.3-6.5,9-17.1,12.8c-10.6,3.8-20.2,4.3-21.3,1.1
		C610.8,867.8,618.5,862.1,629.2,858.3L629.2,858.3z M901.5,767.7c15.6-2.6,31-4.8,45.9-6.4c-1.9,0.3-3.7,0.6-5.7,1.1
		c-3.9,0.9-7.5,2.1-10.4,3.4c-4.8,0.2-8.9,1-11.8,2.1c-3.4-1-9.6-0.9-16.5,0.5C902.6,768.2,902.1,768,901.5,767.7L901.5,767.7z
		 M875.4,774.6c-0.6,0.1-1.3,0.2-1.9,0.3c0.2-0.2,0.3-0.5,0.3-0.8C874.4,774.3,874.9,774.4,875.4,774.6L875.4,774.6z M950.7,776.7
		c3.3-0.9,5.4-2.2,5.8-3.6c1.5,0.7,3.2,1.4,5.1,2.1c-0.1,0.4-0.1,0.7,0,1c0,0.1,0,0.2,0.1,0.2c-4.8-0.2-8.6,0.4-10.1,1.8
		C951.4,777.7,951.1,777.2,950.7,776.7L950.7,776.7z M952.2,760.9c3.1-0.3,6.2-0.7,9.3-0.9c-0.8,0.4-1.6,0.8-2.3,1.3
		C957.4,760.9,955,760.7,952.2,760.9L952.2,760.9z M1140.8,780.8c10.4,4.4,17.8,10.5,16.5,13.7c-1.3,3.1-10.9,2.2-21.3-2.2
		c-10.4-4.4-17.8-10.5-16.5-13.7C1120.9,775.4,1130.4,776.4,1140.8,780.8L1140.8,780.8z M1082,783.2c11,2.5,19.4,7.3,18.6,10.6
		c-0.8,3.4-10.3,4-21.3,1.5c-11-2.5-19.3-7.2-18.5-10.6C1061.4,781.4,1070.9,780.7,1082,783.2L1082,783.2z M1044.7,764.6
		c11,2.5,19.3,7.2,18.6,10.6c-0.8,3.3-10.3,4-21.3,1.5c-11-2.5-19.4-7.3-18.6-10.6C1024.1,762.7,1033.7,762.1,1044.7,764.6
		L1044.7,764.6z M794.2,797.3c3.3-0.3,6.3-0.4,8.6-0.1c1.5-2.3,6.2-5,12.3-7.1c-3.8,0.9-7.3,1.2-9.8,1
		C802.8,793.2,798.9,795.4,794.2,797.3L794.2,797.3z M1068.2,794.1c10.4,4.4,17.8,10.5,16.4,13.7c-1.3,3.1-10.8,2.2-21.3-2.2
		c-10.4-4.4-17.8-10.5-16.4-13.7C1048.3,788.7,1057.8,789.7,1068.2,794.1L1068.2,794.1z M1014.6,775.9c11,2.5,19.3,7.2,18.5,10.6
		c-0.7,3.3-10.3,4-21.3,1.5c-11-2.5-19.4-7.3-18.6-10.6C994.1,774,1003.6,773.4,1014.6,775.9L1014.6,775.9z M818.2,803.4
		c11-2.6,20.5-2,21.3,1.3c0.1,0.4,0.1,0.8-0.1,1.2c9.2-2.1,16.6-1.6,17.5,1.3c0.9,3.1-6.3,8-16.4,11.2c-2,2.7-10.6,3.9-20.6,2.8
		c-7-0.8-13.1-2.6-16.6-4.6c-2.1-0.5-3.4-1.3-3.6-2.4C798.9,810.8,807.1,805.9,818.2,803.4L818.2,803.4z"/>
</g>
<g>
	<polygon fill-rule="evenodd" clip-rule="evenodd" fill="#BD8041" points="790.3,468.8 814,619.2 973.3,695.4 964.4,522.5 	"/>
	<polygon fill-rule="evenodd" clip-rule="evenodd" fill="#945D29" points="1128.8,511 1094.7,674.3 973.3,695.4 964.4,522.5 	"/>
	<polygon fill-rule="evenodd" clip-rule="evenodd" fill="#EDAD60" points="1128.8,511 921.8,463.3 790.3,468.8 964.4,522.5 	"/>
	<polygon fill-rule="evenodd" clip-rule="evenodd" fill="#EDAD60" points="1128.8,511 921.8,463.3 968.8,344 1174.4,360.3 	"/>
	<path fill-rule="evenodd" clip-rule="evenodd" fill="#945D29" d="M1128.8,511c59.8-4.3,101.1-86.4,45.6-150.7L1128.8,511z"/>
	<polygon fill-rule="evenodd" clip-rule="evenodd" fill="#945D29" points="809.4,492.7 946.4,533.4 953.1,667.8 827.2,611.2 	"/>
	<polygon fill-rule="evenodd" clip-rule="evenodd" fill="#59320D" points="809.4,492.7 813.2,493.8 829.8,610.5 953,665.6 
		953.1,667.8 827.2,611.2 	"/>
	<polygon fill-rule="evenodd" clip-rule="evenodd" fill="#59320D" points="982.6,537.8 1111.1,526.3 1084.8,659.6 989.6,679.2 	"/>
	<polygon fill-rule="evenodd" clip-rule="evenodd" fill="#3D2106" points="1083.7,658.6 1109.1,526.5 1111.1,526.3 1084.8,659.6 
		989.6,679.2 989.5,677.7 	"/>
	<polygon fill-rule="evenodd" clip-rule="evenodd" fill="#59320D" points="977.9,356 939,456.3 1118.6,495.2 1157.1,370.8 	"/>
	<path fill-rule="evenodd" clip-rule="evenodd" fill="#945D29" d="M939,456.3c49.4-2.1,71.5-72,38.9-100.3L939,456.3z"/>
	<path fill-rule="evenodd" clip-rule="evenodd" fill="#C7993E" d="M888,469.5c0,5.9-11.6,10.7-26,10.7c-14.4,0-26-4.8-26-10.7
		c0-2.7,0-4.5,0-7.2c0-5.9,11.6-10.7,26-10.7c14.5,0,26,4.8,26,10.7C888,465,888,466.8,888,469.5L888,469.5z"/>
	<path fill-rule="evenodd" clip-rule="evenodd" fill="#FFFF99" d="M862.8,473c14.4,0,26.1-4.8,26.1-10.7s-11.8-10.7-26.1-10.7
		c-14.3,0-26.1,4.8-26.1,10.7S848.4,473,862.8,473L862.8,473z"/>
	<path fill-rule="evenodd" clip-rule="evenodd" fill="#FFFFFF" d="M880.3,470.3c-0.9,0.3-1.9,0.7-2.9,0.9l-27.5-18.3
		c1-0.2,2.2-0.5,3.3-0.7L880.3,470.3z M874.7,471.8c-2.2,0.5-4.7,0.8-7.2,1l-25.6-17c1.5-0.8,3.4-1.6,5.4-2.2L874.7,471.8z"/>
	<path fill-rule="evenodd" clip-rule="evenodd" fill="#FFFFFF" d="M863.7,471.9c14.4,0,24.5-4.5,25.2-9.6c0,5.9-11.7,10.7-26.1,10.7
		c-14.4,0-26.1-4.8-26.1-10.7C838.4,468.9,849.3,471.9,863.7,471.9L863.7,471.9z"/>
	<path fill-rule="evenodd" clip-rule="evenodd" fill="#C7993E" d="M928.2,472c-1.9,5.6-14.5,6.4-28.2,1.9
		c-13.7-4.6-23.2-12.9-21.3-18.5c0.8-2.6,1.4-4.3,2.3-6.9c1.9-5.6,14.5-6.4,28.2-1.8c13.6,4.6,23.2,12.9,21.3,18.5
		C929.6,467.7,929,469.4,928.2,472L928.2,472z"/>
	<path fill-rule="evenodd" clip-rule="evenodd" fill="#FFFF99" d="M909.2,446.6c13.6,4.6,23.2,12.9,21.3,18.5
		c-1.9,5.6-14.5,6.4-28.2,1.8c-13.7-4.6-23.2-12.9-21.3-18.5C882.9,442.9,895.5,442,909.2,446.6L909.2,446.6z"/>
	<path fill-rule="evenodd" clip-rule="evenodd" fill="#FFFFFF" d="M919.7,469.9c-1,0-2,0-3.1,0l-20.2-26.1c1.1,0.1,2.2,0.2,3.4,0.4
		L919.7,469.9z M914,469.7c-2.3-0.3-4.7-0.7-7.1-1.3L888,444c1.7-0.3,3.7-0.5,5.8-0.4L914,469.7z"/>
	<path fill-rule="evenodd" clip-rule="evenodd" fill="#FFFFFF" d="M903.5,466.2c13.7,4.6,24.7,3.6,26.9-1
		c-1.9,5.6-14.5,6.4-28.2,1.8c-13.7-4.6-23.2-12.9-21.3-18.5C880.5,455.3,889.9,461.6,903.5,466.2L903.5,466.2z"/>
	<path fill-rule="evenodd" clip-rule="evenodd" fill="#C7993E" d="M935,479.7c0,5.9-11.6,10.7-26,10.7c-14.4,0-26-4.8-26-10.7
		c0-2.7,0-4.5,0-7.2c0-5.9,11.6-10.7,26-10.7c14.4,0,26,4.8,26,10.7C935,475.2,935,477,935,479.7L935,479.7z"/>
	<path fill-rule="evenodd" clip-rule="evenodd" fill="#FFFF99" d="M909.1,483.2c14.4,0,26.1-4.8,26.1-10.7
		c0-5.9-11.7-10.7-26.1-10.7c-14.4,0-26.1,4.8-26.1,10.7C883,478.4,894.7,483.2,909.1,483.2L909.1,483.2z"/>
	<path fill-rule="evenodd" clip-rule="evenodd" fill="#FFFFFF" d="M926.6,480.4c-0.9,0.3-1.9,0.7-2.9,0.9l-27.5-18.3
		c1-0.2,2.2-0.5,3.3-0.7L926.6,480.4z M921,482c-2.2,0.5-4.6,0.8-7.2,1l-25.6-17c1.5-0.8,3.4-1.6,5.4-2.2L921,482z"/>
	<path fill-rule="evenodd" clip-rule="evenodd" fill="#FFFFFF" d="M910,482c14.4,0,24.5-4.5,25.2-9.6c0,5.9-11.7,10.7-26.1,10.7
		s-26.1-4.8-26.1-10.7C884.7,479.1,895.6,482,910,482L910,482z"/>
	<path fill-rule="evenodd" clip-rule="evenodd" fill="#C7993E" d="M974.5,482.1c-1.9,5.6-14.5,6.5-28.2,1.9
		c-13.6-4.6-23.2-12.9-21.3-18.5c0.8-2.6,1.4-4.3,2.3-6.9c1.9-5.6,14.5-6.4,28.2-1.8c13.6,4.6,23.2,12.9,21.3,18.5
		C975.9,477.9,975.4,479.6,974.5,482.1L974.5,482.1z"/>
	<path fill-rule="evenodd" clip-rule="evenodd" fill="#FFFF99" d="M955.5,456.8c13.6,4.6,23.2,12.9,21.3,18.5
		c-1.9,5.6-14.5,6.4-28.2,1.8c-13.7-4.6-23.2-12.9-21.3-18.5C929.2,453,941.8,452.2,955.5,456.8L955.5,456.8z"/>
	<path fill-rule="evenodd" clip-rule="evenodd" fill="#FFFFFF" d="M966.1,480.1c-1,0-2,0-3.1,0L942.8,454c1.1,0.1,2.2,0.2,3.4,0.4
		L966.1,480.1z M960.3,479.8c-2.3-0.3-4.7-0.7-7.1-1.3l-18.9-24.3c1.7-0.3,3.7-0.5,5.8-0.4L960.3,479.8z"/>
	<path fill-rule="evenodd" clip-rule="evenodd" fill="#FFFFFF" d="M949.9,476.4c13.6,4.6,24.7,3.6,26.9-1
		c-1.9,5.6-14.5,6.4-28.2,1.8c-13.7-4.6-23.2-12.9-21.3-18.5C926.8,465.5,936.2,471.8,949.9,476.4L949.9,476.4z"/>
	<path fill-rule="evenodd" clip-rule="evenodd" fill="#C7993E" d="M966,493.7c0,5.9-11.6,10.7-26,10.7s-26-4.8-26-10.7
		c0-2.7,0-4.5,0-7.2c0-5.9,11.6-10.7,26-10.7s26,4.8,26,10.7C966,489.2,966,491,966,493.7L966,493.7z"/>
	<path fill-rule="evenodd" clip-rule="evenodd" fill="#FFFF99" d="M940.5,497.3c14.4,0,26.1-4.8,26.1-10.7
		c0-5.9-11.7-10.7-26.1-10.7s-26.1,4.8-26.1,10.7C914.4,492.4,926.1,497.3,940.5,497.3L940.5,497.3z"/>
	<path fill-rule="evenodd" clip-rule="evenodd" fill="#FFFFFF" d="M957.9,494.5c-0.9,0.3-1.9,0.7-2.9,0.9l-27.5-18.3
		c1.1-0.2,2.2-0.5,3.4-0.7L957.9,494.5z M952.4,496.1c-2.2,0.5-4.7,0.8-7.2,1l-25.6-17c1.5-0.8,3.3-1.6,5.4-2.2L952.4,496.1z"/>
	<path fill-rule="evenodd" clip-rule="evenodd" fill="#FFFFFF" d="M941.4,496.1c14.5,0,24.6-4.4,25.2-9.6c0,5.9-11.7,10.7-26.1,10.7
		s-26.1-4.8-26.1-10.7C916.1,493.1,927,496.1,941.4,496.1L941.4,496.1z"/>
	<path fill-rule="evenodd" clip-rule="evenodd" fill="#C7993E" d="M1005.9,496.2c-1.9,5.6-14.5,6.5-28.2,1.9
		c-13.6-4.6-23.2-12.9-21.3-18.5c0.9-2.6,1.5-4.3,2.3-6.9c1.9-5.6,14.5-6.4,28.2-1.8c13.7,4.6,23.2,12.9,21.3,18.5
		C1007.3,491.9,1006.7,493.7,1005.9,496.2L1005.9,496.2z"/>
	<path fill-rule="evenodd" clip-rule="evenodd" fill="#FFFF99" d="M986.9,470.9c13.7,4.6,23.2,12.9,21.3,18.5
		c-1.9,5.6-14.5,6.4-28.2,1.8c-13.6-4.6-23.2-12.9-21.3-18.5C960.6,467.1,973.2,466.3,986.9,470.9L986.9,470.9z"/>
	<path fill-rule="evenodd" clip-rule="evenodd" fill="#FFFFFF" d="M997.5,494.2c-1,0-2,0-3.1,0l-20.2-26.1c1.1,0.1,2.2,0.2,3.4,0.5
		L997.5,494.2z M991.6,493.9c-2.3-0.3-4.7-0.7-7.1-1.3l-18.8-24.3c1.7-0.3,3.7-0.5,5.8-0.4L991.6,493.9z"/>
	<path fill-rule="evenodd" clip-rule="evenodd" fill="#FFFFFF" d="M981.3,490.4c13.6,4.6,24.7,3.6,26.9-1
		c-1.9,5.6-14.5,6.4-28.2,1.8c-13.6-4.6-23.2-12.9-21.3-18.5C958.2,479.5,967.6,485.8,981.3,490.4L981.3,490.4z"/>
	<path fill-rule="evenodd" clip-rule="evenodd" fill="#C7993E" d="M1006,502.3c0,5.9-11.6,10.7-26,10.7s-26-4.8-26-10.7
		c0-2.7,0-4.5,0-7.2c0-5.9,11.6-10.7,26-10.7s26,4.8,26,10.7C1006,497.8,1006,499.6,1006,502.3L1006,502.3z"/>
	<path fill-rule="evenodd" clip-rule="evenodd" fill="#FFFF99" d="M980.1,505.8c14.4,0,26.1-4.8,26.1-10.7
		c0-5.9-11.7-10.7-26.1-10.7c-14.4,0-26.1,4.8-26.1,10.7C954,501,965.7,505.8,980.1,505.8L980.1,505.8z"/>
	<path fill-rule="evenodd" clip-rule="evenodd" fill="#FFFFFF" d="M997.6,503c-0.9,0.3-1.9,0.7-2.9,0.9l-27.5-18.2
		c1.1-0.3,2.2-0.5,3.4-0.7L997.6,503z M992,504.6c-2.2,0.5-4.7,0.8-7.2,1l-25.6-17c1.5-0.8,3.3-1.6,5.4-2.2L992,504.6z"/>
	<path fill-rule="evenodd" clip-rule="evenodd" fill="#FFFFFF" d="M981,504.6c14.5,0,24.6-4.4,25.2-9.6c0,5.9-11.7,10.7-26.1,10.7
		S954,501,954,495.1C955.7,501.7,966.6,504.6,981,504.6L981,504.6z"/>
	<path fill-rule="evenodd" clip-rule="evenodd" fill="#C7993E" d="M1045.5,504.8c-1.9,5.6-14.5,6.4-28.2,1.8
		c-13.6-4.6-23.2-12.9-21.3-18.5c0.9-2.5,1.5-4.3,2.3-6.8c1.9-5.6,14.5-6.4,28.2-1.9c13.7,4.6,23.2,12.9,21.3,18.5
		C1046.9,500.5,1046.3,502.2,1045.5,504.8L1045.5,504.8z"/>
	<path fill-rule="evenodd" clip-rule="evenodd" fill="#FFFF99" d="M1026.5,479.4c13.7,4.6,23.2,12.9,21.3,18.5
		c-1.9,5.6-14.5,6.4-28.2,1.9c-13.6-4.6-23.2-12.9-21.3-18.5C1000.2,475.6,1012.8,474.8,1026.5,479.4L1026.5,479.4z"/>
	<path fill-rule="evenodd" clip-rule="evenodd" fill="#FFFFFF" d="M1037.1,502.8c-1,0-2,0-3.1-0.1l-20.2-26.1
		c1.1,0.1,2.2,0.2,3.4,0.5L1037.1,502.8z M1031.3,502.4c-2.3-0.2-4.7-0.7-7.1-1.3l-18.8-24.3c1.7-0.3,3.7-0.4,5.8-0.3L1031.3,502.4z
		"/>
	<path fill-rule="evenodd" clip-rule="evenodd" fill="#FFFFFF" d="M1020.9,499c13.6,4.6,24.7,3.6,26.9-1c-1.9,5.6-14.5,6.4-28.2,1.9
		c-13.6-4.6-23.2-12.9-21.3-18.5C997.8,488.1,1007.2,494.4,1020.9,499L1020.9,499z"/>
	<path fill-rule="evenodd" clip-rule="evenodd" fill="#C7993E" d="M1043,504.9c0,5.9-12.1,10.7-26.5,10.7
		c-14.4,0-26.5-4.8-26.5-10.7c0-2.7,0-4.5,0-7.2c0-5.9,12.1-10.7,26.5-10.7c14.4,0,26.5,4.8,26.5,10.7
		C1043,500.4,1043,502.2,1043,504.9L1043,504.9z"/>
	<path fill-rule="evenodd" clip-rule="evenodd" fill="#FFFF99" d="M1016.2,508.4c14.4,0,26.1-4.8,26.1-10.7s-11.8-10.7-26.1-10.7
		c-14.4,0-26.1,4.8-26.1,10.7S1001.8,508.4,1016.2,508.4L1016.2,508.4z"/>
	<path fill-rule="evenodd" clip-rule="evenodd" fill="#FFFFFF" d="M1033.7,505.7c-0.9,0.3-1.9,0.7-2.9,0.9l-27.5-18.3
		c1.1-0.2,2.2-0.5,3.4-0.6L1033.7,505.7z M1028.1,507.2c-2.2,0.5-4.7,0.8-7.2,1l-25.6-17c1.5-0.8,3.4-1.6,5.4-2.2L1028.1,507.2z"/>
	<path fill-rule="evenodd" clip-rule="evenodd" fill="#FFFFFF" d="M1017.1,507.3c14.4,0,24.5-4.4,25.2-9.6
		c0,5.9-11.7,10.7-26.1,10.7s-26.1-4.8-26.1-10.7C991.8,504.3,1002.7,507.3,1017.1,507.3L1017.1,507.3z"/>
	<path fill-rule="evenodd" clip-rule="evenodd" fill="#C7993E" d="M1081.6,507.4c-1.9,5.6-14.5,6.4-28.2,1.8
		c-13.7-4.6-23.2-12.9-21.3-18.5c0.8-2.6,1.4-4.3,2.3-6.8c1.9-5.6,14.5-6.5,28.2-1.9c13.6,4.6,23.2,12.9,21.3,18.5
		C1083,503.1,1082.4,504.9,1081.6,507.4L1081.6,507.4z"/>
	<path fill-rule="evenodd" clip-rule="evenodd" fill="#FFFF99" d="M1062.6,482c13.6,4.6,23.2,12.9,21.3,18.5s-14.5,6.4-28.2,1.9
		c-13.7-4.6-23.2-12.9-21.3-18.5C1036.3,478.3,1048.9,477.4,1062.6,482L1062.6,482z"/>
	<path fill-rule="evenodd" clip-rule="evenodd" fill="#FFFFFF" d="M1073.2,505.3c-1,0-2,0-3.1,0l-20.2-26.1c1.1,0.1,2.2,0.2,3.4,0.5
		L1073.2,505.3z M1067.3,505.1c-2.2-0.2-4.7-0.7-7.1-1.3l-18.9-24.3c1.7-0.3,3.7-0.4,5.8-0.4L1067.3,505.1z"/>
	<path fill-rule="evenodd" clip-rule="evenodd" fill="#FFFFFF" d="M1057,501.6c13.7,4.6,24.7,3.6,26.9-1c-1.9,5.6-14.5,6.4-28.2,1.9
		c-13.7-4.6-23.2-12.9-21.3-18.5C1033.9,490.7,1043.3,497,1057,501.6L1057,501.6z"/>
	<path fill-rule="evenodd" clip-rule="evenodd" fill="#C7993E" d="M1051.4,476.5c0.4,5.9-11,11.5-25.3,12.4
		c-14.4,0.9-26.4-3.1-26.8-9c-0.2-2.7-0.3-4.5-0.5-7.2c-0.4-5.9,11-11.5,25.3-12.4c14.4-0.9,26.4,3.1,26.8,9
		C1051.1,472,1051.2,473.8,1051.4,476.5L1051.4,476.5z"/>
	<path fill-rule="evenodd" clip-rule="evenodd" fill="#FFFF99" d="M1024.2,460.3c14.4-0.9,26.4,3.1,26.8,9
		c0.4,5.9-11,11.5-25.4,12.4c-14.4,0.9-26.4-3.1-26.7-9C998.4,466.8,1009.8,461.2,1024.2,460.3L1024.2,460.3z"/>
	<path fill-rule="evenodd" clip-rule="evenodd" fill="#FFFFFF" d="M1042.8,477.8c-0.9,0.4-1.9,0.8-2.9,1.1l-28.6-16.4
		c1-0.3,2.1-0.6,3.3-0.9L1042.8,477.8z M1037.4,479.7c-2.2,0.6-4.6,1.1-7.1,1.5l-26.7-15.3c1.5-0.9,3.2-1.8,5.2-2.6L1037.4,479.7z"
		/>
	<path fill-rule="evenodd" clip-rule="evenodd" fill="#FFFFFF" d="M1026.4,480.5c14.4-0.9,24.2-6.1,24.5-11.2
		c0.4,5.9-11,11.5-25.4,12.4c-14.4,0.9-26.4-3.1-26.7-9C1001,479.2,1012,481.4,1026.4,480.5L1026.4,480.5z"/>
	<path fill-rule="evenodd" clip-rule="evenodd" fill="#C7993E" d="M1012.2,459.9c0.4,5.9-11,11.5-25.4,12.4
		c-14.4,0.9-26.4-3.1-26.7-9c-0.2-2.7-0.3-4.5-0.5-7.2c-0.4-5.9,11-11.5,25.4-12.4c14.4-0.9,26.4,3.1,26.7,9
		C1011.9,455.3,1012.1,457.2,1012.2,459.9L1012.2,459.9z"/>
	<path fill-rule="evenodd" clip-rule="evenodd" fill="#FFFF99" d="M985,443.7c14.4-0.9,26.4,3.1,26.7,9c0.4,5.9-11,11.5-25.3,12.4
		c-14.4,0.9-26.4-3.1-26.8-9C959.2,450.1,970.6,444.6,985,443.7L985,443.7z"/>
	<path fill-rule="evenodd" clip-rule="evenodd" fill="#FFFFFF" d="M1003.7,461.2c-0.9,0.4-1.9,0.8-2.9,1.1l-28.6-16.4
		c1-0.3,2.2-0.6,3.3-0.9L1003.7,461.2z M998.2,463.1c-2.2,0.6-4.6,1.1-7.1,1.5l-26.6-15.3c1.5-0.9,3.2-1.8,5.2-2.6L998.2,463.1z"/>
	<path fill-rule="evenodd" clip-rule="evenodd" fill="#FFFFFF" d="M987.2,463.9c14.4-0.9,24.2-6,24.5-11.2
		c0.4,5.9-11,11.5-25.3,12.4c-14.4,0.9-26.4-3.1-26.8-9C961.8,462.6,972.9,464.8,987.2,463.9L987.2,463.9z"/>
	<path fill-rule="evenodd" clip-rule="evenodd" fill="#C7993E" d="M914.3,473.4c2,5.6-7.3,14.1-20.9,19c-13.5,4.9-26.2,4.3-28.2-1.3
		c-0.9-2.6-1.5-4.3-2.4-6.8c-2-5.6,7.3-14,20.9-18.9c13.5-4.9,26.2-4.3,28.2,1.3C912.8,469.1,913.4,470.9,914.3,473.4L914.3,473.4z"
		/>
	<path fill-rule="evenodd" clip-rule="evenodd" fill="#FFFF99" d="M883.7,465.4c13.5-4.9,26.2-4.3,28.2,1.3c2,5.6-7.4,14.1-21,18.9
		c-13.5,4.9-26.2,4.3-28.2-1.3C860.7,478.7,870.1,470.3,883.7,465.4L883.7,465.4z"/>
	<path fill-rule="evenodd" clip-rule="evenodd" fill="#FFFFFF" d="M906.5,477c-0.8,0.6-1.6,1.3-2.4,1.9l-32.1-7.9
		c0.9-0.6,1.9-1.2,2.9-1.7L906.5,477z M901.7,480.4c-2,1.2-4.1,2.3-6.4,3.4l-29.9-7.3c1.2-1.3,2.6-2.6,4.3-3.9L901.7,480.4z"/>
	<path fill-rule="evenodd" clip-rule="evenodd" fill="#FFFFFF" d="M891.4,484.1c13.6-4.9,21.6-12.5,20.5-17.5
		c2,5.6-7.4,14.1-21,18.9c-13.5,4.9-26.2,4.3-28.2-1.3C866.6,490,877.8,489,891.4,484.1L891.4,484.1z"/>
	<path fill-rule="evenodd" clip-rule="evenodd" fill="#C7993E" d="M969,502.2c0,5.9-11.8,10.6-26.2,10.5c-14.4-0.2-26.1-5.1-26-11
		c0-2.7,0.1-4.5,0.1-7.2c0.1-5.9,11.8-10.6,26.2-10.5c14.4,0.1,26,5.1,26,11C969.1,497.7,969,499.5,969,502.2L969,502.2z"/>
	<path fill-rule="evenodd" clip-rule="evenodd" fill="#FFFF99" d="M943.1,484c14.4,0.1,26,5.1,26,11c-0.1,5.9-11.8,10.6-26.2,10.5
		c-14.4-0.2-26-5.1-26-11C916.9,488.5,928.7,483.8,943.1,484L943.1,484z"/>
	<path fill-rule="evenodd" clip-rule="evenodd" fill="#FFFFFF" d="M960.4,502.9c-0.9,0.3-1.9,0.6-2.9,0.9l-27.3-18.5
		c1.1-0.2,2.2-0.5,3.4-0.6L960.4,502.9z M954.8,504.4c-2.2,0.4-4.7,0.7-7.2,0.9l-25.4-17.3c1.5-0.8,3.4-1.5,5.4-2.1L954.8,504.4z"/>
	<path fill-rule="evenodd" clip-rule="evenodd" fill="#FFFFFF" d="M943.8,504.3c14.4,0.1,24.6-4.2,25.3-9.3
		c-0.1,5.9-11.8,10.6-26.2,10.5c-14.4-0.2-26-5.1-26-11C918.5,501.1,929.4,504.2,943.8,504.3L943.8,504.3z"/>
	<path fill-rule="evenodd" clip-rule="evenodd" fill="#C7993E" d="M818.6,629c0,5.9-11.8,10.6-26.2,10.4c-14.4-0.1-26.1-5.1-26-11
		c0-2.7,0.1-4.5,0.1-7.2c0-5.9,11.8-10.6,26.2-10.5c14.4,0.2,26.1,5.1,26,11C818.6,624.4,818.6,626.3,818.6,629L818.6,629z"/>
	<path fill-rule="evenodd" clip-rule="evenodd" fill="#FFFF99" d="M792.7,610.7c14.4,0.2,26.1,5.1,26,11
		c-0.1,5.9-11.8,10.6-26.2,10.5c-14.4-0.2-26-5.1-26-11C766.5,615.2,778.2,610.6,792.7,610.7L792.7,610.7z"/>
	<path fill-rule="evenodd" clip-rule="evenodd" fill="#FFFFFF" d="M809.9,629.6c-0.9,0.3-1.9,0.6-2.9,0.9L779.7,612
		c1-0.2,2.2-0.4,3.4-0.6L809.9,629.6z M804.3,631.1c-2.2,0.5-4.7,0.8-7.2,0.9l-25.4-17.2c1.5-0.8,3.4-1.6,5.4-2.2L804.3,631.1z"/>
	<path fill-rule="evenodd" clip-rule="evenodd" fill="#FFFFFF" d="M793.4,631c14.4,0.2,24.6-4.2,25.3-9.3
		c-0.1,5.9-11.8,10.6-26.2,10.5c-14.4-0.2-26-5.1-26-11C768.1,627.8,778.9,630.9,793.4,631L793.4,631z"/>
	<path fill-rule="evenodd" clip-rule="evenodd" fill="#C7993E" d="M709.4,636.2c2.6,5.4-5.9,14.7-18.9,21c-13,6.2-25.6,6.9-28.2,1.6
		c-1.2-2.4-1.9-4.1-3.1-6.5c-2.6-5.4,5.9-14.7,18.9-20.9c13-6.2,25.6-6.9,28.2-1.6C707.5,632.1,708.3,633.7,709.4,636.2L709.4,636.2
		z"/>
	<path fill-rule="evenodd" clip-rule="evenodd" fill="#FFFF99" d="M678.1,631.3c13-6.2,25.6-6.9,28.2-1.6
		c2.6,5.3-5.9,14.7-18.9,20.9c-13,6.2-25.6,6.9-28.2,1.6C656.6,646.8,665.1,637.5,678.1,631.3L678.1,631.3z"/>
	<path fill-rule="evenodd" clip-rule="evenodd" fill="#FFFFFF" d="M701.9,640.6c-0.7,0.7-1.4,1.4-2.2,2.1l-32.7-4.6
		c0.8-0.7,1.7-1.4,2.7-2.1L701.9,640.6z M697.6,644.4c-1.8,1.4-3.8,2.8-6.1,4l-30.4-4.3c1-1.4,2.3-2.9,3.9-4.3L697.6,644.4z"/>
	<path fill-rule="evenodd" clip-rule="evenodd" fill="#FFFFFF" d="M687.7,649.2c13-6.2,20.2-14.6,18.6-19.5
		c2.6,5.3-5.9,14.7-18.9,20.9c-13,6.2-25.6,6.9-28.2,1.6C663.6,657.4,674.7,655.4,687.7,649.2L687.7,649.2z"/>
	<path fill-rule="evenodd" clip-rule="evenodd" fill="#C7993E" d="M754.7,641.3c1,5.8-9.6,12.6-23.8,15.1
		c-14.2,2.6-26.6-0.1-27.6-5.9c-0.5-2.7-0.8-4.5-1.3-7.1c-1-5.8,9.6-12.6,23.8-15.2c14.2-2.6,26.6,0.1,27.6,6
		C753.9,636.8,754.2,638.6,754.7,641.3L754.7,641.3z"/>
	<path fill-rule="evenodd" clip-rule="evenodd" fill="#FFFF99" d="M725.8,628.2c14.2-2.6,26.6,0.1,27.6,6c1,5.8-9.6,12.6-23.8,15.1
		c-14.2,2.6-26.5-0.1-27.6-5.9C701,637.6,711.6,630.8,725.8,628.2L725.8,628.2z"/>
	<path fill-rule="evenodd" clip-rule="evenodd" fill="#FFFFFF" d="M746.3,643.6c-0.8,0.5-1.7,1-2.7,1.4l-30.3-13.1
		c1-0.5,2.1-0.8,3.2-1.3L746.3,643.6z M741.1,646.1c-2.1,0.9-4.4,1.6-6.9,2.3L706,636.1c1.3-1.1,3-2.1,4.9-3.1L741.1,646.1z"/>
	<path fill-rule="evenodd" clip-rule="evenodd" fill="#FFFFFF" d="M730.3,648.1c14.2-2.6,23.3-8.7,23.1-13.9
		c1,5.8-9.6,12.6-23.8,15.1c-14.2,2.6-26.5-0.1-27.6-5.9C704.9,649.6,716.1,650.6,730.3,648.1L730.3,648.1z"/>
	<path fill-rule="evenodd" clip-rule="evenodd" fill="#C7993E" d="M845.2,644.2c0.1,5.9-11.5,10.9-25.9,11.2
		c-14.4,0.2-26.2-4.4-26.3-10.3c0-2.7-0.1-4.5-0.1-7.2c-0.1-5.9,11.5-10.9,25.9-11.1c14.4-0.2,26.2,4.4,26.3,10.3
		C845.1,639.7,845.1,641.6,845.2,644.2L845.2,644.2z"/>
	<path fill-rule="evenodd" clip-rule="evenodd" fill="#FFFF99" d="M818.8,626.7c14.4-0.2,26.2,4.4,26.3,10.3
		c0.1,5.9-11.5,10.9-26,11.1c-14.4,0.2-26.2-4.4-26.2-10.3C792.7,631.9,804.4,626.9,818.8,626.7L818.8,626.7z"/>
	<path fill-rule="evenodd" clip-rule="evenodd" fill="#FFFFFF" d="M836.5,645.2c-0.9,0.3-1.9,0.7-2.9,1l-27.8-17.8
		c1-0.3,2.2-0.5,3.3-0.7L836.5,645.2z M831,646.8c-2.2,0.5-4.7,0.9-7.2,1.1l-25.9-16.6c1.5-0.9,3.3-1.6,5.4-2.3L831,646.8z"/>
	<path fill-rule="evenodd" clip-rule="evenodd" fill="#FFFFFF" d="M820,647c14.4-0.2,24.5-4.8,25.1-10c0.1,5.9-11.5,10.9-26,11.1
		c-14.4,0.2-26.2-4.4-26.2-10.3C794.6,644.4,805.6,647.2,820,647L820,647z"/>
	<path fill-rule="evenodd" clip-rule="evenodd" fill="#C7993E" d="M630.9,675.1c0.1,5.9-11.5,10.9-25.9,11.1
		c-14.4,0.2-26.2-4.4-26.3-10.3c0-2.7-0.1-4.5-0.1-7.2c-0.1-5.9,11.5-10.9,25.9-11.1c14.4-0.2,26.2,4.4,26.3,10.3
		C630.8,670.6,630.8,672.4,630.9,675.1L630.9,675.1z"/>
	<path fill-rule="evenodd" clip-rule="evenodd" fill="#FFFF99" d="M604.5,657.5c14.4-0.2,26.2,4.4,26.3,10.3
		c0.1,5.9-11.5,10.9-26,11.2c-14.4,0.2-26.2-4.4-26.2-10.4C578.5,662.8,590.1,657.7,604.5,657.5L604.5,657.5z"/>
	<path fill-rule="evenodd" clip-rule="evenodd" fill="#FFFFFF" d="M622.2,676c-0.9,0.3-1.9,0.7-2.9,1l-27.8-17.8
		c1-0.3,2.2-0.5,3.3-0.7L622.2,676z M616.7,677.7c-2.2,0.5-4.7,0.9-7.2,1.1l-25.9-16.6c1.5-0.8,3.3-1.6,5.4-2.3L616.7,677.7z"/>
	<path fill-rule="evenodd" clip-rule="evenodd" fill="#FFFFFF" d="M605.7,677.8c14.4-0.2,24.5-4.8,25.1-10
		c0.1,5.9-11.5,10.9-26,11.2c-14.4,0.2-26.2-4.4-26.2-10.4C580.3,675.3,591.3,678.1,605.7,677.8L605.7,677.8z"/>
	<path fill-rule="evenodd" clip-rule="evenodd" fill="#C7993E" d="M1003.8,700.2c0.1,5.9-11.5,10.9-25.9,11.1
		c-14.4,0.2-26.2-4.4-26.3-10.3c0-2.7-0.1-4.5-0.1-7.2c-0.1-5.9,11.5-10.9,25.9-11.1c14.4-0.2,26.2,4.4,26.3,10.3
		C1003.7,695.6,1003.8,697.5,1003.8,700.2L1003.8,700.2z"/>
	<path fill-rule="evenodd" clip-rule="evenodd" fill="#FFFF99" d="M977.4,682.6c14.4-0.2,26.2,4.4,26.3,10.3
		c0.1,5.9-11.5,10.9-25.9,11.2c-14.4,0.2-26.2-4.4-26.3-10.4C951.4,687.8,963,682.8,977.4,682.6L977.4,682.6z"/>
	<path fill-rule="evenodd" clip-rule="evenodd" fill="#FFFFFF" d="M995.2,701.1c-0.9,0.3-1.9,0.7-2.9,1l-27.8-17.8
		c1-0.3,2.2-0.5,3.3-0.7L995.2,701.1z M989.6,702.7c-2.2,0.5-4.7,0.9-7.2,1.1l-25.9-16.6c1.5-0.8,3.3-1.6,5.4-2.3L989.6,702.7z"/>
	<path fill-rule="evenodd" clip-rule="evenodd" fill="#FFFFFF" d="M978.7,702.9c14.4-0.2,24.5-4.8,25-10
		c0.1,5.9-11.5,10.9-25.9,11.2c-14.4,0.2-26.2-4.4-26.3-10.4C953.3,700.4,964.2,703.2,978.7,702.9L978.7,702.9z"/>
	<path fill-rule="evenodd" clip-rule="evenodd" fill="#C7993E" d="M1100.3,679.5c0.1,5.9-11.5,10.9-25.9,11.2
		c-14.4,0.2-26.2-4.4-26.3-10.4c0-2.7-0.1-4.5-0.1-7.2c-0.1-5.9,11.5-10.9,25.9-11.1c14.4-0.2,26.2,4.4,26.3,10.3
		C1100.2,675,1100.2,676.9,1100.3,679.5L1100.3,679.5z"/>
	<path fill-rule="evenodd" clip-rule="evenodd" fill="#FFFF99" d="M1073.9,662c14.4-0.2,26.2,4.4,26.3,10.3
		c0.1,5.9-11.5,10.9-25.9,11.1c-14.4,0.2-26.2-4.4-26.3-10.3C1047.9,667.2,1059.5,662.2,1073.9,662L1073.9,662z"/>
	<path fill-rule="evenodd" clip-rule="evenodd" fill="#FFFFFF" d="M1091.7,680.5c-0.9,0.3-1.9,0.7-2.9,1l-27.8-17.8
		c1.1-0.3,2.2-0.5,3.4-0.7L1091.7,680.5z M1086.1,682.1c-2.2,0.5-4.6,0.9-7.2,1.1l-25.9-16.6c1.5-0.9,3.3-1.6,5.4-2.3L1086.1,682.1z
		"/>
	<path fill-rule="evenodd" clip-rule="evenodd" fill="#FFFFFF" d="M1075.1,682.3c14.4-0.2,24.5-4.8,25-10
		c0.1,5.9-11.5,10.9-25.9,11.1c-14.4,0.2-26.2-4.4-26.3-10.3C1049.8,679.7,1060.7,682.5,1075.1,682.3L1075.1,682.3z"/>
	<path fill-rule="evenodd" clip-rule="evenodd" fill="#C7993E" d="M1127.8,701.3c-1.4,5.8-13.9,7.7-27.9,4.3
		c-14-3.4-24.3-10.8-22.9-16.5c0.6-2.6,1.1-4.4,1.7-7c1.4-5.8,13.9-7.7,27.9-4.3c14,3.4,24.3,10.8,22.9,16.5
		C1128.8,696.9,1128.4,698.7,1127.8,701.3L1127.8,701.3z"/>
	<path fill-rule="evenodd" clip-rule="evenodd" fill="#FFFF99" d="M1106.6,677.8c14,3.4,24.3,10.8,22.9,16.5
		c-1.4,5.8-13.9,7.7-27.9,4.3c-14-3.4-24.3-10.8-22.9-16.5C1080.1,676.3,1092.6,674.4,1106.6,677.8L1106.6,677.8z"/>
	<path fill-rule="evenodd" clip-rule="evenodd" fill="#FFFFFF" d="M1119.2,700c-1,0.1-2,0.2-3.1,0.2l-22.4-24.2c1.1,0,2.2,0,3.4,0.1
		L1119.2,700z M1113.4,700.3c-2.3-0.1-4.7-0.3-7.2-0.7l-20.9-22.5c1.7-0.5,3.6-0.7,5.8-0.9L1113.4,700.3z"/>
	<path fill-rule="evenodd" clip-rule="evenodd" fill="#FFFFFF" d="M1102.8,697.7c14,3.4,24.9,1.4,26.7-3.4
		c-1.4,5.8-13.9,7.7-27.9,4.3c-14-3.4-24.3-10.8-22.9-16.5C1078.8,688.9,1088.7,694.4,1102.8,697.7L1102.8,697.7z"/>
	<path fill-rule="evenodd" clip-rule="evenodd" fill="#C7993E" d="M1037.6,698.5c-1.4,5.8-13.9,7.7-27.9,4.3
		c-14-3.4-24.3-10.8-22.9-16.5c0.6-2.6,1-4.4,1.7-7c1.4-5.8,13.9-7.7,27.9-4.3c14,3.4,24.3,10.8,22.9,16.5
		C1038.7,694.1,1038.3,695.9,1037.6,698.5L1037.6,698.5z"/>
	<path fill-rule="evenodd" clip-rule="evenodd" fill="#FFFF99" d="M1016.4,674.9c14,3.4,24.3,10.8,22.9,16.5s-13.9,7.7-27.9,4.3
		c-14-3.4-24.3-10.8-22.9-16.5C989.9,673.5,1002.4,671.6,1016.4,674.9L1016.4,674.9z"/>
	<path fill-rule="evenodd" clip-rule="evenodd" fill="#FFFFFF" d="M1029.1,697.2c-1,0.1-2,0.2-3.1,0.2l-22.5-24.2
		c1.1,0,2.2,0,3.4,0.1L1029.1,697.2z M1023.3,697.5c-2.3-0.1-4.7-0.3-7.2-0.7l-20.9-22.5c1.7-0.5,3.6-0.8,5.7-0.9L1023.3,697.5z"/>
	<path fill-rule="evenodd" clip-rule="evenodd" fill="#FFFFFF" d="M1012.6,694.9c14,3.4,24.9,1.4,26.7-3.4
		c-1.4,5.8-13.9,7.7-27.9,4.3c-14-3.4-24.3-10.8-22.9-16.5C988.7,686.1,998.6,691.5,1012.6,694.9L1012.6,694.9z"/>
	<path fill-rule="evenodd" clip-rule="evenodd" fill="#C7993E" d="M876.3,647c-1.4,5.8-13.9,7.7-27.9,4.3
		c-14-3.4-24.3-10.8-22.9-16.5c0.6-2.6,1.1-4.4,1.7-7c1.4-5.8,13.9-7.7,27.9-4.3c14,3.4,24.3,10.8,22.9,16.5
		C877.4,642.6,876.9,644.3,876.3,647L876.3,647z"/>
	<path fill-rule="evenodd" clip-rule="evenodd" fill="#FFFF99" d="M855.1,623.4c14,3.4,24.3,10.8,22.9,16.5
		c-1.4,5.8-13.9,7.7-27.9,4.3c-14-3.4-24.3-10.8-22.9-16.5C828.6,622,841.1,620,855.1,623.4L855.1,623.4z"/>
	<path fill-rule="evenodd" clip-rule="evenodd" fill="#FFFFFF" d="M867.7,645.7c-1,0.1-2,0.2-3.1,0.2l-22.4-24.2
		c1.1,0,2.2,0,3.4,0.1L867.7,645.7z M861.9,645.9c-2.3-0.1-4.7-0.3-7.2-0.7l-20.9-22.5c1.7-0.5,3.6-0.8,5.8-0.9L861.9,645.9z"/>
	<path fill-rule="evenodd" clip-rule="evenodd" fill="#FFFFFF" d="M851.2,643.4c14,3.4,24.9,1.4,26.7-3.4
		c-1.4,5.8-13.9,7.7-27.9,4.3c-14-3.4-24.3-10.8-22.9-16.5C827.3,634.6,837.2,640,851.2,643.4L851.2,643.4z"/>
	<path fill-rule="evenodd" clip-rule="evenodd" fill="#C7993E" d="M515.3,702.6c2,5.6-7.4,14.1-20.9,19c-13.6,4.9-26.2,4.3-28.2-1.3
		c-0.9-2.5-1.5-4.3-2.4-6.8c-2-5.6,7.3-14.1,20.9-18.9c13.6-4.9,26.2-4.3,28.2,1.3C513.7,698.3,514.3,700,515.3,702.6L515.3,702.6z"
		/>
	<path fill-rule="evenodd" clip-rule="evenodd" fill="#FFFF99" d="M484.6,694.5c13.6-4.9,26.2-4.3,28.2,1.3
		c2,5.6-7.3,14.1-20.9,18.9c-13.6,4.9-26.2,4.3-28.2-1.3C461.6,707.9,471,699.4,484.6,694.5L484.6,694.5z"/>
	<path fill-rule="evenodd" clip-rule="evenodd" fill="#FFFFFF" d="M507.4,706.2c-0.8,0.6-1.6,1.3-2.4,1.9l-32-7.9
		c0.9-0.6,1.9-1.2,2.9-1.7L507.4,706.2z M502.7,709.6c-1.9,1.2-4.1,2.3-6.4,3.4l-29.8-7.3c1.1-1.3,2.6-2.6,4.3-3.9L502.7,709.6z"/>
	<path fill-rule="evenodd" clip-rule="evenodd" fill="#FFFFFF" d="M492.4,713.3c13.5-4.9,21.6-12.5,20.4-17.5
		c2,5.6-7.3,14.1-20.9,18.9c-13.6,4.9-26.2,4.3-28.2-1.3C467.5,719.1,478.8,718.2,492.4,713.3L492.4,713.3z"/>
	<path fill-rule="evenodd" clip-rule="evenodd" fill="#C7993E" d="M1234.3,743.8c-0.3,5.9-12.2,10.2-26.6,9.6
		c-14.4-0.6-25.9-5.9-25.6-11.9c0.1-2.7,0.2-4.5,0.3-7.2c0.2-5.9,12.1-10.2,26.6-9.6c14.4,0.6,25.9,5.9,25.6,11.9
		C1234.4,739.3,1234.4,741.1,1234.3,743.8L1234.3,743.8z"/>
	<path fill-rule="evenodd" clip-rule="evenodd" fill="#FFFF99" d="M1209,724.7c14.4,0.6,25.9,5.9,25.6,11.9
		c-0.3,5.9-12.2,10.2-26.6,9.6c-14.4-0.6-25.9-5.9-25.6-11.9C1182.7,728.4,1194.6,724.1,1209,724.7L1209,724.7z"/>
	<path fill-rule="evenodd" clip-rule="evenodd" fill="#FFFFFF" d="M1225.6,744.2c-0.9,0.3-1.9,0.6-3,0.8l-26.7-19.4
		c1.1-0.2,2.2-0.4,3.4-0.5L1225.6,744.2z M1220,745.5c-2.3,0.4-4.7,0.6-7.2,0.7l-24.8-18.1c1.6-0.8,3.4-1.4,5.5-2L1220,745.5z"/>
	<path fill-rule="evenodd" clip-rule="evenodd" fill="#FFFFFF" d="M1209,745.1c14.4,0.6,24.7-3.4,25.6-8.5
		c-0.3,5.9-12.2,10.2-26.6,9.6c-14.4-0.6-25.9-5.9-25.6-11.9C1183.8,741,1194.6,744.4,1209,745.1L1209,745.1z"/>
</g>
<g>
	<linearGradient id="SVGID_1_" gradientUnits="userSpaceOnUse" x1="1002" y1="-7.071321e-009" x2="1002" y2="979.6828">
		<stop  offset="0" style="stop-color:#FFFFAA;stop-opacity:0.3"/>
		<stop  offset="1" style="stop-color:#FFFFFF;stop-opacity:0"/>
	</linearGradient>
	<polygon fill-rule="evenodd" clip-rule="evenodd" fill="url(#SVGID_1_)" points="844.5,0 621.7,970 1382.3,979.7 1140.8,0 	"/>
</g>
<g>
	<path fill-rule="evenodd" clip-rule="evenodd" fill="#FF9933" d="M0,0h1050.2l-11.7,30l-29.6,10.4l-7.4,29.7l-16.7,7.4L980,89.4
		V133h-18.4l-25.2-21.8l-10.4,9.1l-3.1,40.1L905,190.1v47.4l-17.7,7.4l-29.6-34.1l-53.3-32.6L748.2,71.6l-32.6-35.5l-19.2,13.3
		l-41.5,13.3L627,119l-13,23.7v31.1l-15.1-3l-12-50.3l-23.8-8.9l-40-32.6l-44.5-8.9l-50.4,32.6l-40,35.5l-10.4,35.5l-22.2,4.4
		l-20.7-10.4l-34.1,26.7l-59.2,22.2l-43,38.5l-37,47.4l-31.1,71.1l-34.1,69.6l-4.4,111.1l5.9,68.1l20.8,99.2l16.3,62.2l72.6,44.4
		l38.5,59.3l16.3,8.9l8.9,38.5l34.1,19.3l15.2,25.6H0V0z M1203.4,0H1400v347.9l-6-20v-4.4l-19.2-81.5l1.5-37l1.5-4.4l-44.4-71.1
		l-23.7-60.7l-56.3-22.3L1203.4,0z M1400,756.3V980H723.2l72.4-42h53.3l84.4-44.4l111.1-7.4l78.5-14.8l94.8-43l91.9-4.4l50.7-44.4
		L1400,756.3z"/>
	<path fill-rule="evenodd" clip-rule="evenodd" fill="#59320D" d="M0,0h1043.2l-3.9,14.4l-11.1,13.4l-22.2,6l-8.9,27.4l-11.9,11.8
		L983,59l-7.4,38.5l-3.7,29.6l-8.9-1.5l-34.8-22.2L906,78.3l9.6,32.6l7.4,17l-9.6,31.8L897.8,196l-2.2,3l-15.6,26.7l-17-18.5
		l-45.9-26.7l-1.5-2.2l-42.2-71.8l-22.2-54.8l-5.9,8.1L711.2,25l-12.6,16.3l-41.5,13.3l-35.6,63.7l-17.8,45.9l-3.7-8.2l-14.8-46.6
		l-13.3-5.9l-5.9,3L526,79L514.1,65L452.7,59l17,8.2l-65.2,51.1L389,130.1l4.4-28.9l-20,52.6l-14.8,16.3l-25.2-5.9l-32.6,21.5
		l-30.4,12.6L237.8,216l13.3-32.6l26.7-28.9l30.4-60.7L280.1,139l-8.9,17L243,179.7l-13.3,40l-57.8,40.8l-41.5,45.2l-12.6,58.5
		l-17.8,57l-5.9,17.8l-6.7-43.7l-14.1-55.6l3-42.9l-5.9-65.9l-2.9,57l2.9,46.6L63,366.3L74.1,453l15.3,42.2L81,569.3v50.3v97.8
		l15.1,63l-3.6-37.8l8.2-25.9L126,787l13.1,14.1l4.9,12.6V801l55.8,32.6l30.5,55.5l11.9,49.6l3.7-40.7l11.8,11.1l11.1,39.2
		l14.1,23.7l-0.7-20.7l21.5,11.9l12.6,16.7H0V0z M768.6,980l15.9-17l20.8-16h51.8l-10.4,14.4l28.1-13.5l75.6-41.6l103.7-10.4
		l-22.2,22.2l-56.3,14.8l63.7-5.9l41.5-35.5l54.8-14.8l97.8-42.9l72.6-3l-34.1,35.5l-62.2,29.6l-45.9,13.3l44.4-5.9l37.1-17.8
		l38.5-16.3l44.4-47.4l38.8-41.5l33-16.3v216H768.6z M1400,293.2l-13.7-31.2l-2.8-48.9l16.5,25V293.2z M1400,231.1l-19.6-44.7
		l-26.8-60.7l-34.2-57.8l40,13.3l20.7,20.7l-20.8-29.6L1301.5,59l-47.4-25.3L1223.3,0H1400V231.1z"/>
</g>
<g>
	<polygon fill-rule="evenodd" clip-rule="evenodd" fill="#FF6E00" points="1400,963.3 1349.5,944.4 1253.2,926.7 1079.9,851.1 
		1011.8,783 971.8,777.1 893.3,726.7 828.1,677.8 751,676.4 711,713.4 654.7,691.2 607.3,706 545.1,743 508.1,737.1 425.1,824.5 
		385.1,855.6 343.6,851.1 321.4,815.6 294.7,814.1 263.6,837.8 232.5,815.7 188.1,681 173.3,681 108.1,805.3 67.9,837.8 0,838.5 
		0,980 1400,980 	"/>
	<polygon fill-rule="evenodd" clip-rule="evenodd" fill="#3D2106" points="0,840.6 0,980 1400,980 1400,967 1379.6,960 1377.3,960 
		1267.7,936.1 1287.7,949.4 1244.8,928.6 1180.3,904.9 1187,923.4 1169.2,901.9 1082.5,855.2 1124,890 1069.9,862.6 1041,842.6 
		1021,800.4 991.4,790 971.4,781.2 952.2,770.1 919.5,752.3 839.5,694.5 789.9,683.4 741,700.4 715.9,717.5 764,741.9 781,765.6 
		821.8,781.9 776.6,770.1 752.2,751.6 724.8,736.7 709.9,722.7 686.2,718.9 641.8,707.9 608.4,713.8 550.7,744.9 560.3,764.9 
		539.6,749.3 518.8,745.6 509.9,746.3 430.7,838.9 412.9,850 372.9,874.5 352.2,888.5 321.1,889.3 360.3,876.7 380.3,859.7 
		349.9,856 351.4,866.3 341.8,860.4 331.4,841.2 315.1,824.1 291.4,822.6 257.3,851.5 235.9,853.8 250.7,847.1 259.6,841.9 
		205.5,835.2 220.3,821.9 210.8,816 205,787.8 205,758.2 185,716 185,689.3 170.4,693.8 117.2,805.6 106.2,819.7 107,812.3 
		84.7,833 63.3,841.9 32,844.1 	"/>
</g>
</svg>
